<?xml version="1.0" encoding="utf-8" standalone="no"?>
<!DOCTYPE svg PUBLIC "-//W3C//DTD SVG 1.1//EN"
  "http://www.w3.org/Graphics/SVG/1.1/DTD/svg11.dtd">
<svg xmlns:xlink="http://www.w3.org/1999/xlink" width="122.4pt" height="108pt" viewBox="0 0 122.4 108" xmlns="http://www.w3.org/2000/svg" version="1.1">
 <metadata>
  <rdf:RDF xmlns:dc="http://purl.org/dc/elements/1.1/" xmlns:cc="http://creativecommons.org/ns#" xmlns:rdf="http://www.w3.org/1999/02/22-rdf-syntax-ns#">
   <cc:Work>
    <dc:type rdf:resource="http://purl.org/dc/dcmitype/StillImage"/>
    <dc:date>2023-11-26T10:35:00.831301</dc:date>
    <dc:format>image/svg+xml</dc:format>
    <dc:creator>
     <cc:Agent>
      <dc:title>Matplotlib v3.5.2, https://matplotlib.org/</dc:title>
     </cc:Agent>
    </dc:creator>
   </cc:Work>
  </rdf:RDF>
 </metadata>
 <defs>
  <style type="text/css">*{stroke-linejoin: round; stroke-linecap: butt}</style>
 </defs>
 <g id="figure_1">
  <g id="patch_1">
   <path d="M 0 108 
L 122.4 108 
L 122.4 0 
L 0 0 
z
" style="fill: #ffffff"/>
  </g>
  <g id="axes_1">
   <g id="patch_2">
    <path d="M 34.706 71.08 
L 113.76 71.08 
L 113.76 11.52 
L 34.706 11.52 
z
" style="fill: #ffffff"/>
   </g>
   <g id="PathCollection_1">
    <defs>
     <path id="m7c0949d609" d="M 0 1.936492 
C 0.513564 1.936492 1.006162 1.732451 1.369306 1.369306 
C 1.732451 1.006162 1.936492 0.513564 1.936492 0 
C 1.936492 -0.513564 1.732451 -1.006162 1.369306 -1.369306 
C 1.006162 -1.732451 0.513564 -1.936492 0 -1.936492 
C -0.513564 -1.936492 -1.006162 -1.732451 -1.369306 -1.369306 
C -1.732451 -1.006162 -1.936492 -0.513564 -1.936492 0 
C -1.936492 0.513564 -1.732451 1.006162 -1.369306 1.369306 
C -1.006162 1.732451 -0.513564 1.936492 0 1.936492 
z
" style="stroke: #1f77b4"/>
    </defs>
    <g clip-path="url(#pe06b2b4157)">
     <use xlink:href="#m7c0949d609" x="41.293833" y="30.792571" style="fill: #1f77b4; stroke: #1f77b4"/>
     <use xlink:href="#m7c0949d609" x="74.233" y="45.072927" style="fill: #1f77b4; stroke: #1f77b4"/>
     <use xlink:href="#m7c0949d609" x="64.35125" y="39.624584" style="fill: #1f77b4; stroke: #1f77b4"/>
     <use xlink:href="#m7c0949d609" x="95.314067" y="38.479646" style="fill: #1f77b4; stroke: #1f77b4"/>
     <use xlink:href="#m7c0949d609" x="41.293833" y="24.843872" style="fill: #1f77b4; stroke: #1f77b4"/>
     <use xlink:href="#m7c0949d609" x="74.233" y="39.31278" style="fill: #1f77b4; stroke: #1f77b4"/>
     <use xlink:href="#m7c0949d609" x="47.881667" y="33.994081" style="fill: #1f77b4; stroke: #1f77b4"/>
     <use xlink:href="#m7c0949d609" x="74.233" y="52.539626" style="fill: #1f77b4; stroke: #1f77b4"/>
    </g>
   </g>
   <g id="PathCollection_2">
    <defs>
     <path id="m43399fe4ae" d="M 0 1.936492 
C 0.513564 1.936492 1.006162 1.732451 1.369306 1.369306 
C 1.732451 1.006162 1.936492 0.513564 1.936492 0 
C 1.936492 -0.513564 1.732451 -1.006162 1.369306 -1.369306 
C 1.006162 -1.732451 0.513564 -1.936492 0 -1.936492 
C -0.513564 -1.936492 -1.006162 -1.732451 -1.369306 -1.369306 
C -1.732451 -1.006162 -1.936492 -0.513564 -1.936492 0 
C -1.936492 0.513564 -1.732451 1.006162 -1.369306 1.369306 
C -1.006162 1.732451 -0.513564 1.936492 0 1.936492 
z
" style="stroke: #d62728"/>
    </defs>
    <g clip-path="url(#pe06b2b4157)">
     <use xlink:href="#m43399fe4ae" x="41.293833" y="38.661977" style="fill: #d62728; stroke: #d62728"/>
     <use xlink:href="#m43399fe4ae" x="74.233" y="46.283646" style="fill: #d62728; stroke: #d62728"/>
     <use xlink:href="#m43399fe4ae" x="41.293833" y="44.430128" style="fill: #d62728; stroke: #d62728"/>
     <use xlink:href="#m43399fe4ae" x="84.11475" y="55.196658" style="fill: #d62728; stroke: #d62728"/>
     <use xlink:href="#m43399fe4ae" x="54.4695" y="47.135942" style="fill: #d62728; stroke: #d62728"/>
     <use xlink:href="#m43399fe4ae" x="87.408667" y="55.019264" style="fill: #d62728; stroke: #d62728"/>
     <use xlink:href="#m43399fe4ae" x="74.233" y="52.867768" style="fill: #d62728; stroke: #d62728"/>
     <use xlink:href="#m43399fe4ae" x="107.172167" y="54.850125" style="fill: #d62728; stroke: #d62728"/>
    </g>
   </g>
   <g id="matplotlib.axis_1">
    <g id="xtick_1">
     <g id="line2d_1">
      <defs>
       <path id="m759f9365eb" d="M 0 0 
L 0 3.5 
" style="stroke: #000000; stroke-width: 0.8"/>
      </defs>
      <g>
       <use xlink:href="#m759f9365eb" x="41.293833" y="71.08" style="stroke: #000000; stroke-width: 0.8"/>
      </g>
     </g>
     <g id="text_1">
      <text style="font: 8px 'sans-serif'; text-anchor: middle" x="41.293833" y="84.15875" transform="rotate(-0, 41.293833, 84.15875)">50</text>
     </g>
    </g>
    <g id="xtick_2">
     <g id="line2d_2">
      <g>
       <use xlink:href="#m759f9365eb" x="74.233" y="71.08" style="stroke: #000000; stroke-width: 0.8"/>
      </g>
     </g>
     <g id="text_2">
      <text style="font: 8px 'sans-serif'; text-anchor: middle" x="74.233" y="84.15875" transform="rotate(-0, 74.233, 84.15875)">100</text>
     </g>
    </g>
    <g id="xtick_3">
     <g id="line2d_3">
      <g>
       <use xlink:href="#m759f9365eb" x="107.172167" y="71.08" style="stroke: #000000; stroke-width: 0.8"/>
      </g>
     </g>
     <g id="text_3">
      <text style="font: 8px 'sans-serif'; text-anchor: middle" x="107.172167" y="84.15875" transform="rotate(-0, 107.172167, 84.15875)">150</text>
     </g>
    </g>
    <g id="text_4">
     <!-- $I_{s}$ [pA] -->
     <g transform="translate(61.793 95.9025)">
      <text>
       <tspan style="font: oblique 8px 'DejaVu Sans'" x="0" y="-0.921875">I</tspan>
       <tspan style="font: oblique 5.6px 'DejaVu Sans'" x="2.359375" y="0.390625">s</tspan>
       <tspan style="font: 8px 'DejaVu Sans'" x="5.495703 8.038672 11.159766 16.237891 21.710547" y="-0.921875"> [pA]</tspan>
      </text>
     </g>
    </g>
   </g>
   <g id="matplotlib.axis_2">
    <g id="ytick_1">
     <g id="line2d_4">
      <defs>
       <path id="md3017e5868" d="M 0 0 
L -3.5 0 
" style="stroke: #000000; stroke-width: 0.8"/>
      </defs>
      <g>
       <use xlink:href="#md3017e5868" x="34.706" y="71.08" style="stroke: #000000; stroke-width: 0.8"/>
      </g>
     </g>
     <g id="text_5">
      <text style="font: 8px 'sans-serif'; text-anchor: end" x="27.706" y="74.119375" transform="rotate(-0, 27.706, 74.119375)">0</text>
     </g>
    </g>
    <g id="ytick_2">
     <g id="line2d_5">
      <g>
       <use xlink:href="#md3017e5868" x="34.706" y="41.3" style="stroke: #000000; stroke-width: 0.8"/>
      </g>
     </g>
     <g id="text_6">
      <text style="font: 8px 'sans-serif'; text-anchor: end" x="27.706" y="44.339375" transform="rotate(-0, 27.706, 44.339375)">2</text>
     </g>
    </g>
    <g id="ytick_3">
     <g id="line2d_6">
      <g>
       <use xlink:href="#md3017e5868" x="34.706" y="11.52" style="stroke: #000000; stroke-width: 0.8"/>
      </g>
     </g>
     <g id="text_7">
      <text style="font: 8px 'sans-serif'; text-anchor: end" x="27.706" y="14.559375" transform="rotate(-0, 27.706, 14.559375)">4</text>
     </g>
    </g>
    <g id="text_8">
     <!-- $C_{v}$ -->
     <g transform="translate(16.95225 45.86)rotate(-90)">
      <text>
       <tspan style="font: oblique 8px 'DejaVu Sans'" x="0" y="-0.0625">C</tspan>
       <tspan style="font: oblique 5.6px 'DejaVu Sans'" x="5.585938" y="1.25">v</tspan>
      </text>
     </g>
    </g>
   </g>
   <g id="LineCollection_1">
    <path clip-path="url(#pe06b2b4157)" style="fill: none; stroke: #1f77b4; stroke-width: 1.5"/>
    <path d="M 41.293833 34.691519 
L 41.293833 26.893623 
" clip-path="url(#pe06b2b4157)" style="fill: none; stroke: #1f77b4; stroke-width: 1.5"/>
    <path d="M 74.233 46.326902 
L 74.233 43.818951 
" clip-path="url(#pe06b2b4157)" style="fill: none; stroke: #1f77b4; stroke-width: 1.5"/>
    <path clip-path="url(#pe06b2b4157)" style="fill: none; stroke: #1f77b4; stroke-width: 1.5"/>
    <path d="M 64.35125 43.815317 
L 64.35125 35.43385 
" clip-path="url(#pe06b2b4157)" style="fill: none; stroke: #1f77b4; stroke-width: 1.5"/>
    <path d="M 95.314067 40.856566 
L 95.314067 36.102726 
" clip-path="url(#pe06b2b4157)" style="fill: none; stroke: #1f77b4; stroke-width: 1.5"/>
    <path clip-path="url(#pe06b2b4157)" style="fill: none; stroke: #1f77b4; stroke-width: 1.5"/>
    <path d="M 41.293833 29.983744 
L 41.293833 19.703999 
" clip-path="url(#pe06b2b4157)" style="fill: none; stroke: #1f77b4; stroke-width: 1.5"/>
    <path d="M 74.233 41.470912 
L 74.233 37.154647 
" clip-path="url(#pe06b2b4157)" style="fill: none; stroke: #1f77b4; stroke-width: 1.5"/>
    <path clip-path="url(#pe06b2b4157)" style="fill: none; stroke: #1f77b4; stroke-width: 1.5"/>
    <path d="M 47.881667 36.212822 
L 47.881667 31.775341 
" clip-path="url(#pe06b2b4157)" style="fill: none; stroke: #1f77b4; stroke-width: 1.5"/>
    <path clip-path="url(#pe06b2b4157)" style="fill: none; stroke: #1f77b4; stroke-width: 1.5"/>
    <path d="M 74.233 53.485064 
L 74.233 51.594188 
" clip-path="url(#pe06b2b4157)" style="fill: none; stroke: #1f77b4; stroke-width: 1.5"/>
   </g>
   <g id="LineCollection_2">
    <path clip-path="url(#pe06b2b4157)" style="fill: none; stroke: #d62728; stroke-width: 1.5"/>
    <path d="M 41.293833 44.991932 
L 41.293833 32.332021 
" clip-path="url(#pe06b2b4157)" style="fill: none; stroke: #d62728; stroke-width: 1.5"/>
    <path d="M 74.233 49.544778 
L 74.233 43.022514 
" clip-path="url(#pe06b2b4157)" style="fill: none; stroke: #d62728; stroke-width: 1.5"/>
    <path clip-path="url(#pe06b2b4157)" style="fill: none; stroke: #d62728; stroke-width: 1.5"/>
    <path d="M 41.293833 47.526948 
L 41.293833 41.333308 
" clip-path="url(#pe06b2b4157)" style="fill: none; stroke: #d62728; stroke-width: 1.5"/>
    <path d="M 84.11475 56.034577 
L 84.11475 54.358738 
" clip-path="url(#pe06b2b4157)" style="fill: none; stroke: #d62728; stroke-width: 1.5"/>
    <path clip-path="url(#pe06b2b4157)" style="fill: none; stroke: #d62728; stroke-width: 1.5"/>
    <path d="M 54.4695 49.495043 
L 54.4695 44.776841 
" clip-path="url(#pe06b2b4157)" style="fill: none; stroke: #d62728; stroke-width: 1.5"/>
    <path d="M 87.408667 57.195365 
L 87.408667 52.843162 
" clip-path="url(#pe06b2b4157)" style="fill: none; stroke: #d62728; stroke-width: 1.5"/>
    <path clip-path="url(#pe06b2b4157)" style="fill: none; stroke: #d62728; stroke-width: 1.5"/>
    <path clip-path="url(#pe06b2b4157)" style="fill: none; stroke: #d62728; stroke-width: 1.5"/>
    <path d="M 74.233 55.381069 
L 74.233 50.354467 
" clip-path="url(#pe06b2b4157)" style="fill: none; stroke: #d62728; stroke-width: 1.5"/>
    <path d="M 107.172167 56.222907 
L 107.172167 53.477342 
" clip-path="url(#pe06b2b4157)" style="fill: none; stroke: #d62728; stroke-width: 1.5"/>
   </g>
   <g id="patch_3">
    <path d="M 34.706 71.08 
L 34.706 11.52 
" style="fill: none; stroke: #000000; stroke-width: 0.8; stroke-linejoin: miter; stroke-linecap: square"/>
   </g>
   <g id="patch_4">
    <path d="M 34.706 71.08 
L 113.76 71.08 
" style="fill: none; stroke: #000000; stroke-width: 0.8; stroke-linejoin: miter; stroke-linecap: square"/>
   </g>
  </g>
 </g>
 <defs>
  <clipPath id="pe06b2b4157">
   <rect x="34.706" y="11.52" width="79.054" height="59.56"/>
  </clipPath>
 </defs>
</svg>
