<?xml version="1.0" encoding="utf-8" standalone="no"?>
<!DOCTYPE svg PUBLIC "-//W3C//DTD SVG 1.1//EN"
  "http://www.w3.org/Graphics/SVG/1.1/DTD/svg11.dtd">
<svg xmlns:xlink="http://www.w3.org/1999/xlink" width="122.4pt" height="108pt" viewBox="0 0 122.4 108" xmlns="http://www.w3.org/2000/svg" version="1.1">
 <metadata>
  <rdf:RDF xmlns:dc="http://purl.org/dc/elements/1.1/" xmlns:cc="http://creativecommons.org/ns#" xmlns:rdf="http://www.w3.org/1999/02/22-rdf-syntax-ns#">
   <cc:Work>
    <dc:type rdf:resource="http://purl.org/dc/dcmitype/StillImage"/>
    <dc:date>2023-11-27T20:19:31.442158</dc:date>
    <dc:format>image/svg+xml</dc:format>
    <dc:creator>
     <cc:Agent>
      <dc:title>Matplotlib v3.5.2, https://matplotlib.org/</dc:title>
     </cc:Agent>
    </dc:creator>
   </cc:Work>
  </rdf:RDF>
 </metadata>
 <defs>
  <style type="text/css">*{stroke-linejoin: round; stroke-linecap: butt}</style>
 </defs>
 <g id="figure_1">
  <g id="patch_1">
   <path d="M 0 108 
L 122.4 108 
L 122.4 0 
L 0 0 
z
" style="fill: #ffffff"/>
  </g>
  <g id="axes_1">
   <g id="patch_2">
    <path d="M 39.62 71.08 
L 113.76 71.08 
L 113.76 11.52 
L 39.62 11.52 
z
" style="fill: #ffffff"/>
   </g>
   <g id="PathCollection_1">
    <defs>
     <path id="m608ec36535" d="M 0 1.936492 
C 0.513564 1.936492 1.006162 1.732451 1.369306 1.369306 
C 1.732451 1.006162 1.936492 0.513564 1.936492 0 
C 1.936492 -0.513564 1.732451 -1.006162 1.369306 -1.369306 
C 1.006162 -1.732451 0.513564 -1.936492 0 -1.936492 
C -0.513564 -1.936492 -1.006162 -1.732451 -1.369306 -1.369306 
C -1.732451 -1.006162 -1.936492 -0.513564 -1.936492 0 
C -1.936492 0.513564 -1.732451 1.006162 -1.369306 1.369306 
C -1.006162 1.732451 -0.513564 1.936492 0 1.936492 
z
" style="stroke: #1f77b4"/>
    </defs>
    <g clip-path="url(#pb7424c6c93)">
     <use xlink:href="#m608ec36535" x="45.798333" y="52.459143" style="fill: #1f77b4; stroke: #1f77b4"/>
     <use xlink:href="#m608ec36535" x="76.69" y="21.169642" style="fill: #1f77b4; stroke: #1f77b4"/>
     <use xlink:href="#m608ec36535" x="67.4225" y="62.550326" style="fill: #1f77b4; stroke: #1f77b4"/>
     <use xlink:href="#m608ec36535" x="96.460667" y="50.029263" style="fill: #1f77b4; stroke: #1f77b4"/>
     <use xlink:href="#m608ec36535" x="45.798333" y="49.018215" style="fill: #1f77b4; stroke: #1f77b4"/>
     <use xlink:href="#m608ec36535" x="76.69" y="37.946506" style="fill: #1f77b4; stroke: #1f77b4"/>
     <use xlink:href="#m608ec36535" x="51.976667" y="36.63411" style="fill: #1f77b4; stroke: #1f77b4"/>
     <use xlink:href="#m608ec36535" x="76.69" y="42.404946" style="fill: #1f77b4; stroke: #1f77b4"/>
    </g>
   </g>
   <g id="PathCollection_2">
    <defs>
     <path id="m9e4a140b31" d="M 0 1.936492 
C 0.513564 1.936492 1.006162 1.732451 1.369306 1.369306 
C 1.732451 1.006162 1.936492 0.513564 1.936492 0 
C 1.936492 -0.513564 1.732451 -1.006162 1.369306 -1.369306 
C 1.006162 -1.732451 0.513564 -1.936492 0 -1.936492 
C -0.513564 -1.936492 -1.006162 -1.732451 -1.369306 -1.369306 
C -1.732451 -1.006162 -1.936492 -0.513564 -1.936492 0 
C -1.936492 0.513564 -1.732451 1.006162 -1.369306 1.369306 
C -1.006162 1.732451 -0.513564 1.936492 0 1.936492 
z
" style="stroke: #d62728"/>
    </defs>
    <g clip-path="url(#pb7424c6c93)">
     <use xlink:href="#m9e4a140b31" x="45.798333" y="65.63246" style="fill: #d62728; stroke: #d62728"/>
     <use xlink:href="#m9e4a140b31" x="76.69" y="54.035239" style="fill: #d62728; stroke: #d62728"/>
     <use xlink:href="#m9e4a140b31" x="45.798333" y="64.175831" style="fill: #d62728; stroke: #d62728"/>
     <use xlink:href="#m9e4a140b31" x="85.9575" y="43.20405" style="fill: #d62728; stroke: #d62728"/>
     <use xlink:href="#m9e4a140b31" x="58.155" y="63.155109" style="fill: #d62728; stroke: #d62728"/>
     <use xlink:href="#m9e4a140b31" x="89.046667" y="61.985664" style="fill: #d62728; stroke: #d62728"/>
     <use xlink:href="#m9e4a140b31" x="76.69" y="65.776322" style="fill: #d62728; stroke: #d62728"/>
     <use xlink:href="#m9e4a140b31" x="107.581667" y="57.787479" style="fill: #d62728; stroke: #d62728"/>
    </g>
   </g>
   <g id="matplotlib.axis_1">
    <g id="xtick_1">
     <g id="line2d_1">
      <defs>
       <path id="mf320f48399" d="M 0 0 
L 0 3.5 
" style="stroke: #000000; stroke-width: 0.8"/>
      </defs>
      <g>
       <use xlink:href="#mf320f48399" x="45.798333" y="71.08" style="stroke: #000000; stroke-width: 0.8"/>
      </g>
     </g>
     <g id="text_1">
      <text style="font: 8px 'sans-serif'; text-anchor: middle" x="45.798333" y="84.15875" transform="rotate(-0, 45.798333, 84.15875)">50</text>
     </g>
    </g>
    <g id="xtick_2">
     <g id="line2d_2">
      <g>
       <use xlink:href="#mf320f48399" x="76.69" y="71.08" style="stroke: #000000; stroke-width: 0.8"/>
      </g>
     </g>
     <g id="text_2">
      <text style="font: 8px 'sans-serif'; text-anchor: middle" x="76.69" y="84.15875" transform="rotate(-0, 76.69, 84.15875)">100</text>
     </g>
    </g>
    <g id="xtick_3">
     <g id="line2d_3">
      <g>
       <use xlink:href="#mf320f48399" x="107.581667" y="71.08" style="stroke: #000000; stroke-width: 0.8"/>
      </g>
     </g>
     <g id="text_3">
      <text style="font: 8px 'sans-serif'; text-anchor: middle" x="107.581667" y="84.15875" transform="rotate(-0, 107.581667, 84.15875)">150</text>
     </g>
    </g>
    <g id="text_4">
     <!-- $I_{s}$ [pA] -->
     <g transform="translate(64.25 95.9025)">
      <text>
       <tspan style="font: oblique 8px 'DejaVu Sans'" x="0" y="-0.921875">I</tspan>
       <tspan style="font: oblique 5.6px 'DejaVu Sans'" x="2.359375" y="0.390625">s</tspan>
       <tspan style="font: 8px 'DejaVu Sans'" x="5.495703 8.038672 11.159766 16.237891 21.710547" y="-0.921875"> [pA]</tspan>
      </text>
     </g>
    </g>
   </g>
   <g id="matplotlib.axis_2">
    <g id="ytick_1">
     <g id="line2d_4">
      <defs>
       <path id="m971c1b640c" d="M 0 0 
L -3.5 0 
" style="stroke: #000000; stroke-width: 0.8"/>
      </defs>
      <g>
       <use xlink:href="#m971c1b640c" x="39.62" y="71.08" style="stroke: #000000; stroke-width: 0.8"/>
      </g>
     </g>
     <g id="text_5">
      <text style="font: 8px 'sans-serif'; text-anchor: end" x="32.62" y="74.119375" transform="rotate(-0, 32.62, 74.119375)">0.0</text>
     </g>
    </g>
    <g id="ytick_2">
     <g id="line2d_5">
      <g>
       <use xlink:href="#m971c1b640c" x="39.62" y="41.3" style="stroke: #000000; stroke-width: 0.8"/>
      </g>
     </g>
     <g id="text_6">
      <text style="font: 8px 'sans-serif'; text-anchor: end" x="32.62" y="44.339375" transform="rotate(-0, 32.62, 44.339375)">2.5</text>
     </g>
    </g>
    <g id="ytick_3">
     <g id="line2d_6">
      <g>
       <use xlink:href="#m971c1b640c" x="39.62" y="11.52" style="stroke: #000000; stroke-width: 0.8"/>
      </g>
     </g>
     <g id="text_7">
      <text style="font: 8px 'sans-serif'; text-anchor: end" x="32.62" y="14.559375" transform="rotate(-0, 32.62, 14.559375)">5.0</text>
     </g>
    </g>
    <g id="text_8">
     <text style="font: 8px 'sans-serif'; text-anchor: middle" x="14.23375" y="41.3" transform="rotate(-90, 14.23375, 41.3)">Frequency [Hz]</text>
    </g>
   </g>
   <g id="LineCollection_1">
    <path clip-path="url(#pb7424c6c93)" style="fill: none; stroke: #1f77b4; stroke-width: 1.5"/>
    <path d="M 45.798333 57.241303 
L 45.798333 47.676982 
" clip-path="url(#pb7424c6c93)" style="fill: none; stroke: #1f77b4; stroke-width: 1.5"/>
    <path d="M 76.69 25.155307 
L 76.69 17.183977 
" clip-path="url(#pb7424c6c93)" style="fill: none; stroke: #1f77b4; stroke-width: 1.5"/>
    <path clip-path="url(#pb7424c6c93)" style="fill: none; stroke: #1f77b4; stroke-width: 1.5"/>
    <path d="M 67.4225 65.291028 
L 67.4225 59.809625 
" clip-path="url(#pb7424c6c93)" style="fill: none; stroke: #1f77b4; stroke-width: 1.5"/>
    <path d="M 96.460667 53.430126 
L 96.460667 46.628401 
" clip-path="url(#pb7424c6c93)" style="fill: none; stroke: #1f77b4; stroke-width: 1.5"/>
    <path clip-path="url(#pb7424c6c93)" style="fill: none; stroke: #1f77b4; stroke-width: 1.5"/>
    <path d="M 45.798333 56.490377 
L 45.798333 41.546052 
" clip-path="url(#pb7424c6c93)" style="fill: none; stroke: #1f77b4; stroke-width: 1.5"/>
    <path d="M 76.69 42.051133 
L 76.69 33.84188 
" clip-path="url(#pb7424c6c93)" style="fill: none; stroke: #1f77b4; stroke-width: 1.5"/>
    <path clip-path="url(#pb7424c6c93)" style="fill: none; stroke: #1f77b4; stroke-width: 1.5"/>
    <path d="M 51.976667 41.3647 
L 51.976667 31.90352 
" clip-path="url(#pb7424c6c93)" style="fill: none; stroke: #1f77b4; stroke-width: 1.5"/>
    <path clip-path="url(#pb7424c6c93)" style="fill: none; stroke: #1f77b4; stroke-width: 1.5"/>
    <path d="M 76.69 44.575068 
L 76.69 40.234824 
" clip-path="url(#pb7424c6c93)" style="fill: none; stroke: #1f77b4; stroke-width: 1.5"/>
   </g>
   <g id="LineCollection_2">
    <path clip-path="url(#pb7424c6c93)" style="fill: none; stroke: #d62728; stroke-width: 1.5"/>
    <path d="M 45.798333 68.077398 
L 45.798333 63.187522 
" clip-path="url(#pb7424c6c93)" style="fill: none; stroke: #d62728; stroke-width: 1.5"/>
    <path d="M 76.69 56.41932 
L 76.69 51.651157 
" clip-path="url(#pb7424c6c93)" style="fill: none; stroke: #d62728; stroke-width: 1.5"/>
    <path clip-path="url(#pb7424c6c93)" style="fill: none; stroke: #d62728; stroke-width: 1.5"/>
    <path d="M 45.798333 65.977018 
L 45.798333 62.374644 
" clip-path="url(#pb7424c6c93)" style="fill: none; stroke: #d62728; stroke-width: 1.5"/>
    <path d="M 85.9575 45.002381 
L 85.9575 41.405719 
" clip-path="url(#pb7424c6c93)" style="fill: none; stroke: #d62728; stroke-width: 1.5"/>
    <path clip-path="url(#pb7424c6c93)" style="fill: none; stroke: #d62728; stroke-width: 1.5"/>
    <path d="M 58.155 64.933928 
L 58.155 61.37629 
" clip-path="url(#pb7424c6c93)" style="fill: none; stroke: #d62728; stroke-width: 1.5"/>
    <path d="M 89.046667 63.108409 
L 89.046667 60.862919 
" clip-path="url(#pb7424c6c93)" style="fill: none; stroke: #d62728; stroke-width: 1.5"/>
    <path clip-path="url(#pb7424c6c93)" style="fill: none; stroke: #d62728; stroke-width: 1.5"/>
    <path clip-path="url(#pb7424c6c93)" style="fill: none; stroke: #d62728; stroke-width: 1.5"/>
    <path d="M 76.69 67.127905 
L 76.69 64.424738 
" clip-path="url(#pb7424c6c93)" style="fill: none; stroke: #d62728; stroke-width: 1.5"/>
    <path d="M 107.581667 59.131133 
L 107.581667 56.443825 
" clip-path="url(#pb7424c6c93)" style="fill: none; stroke: #d62728; stroke-width: 1.5"/>
   </g>
   <g id="patch_3">
    <path d="M 39.62 71.08 
L 39.62 11.52 
" style="fill: none; stroke: #000000; stroke-width: 0.8; stroke-linejoin: miter; stroke-linecap: square"/>
   </g>
   <g id="patch_4">
    <path d="M 39.62 71.08 
L 113.76 71.08 
" style="fill: none; stroke: #000000; stroke-width: 0.8; stroke-linejoin: miter; stroke-linecap: square"/>
   </g>
  </g>
 </g>
 <defs>
  <clipPath id="pb7424c6c93">
   <rect x="39.62" y="11.52" width="74.14" height="59.56"/>
  </clipPath>
 </defs>
</svg>
