<?xml version="1.0" encoding="utf-8" standalone="no"?>
<!DOCTYPE svg PUBLIC "-//W3C//DTD SVG 1.1//EN"
  "http://www.w3.org/Graphics/SVG/1.1/DTD/svg11.dtd">
<svg xmlns:xlink="http://www.w3.org/1999/xlink" width="122.4pt" height="108pt" viewBox="0 0 122.4 108" xmlns="http://www.w3.org/2000/svg" version="1.1">
 <metadata>
  <rdf:RDF xmlns:dc="http://purl.org/dc/elements/1.1/" xmlns:cc="http://creativecommons.org/ns#" xmlns:rdf="http://www.w3.org/1999/02/22-rdf-syntax-ns#">
   <cc:Work>
    <dc:type rdf:resource="http://purl.org/dc/dcmitype/StillImage"/>
    <dc:date>2023-11-25T20:27:02.811620</dc:date>
    <dc:format>image/svg+xml</dc:format>
    <dc:creator>
     <cc:Agent>
      <dc:title>Matplotlib v3.5.2, https://matplotlib.org/</dc:title>
     </cc:Agent>
    </dc:creator>
   </cc:Work>
  </rdf:RDF>
 </metadata>
 <defs>
  <style type="text/css">*{stroke-linejoin: round; stroke-linecap: butt}</style>
 </defs>
 <g id="figure_1">
  <g id="patch_1">
   <path d="M 0 108 
L 122.4 108 
L 122.4 0 
L 0 0 
z
" style="fill: #ffffff"/>
  </g>
  <g id="axes_1">
   <g id="patch_2">
    <path d="M 44.89 66.86 
L 110.898333 66.86 
L 110.898333 12.14 
L 44.89 12.14 
z
" style="fill: #ffffff"/>
   </g>
   <g id="matplotlib.axis_1">
    <g id="xtick_1">
     <g id="line2d_1">
      <defs>
       <path id="md373385e57" d="M 0 0 
L 0 3.5 
" style="stroke: #000000; stroke-width: 0.8"/>
      </defs>
      <g>
       <use xlink:href="#md373385e57" x="47.334753" y="66.86" style="stroke: #000000; stroke-width: 0.8"/>
      </g>
     </g>
     <g id="text_1">
      <text style="font: 8px 'sans-serif'; text-anchor: middle" x="47.334753" y="79.93875" transform="rotate(-0, 47.334753, 79.93875)">0.0</text>
     </g>
    </g>
    <g id="xtick_2">
     <g id="line2d_2">
      <g>
       <use xlink:href="#md373385e57" x="77.894167" y="66.86" style="stroke: #000000; stroke-width: 0.8"/>
      </g>
     </g>
     <g id="text_2">
      <text style="font: 8px 'sans-serif'; text-anchor: middle" x="77.894167" y="79.93875" transform="rotate(-0, 77.894167, 79.93875)">2.5</text>
     </g>
    </g>
    <g id="xtick_3">
     <g id="line2d_3">
      <g>
       <use xlink:href="#md373385e57" x="108.45358" y="66.86" style="stroke: #000000; stroke-width: 0.8"/>
      </g>
     </g>
     <g id="text_3">
      <text style="font: 8px 'sans-serif'; text-anchor: middle" x="108.45358" y="79.93875" transform="rotate(-0, 108.45358, 79.93875)">5.0</text>
     </g>
    </g>
    <g id="text_4">
     <!-- $I_{s}$ -->
     <g transform="translate(75.134167 91.68125)">
      <text>
       <tspan style="font: oblique 8px 'DejaVu Sans'" x="0" y="-0.171875">I</tspan>
       <tspan style="font: oblique 5.6px 'DejaVu Sans'" x="2.359375" y="1.140625">s</tspan>
      </text>
     </g>
    </g>
   </g>
   <g id="matplotlib.axis_2">
    <g id="ytick_1">
     <g id="line2d_4">
      <defs>
       <path id="m7df4924bad" d="M 0 0 
L -3.5 0 
" style="stroke: #000000; stroke-width: 0.8"/>
      </defs>
      <g>
       <use xlink:href="#m7df4924bad" x="44.89" y="66.86" style="stroke: #000000; stroke-width: 0.8"/>
      </g>
     </g>
     <g id="text_5">
      <text style="font: 8px 'sans-serif'; text-anchor: end" x="37.89" y="69.899375" transform="rotate(-0, 37.89, 69.899375)">0.5</text>
     </g>
    </g>
    <g id="ytick_2">
     <g id="line2d_5">
      <g>
       <use xlink:href="#m7df4924bad" x="44.89" y="39.5" style="stroke: #000000; stroke-width: 0.8"/>
      </g>
     </g>
     <g id="text_6">
      <text style="font: 8px 'sans-serif'; text-anchor: end" x="37.89" y="42.539375" transform="rotate(-0, 37.89, 42.539375)">1.0</text>
     </g>
    </g>
    <g id="ytick_3">
     <g id="line2d_6">
      <g>
       <use xlink:href="#m7df4924bad" x="44.89" y="12.14" style="stroke: #000000; stroke-width: 0.8"/>
      </g>
     </g>
     <g id="text_7">
      <text style="font: 8px 'sans-serif'; text-anchor: end" x="37.89" y="15.179375" transform="rotate(-0, 37.89, 15.179375)">1.5</text>
     </g>
    </g>
    <g id="text_8">
     <!-- $C_{v}$ -->
     <g transform="translate(19.50375 44.06)rotate(-90)">
      <text>
       <tspan style="font: oblique 8px 'DejaVu Sans'" x="0" y="-0.0625">C</tspan>
       <tspan style="font: oblique 5.6px 'DejaVu Sans'" x="5.585938" y="1.25">v</tspan>
      </text>
     </g>
    </g>
   </g>
   <g id="line2d_7">
    <path d="M 47.334753 41.580432 
L 49.372047 41.41287 
L 51.409342 40.952634 
L 53.446636 40.86497 
L 55.48393 40.889028 
L 57.521224 40.96441 
L 59.558519 41.06836 
L 61.595813 41.212454 
L 63.633107 41.380348 
L 65.670401 41.591104 
L 67.707695 41.840971 
L 69.74499 42.138416 
L 71.782284 42.474316 
L 73.819578 42.865431 
L 75.856872 43.300894 
L 77.894167 43.818688 
L 79.931461 44.38922 
L 81.968755 45.055433 
L 84.006049 45.803556 
L 86.043344 46.609191 
L 88.080638 47.520164 
L 90.117932 48.505985 
L 92.155226 49.527755 
L 94.192521 50.625073 
L 96.229815 51.71636 
L 98.267109 52.826115 
L 100.304403 53.886412 
L 102.341698 54.824267 
L 104.378992 55.637281 
L 106.416286 56.234313 
L 108.45358 56.595327 
" clip-path="url(#p1879f431ca)" style="fill: none; stroke: #1f77b4; stroke-width: 1.5; stroke-linecap: square"/>
   </g>
   <g id="line2d_8">
    <path d="M 47.334753 41.862958 
L 49.372047 42.934629 
L 51.409342 41.734371 
L 53.446636 41.381302 
L 55.48393 41.277211 
L 57.521224 41.275678 
L 59.558519 41.321032 
L 61.595813 41.429249 
L 63.633107 41.563274 
L 65.670401 41.754391 
L 67.707695 41.988501 
L 69.74499 42.25429 
L 71.782284 42.583273 
L 73.819578 42.969287 
L 75.856872 43.391511 
L 77.894167 43.905842 
L 79.931461 44.46361 
L 81.968755 45.127361 
L 84.006049 45.873579 
L 86.043344 46.666636 
L 88.080638 47.57535 
L 90.117932 48.560633 
L 92.155226 49.570128 
L 94.192521 50.66653 
L 96.229815 51.745114 
L 98.267109 52.855521 
L 100.304403 53.914625 
L 102.341698 54.843617 
L 104.378992 55.655103 
L 106.416286 56.246027 
L 108.45358 56.602843 
" clip-path="url(#p1879f431ca)" style="fill: none; stroke: #1f77b4; stroke-opacity: 0.75; stroke-width: 1.5; stroke-linecap: square"/>
   </g>
   <g id="line2d_9">
    <path d="M 47.334753 42.189289 
L 49.372047 44.716557 
L 51.409342 42.64224 
L 53.446636 41.984483 
L 55.48393 41.731647 
L 57.521224 41.640061 
L 59.558519 41.619338 
L 61.595813 41.684935 
L 63.633107 41.781512 
L 65.670401 41.948074 
L 67.707695 42.162977 
L 69.74499 42.403816 
L 71.782284 42.721322 
L 73.819578 43.098098 
L 75.856872 43.505698 
L 77.894167 44.013739 
L 79.931461 44.55795 
L 81.968755 45.217886 
L 84.006049 45.960442 
L 86.043344 46.740959 
L 88.080638 47.6477 
L 90.117932 48.629636 
L 92.155226 49.627908 
L 94.192521 50.721925 
L 96.229815 51.789918 
L 98.267109 52.898028 
L 100.304403 53.952812 
L 102.341698 54.872888 
L 104.378992 55.681168 
L 106.416286 56.26533 
L 108.45358 56.620364 
" clip-path="url(#p1879f431ca)" style="fill: none; stroke: #1f77b4; stroke-opacity: 0.5; stroke-width: 1.5; stroke-linecap: square"/>
   </g>
   <g id="line2d_10">
    <defs>
     <path id="m9f60539c58" d="M 0 1.5 
C 0.397805 1.5 0.77937 1.341951 1.06066 1.06066 
C 1.341951 0.77937 1.5 0.397805 1.5 0 
C 1.5 -0.397805 1.341951 -0.77937 1.06066 -1.06066 
C 0.77937 -1.341951 0.397805 -1.5 0 -1.5 
C -0.397805 -1.5 -0.77937 -1.341951 -1.06066 -1.06066 
C -1.341951 -0.77937 -1.5 -0.397805 -1.5 0 
C -1.5 0.397805 -1.341951 0.77937 -1.06066 1.06066 
C -0.77937 1.341951 -0.397805 1.5 0 1.5 
z
" style="stroke: #000000"/>
    </defs>
    <g clip-path="url(#p1879f431ca)">
     <use xlink:href="#m9f60539c58" x="47.334753" y="39.974017" style="stroke: #000000"/>
     <use xlink:href="#m9f60539c58" x="62.61446" y="43.08531" style="stroke: #000000"/>
     <use xlink:href="#m9f60539c58" x="77.894167" y="44.374179" style="stroke: #000000"/>
     <use xlink:href="#m9f60539c58" x="93.173873" y="49.967" style="stroke: #000000"/>
     <use xlink:href="#m9f60539c58" x="108.45358" y="56.942114" style="stroke: #000000"/>
    </g>
   </g>
   <g id="line2d_11">
    <g clip-path="url(#p1879f431ca)">
     <use xlink:href="#m9f60539c58" x="47.334753" y="39.438704" style="stroke: #000000"/>
     <use xlink:href="#m9f60539c58" x="62.61446" y="42.274018" style="stroke: #000000"/>
     <use xlink:href="#m9f60539c58" x="77.894167" y="43.977682" style="stroke: #000000"/>
     <use xlink:href="#m9f60539c58" x="93.173873" y="48.456354" style="stroke: #000000"/>
     <use xlink:href="#m9f60539c58" x="108.45358" y="55.837031" style="stroke: #000000"/>
    </g>
   </g>
   <g id="line2d_12">
    <g clip-path="url(#p1879f431ca)">
     <use xlink:href="#m9f60539c58" x="47.334753" y="39.224994" style="stroke: #000000"/>
     <use xlink:href="#m9f60539c58" x="62.61446" y="43.117886" style="stroke: #000000"/>
     <use xlink:href="#m9f60539c58" x="77.894167" y="44.437154" style="stroke: #000000"/>
     <use xlink:href="#m9f60539c58" x="93.173873" y="49.068638" style="stroke: #000000"/>
     <use xlink:href="#m9f60539c58" x="108.45358" y="55.842806" style="stroke: #000000"/>
    </g>
   </g>
   <g id="patch_3">
    <path d="M 44.89 66.86 
L 44.89 12.14 
" style="fill: none; stroke: #000000; stroke-width: 0.8; stroke-linejoin: miter; stroke-linecap: square"/>
   </g>
   <g id="patch_4">
    <path d="M 44.89 66.86 
L 110.898333 66.86 
" style="fill: none; stroke: #000000; stroke-width: 0.8; stroke-linejoin: miter; stroke-linecap: square"/>
   </g>
   <g id="legend_1">
    <g id="line2d_13">
     <path d="M 55.698333 22.61875 
L 63.698333 22.61875 
L 71.698333 22.61875 
" style="fill: none; stroke: #1f77b4; stroke-width: 1.5; stroke-linecap: square"/>
    </g>
    <g id="text_9">
     <!-- $I_{d}$=0.0 -->
     <g transform="translate(78.098333 25.41875)">
      <text>
       <tspan style="font: oblique 8px 'DejaVu Sans'" x="0" y="-0.0625">I</tspan>
       <tspan style="font: oblique 5.6px 'DejaVu Sans'" x="2.359375" y="1.25">d</tspan>
       <tspan style="font: 8px 'DejaVu Sans'" x="6.132812 12.835938 17.925781 20.46875" y="-0.0625">=0.0</tspan>
      </text>
     </g>
    </g>
    <g id="line2d_14">
     <path d="M 55.698333 34.36125 
L 63.698333 34.36125 
L 71.698333 34.36125 
" style="fill: none; stroke: #1f77b4; stroke-opacity: 0.75; stroke-width: 1.5; stroke-linecap: square"/>
    </g>
    <g id="text_10">
     <!-- $I_{d}$=2.5 -->
     <g transform="translate(78.098333 37.16125)">
      <text>
       <tspan style="font: oblique 8px 'DejaVu Sans'" x="0" y="-0.0625">I</tspan>
       <tspan style="font: oblique 5.6px 'DejaVu Sans'" x="2.359375" y="1.25">d</tspan>
       <tspan style="font: 8px 'DejaVu Sans'" x="6.132812 12.835938 17.925781 20.46875" y="-0.0625">=2.5</tspan>
      </text>
     </g>
    </g>
    <g id="line2d_15">
     <path d="M 55.698333 46.10375 
L 63.698333 46.10375 
L 71.698333 46.10375 
" style="fill: none; stroke: #1f77b4; stroke-opacity: 0.5; stroke-width: 1.5; stroke-linecap: square"/>
    </g>
    <g id="text_11">
     <!-- $I_{d}$=5.0 -->
     <g transform="translate(78.098333 48.90375)">
      <text>
       <tspan style="font: oblique 8px 'DejaVu Sans'" x="0" y="-0.0625">I</tspan>
       <tspan style="font: oblique 5.6px 'DejaVu Sans'" x="2.359375" y="1.25">d</tspan>
       <tspan style="font: 8px 'DejaVu Sans'" x="6.132812 12.835938 17.925781 20.46875" y="-0.0625">=5.0</tspan>
      </text>
     </g>
    </g>
   </g>
  </g>
 </g>
 <defs>
  <clipPath id="p1879f431ca">
   <rect x="44.89" y="12.14" width="66.008333" height="54.72"/>
  </clipPath>
 </defs>
</svg>
