<?xml version="1.0" encoding="utf-8" standalone="no"?>
<!DOCTYPE svg PUBLIC "-//W3C//DTD SVG 1.1//EN"
  "http://www.w3.org/Graphics/SVG/1.1/DTD/svg11.dtd">
<svg xmlns:xlink="http://www.w3.org/1999/xlink" width="122.4pt" height="108pt" viewBox="0 0 122.4 108" xmlns="http://www.w3.org/2000/svg" version="1.1">
 <metadata>
  <rdf:RDF xmlns:dc="http://purl.org/dc/elements/1.1/" xmlns:cc="http://creativecommons.org/ns#" xmlns:rdf="http://www.w3.org/1999/02/22-rdf-syntax-ns#">
   <cc:Work>
    <dc:type rdf:resource="http://purl.org/dc/dcmitype/StillImage"/>
    <dc:date>2023-11-27T20:19:26.762673</dc:date>
    <dc:format>image/svg+xml</dc:format>
    <dc:creator>
     <cc:Agent>
      <dc:title>Matplotlib v3.5.2, https://matplotlib.org/</dc:title>
     </cc:Agent>
    </dc:creator>
   </cc:Work>
  </rdf:RDF>
 </metadata>
 <defs>
  <style type="text/css">*{stroke-linejoin: round; stroke-linecap: butt}</style>
 </defs>
 <g id="figure_1">
  <g id="patch_1">
   <path d="M 0 108 
L 122.4 108 
L 122.4 0 
L 0 0 
z
" style="fill: #ffffff"/>
  </g>
  <g id="axes_1">
   <g id="patch_2">
    <path d="M 34.706 71.08 
L 113.76 71.08 
L 113.76 11.52 
L 34.706 11.52 
z
" style="fill: #ffffff"/>
   </g>
   <g id="PathCollection_1">
    <defs>
     <path id="m68f29cc52f" d="M 0 1.936492 
C 0.513564 1.936492 1.006162 1.732451 1.369306 1.369306 
C 1.732451 1.006162 1.936492 0.513564 1.936492 0 
C 1.936492 -0.513564 1.732451 -1.006162 1.369306 -1.369306 
C 1.006162 -1.732451 0.513564 -1.936492 0 -1.936492 
C -0.513564 -1.936492 -1.006162 -1.732451 -1.369306 -1.369306 
C -1.732451 -1.006162 -1.936492 -0.513564 -1.936492 0 
C -1.936492 0.513564 -1.732451 1.006162 -1.369306 1.369306 
C -1.006162 1.732451 -0.513564 1.936492 0 1.936492 
z
" style="stroke: #1f77b4"/>
    </defs>
    <g clip-path="url(#p0882edaa47)">
     <use xlink:href="#m68f29cc52f" x="41.293833" y="30.792571" style="fill: #1f77b4; stroke: #1f77b4"/>
     <use xlink:href="#m68f29cc52f" x="74.233" y="45.072927" style="fill: #1f77b4; stroke: #1f77b4"/>
     <use xlink:href="#m68f29cc52f" x="64.35125" y="39.624584" style="fill: #1f77b4; stroke: #1f77b4"/>
     <use xlink:href="#m68f29cc52f" x="95.314067" y="38.479646" style="fill: #1f77b4; stroke: #1f77b4"/>
     <use xlink:href="#m68f29cc52f" x="41.293833" y="24.843872" style="fill: #1f77b4; stroke: #1f77b4"/>
     <use xlink:href="#m68f29cc52f" x="74.233" y="39.31278" style="fill: #1f77b4; stroke: #1f77b4"/>
     <use xlink:href="#m68f29cc52f" x="47.881667" y="33.994081" style="fill: #1f77b4; stroke: #1f77b4"/>
     <use xlink:href="#m68f29cc52f" x="74.233" y="52.539626" style="fill: #1f77b4; stroke: #1f77b4"/>
    </g>
   </g>
   <g id="PathCollection_2">
    <defs>
     <path id="m5b69ef4a6e" d="M 0 1.936492 
C 0.513564 1.936492 1.006162 1.732451 1.369306 1.369306 
C 1.732451 1.006162 1.936492 0.513564 1.936492 0 
C 1.936492 -0.513564 1.732451 -1.006162 1.369306 -1.369306 
C 1.006162 -1.732451 0.513564 -1.936492 0 -1.936492 
C -0.513564 -1.936492 -1.006162 -1.732451 -1.369306 -1.369306 
C -1.732451 -1.006162 -1.936492 -0.513564 -1.936492 0 
C -1.936492 0.513564 -1.732451 1.006162 -1.369306 1.369306 
C -1.006162 1.732451 -0.513564 1.936492 0 1.936492 
z
" style="stroke: #d62728"/>
    </defs>
    <g clip-path="url(#p0882edaa47)">
     <use xlink:href="#m5b69ef4a6e" x="41.293833" y="38.661977" style="fill: #d62728; stroke: #d62728"/>
     <use xlink:href="#m5b69ef4a6e" x="74.233" y="46.283646" style="fill: #d62728; stroke: #d62728"/>
     <use xlink:href="#m5b69ef4a6e" x="41.293833" y="44.430128" style="fill: #d62728; stroke: #d62728"/>
     <use xlink:href="#m5b69ef4a6e" x="84.11475" y="55.196658" style="fill: #d62728; stroke: #d62728"/>
     <use xlink:href="#m5b69ef4a6e" x="54.4695" y="47.135942" style="fill: #d62728; stroke: #d62728"/>
     <use xlink:href="#m5b69ef4a6e" x="87.408667" y="55.019264" style="fill: #d62728; stroke: #d62728"/>
     <use xlink:href="#m5b69ef4a6e" x="74.233" y="52.867768" style="fill: #d62728; stroke: #d62728"/>
     <use xlink:href="#m5b69ef4a6e" x="107.172167" y="54.850125" style="fill: #d62728; stroke: #d62728"/>
    </g>
   </g>
   <g id="matplotlib.axis_1">
    <g id="xtick_1">
     <g id="line2d_1">
      <defs>
       <path id="m70df6d8ad7" d="M 0 0 
L 0 3.5 
" style="stroke: #000000; stroke-width: 0.8"/>
      </defs>
      <g>
       <use xlink:href="#m70df6d8ad7" x="41.293833" y="71.08" style="stroke: #000000; stroke-width: 0.8"/>
      </g>
     </g>
     <g id="text_1">
      <text style="font: 8px 'sans-serif'; text-anchor: middle" x="41.293833" y="84.15875" transform="rotate(-0, 41.293833, 84.15875)">50</text>
     </g>
    </g>
    <g id="xtick_2">
     <g id="line2d_2">
      <g>
       <use xlink:href="#m70df6d8ad7" x="74.233" y="71.08" style="stroke: #000000; stroke-width: 0.8"/>
      </g>
     </g>
     <g id="text_2">
      <text style="font: 8px 'sans-serif'; text-anchor: middle" x="74.233" y="84.15875" transform="rotate(-0, 74.233, 84.15875)">100</text>
     </g>
    </g>
    <g id="xtick_3">
     <g id="line2d_3">
      <g>
       <use xlink:href="#m70df6d8ad7" x="107.172167" y="71.08" style="stroke: #000000; stroke-width: 0.8"/>
      </g>
     </g>
     <g id="text_3">
      <text style="font: 8px 'sans-serif'; text-anchor: middle" x="107.172167" y="84.15875" transform="rotate(-0, 107.172167, 84.15875)">150</text>
     </g>
    </g>
    <g id="text_4">
     <!-- $I_{s}$ [pA] -->
     <g transform="translate(61.793 95.9025)">
      <text>
       <tspan style="font: oblique 8px 'DejaVu Sans'" x="0" y="-0.921875">I</tspan>
       <tspan style="font: oblique 5.6px 'DejaVu Sans'" x="2.359375" y="0.390625">s</tspan>
       <tspan style="font: 8px 'DejaVu Sans'" x="5.495703 8.038672 11.159766 16.237891 21.710547" y="-0.921875"> [pA]</tspan>
      </text>
     </g>
    </g>
   </g>
   <g id="matplotlib.axis_2">
    <g id="ytick_1">
     <g id="line2d_4">
      <defs>
       <path id="m0fcd0c35e1" d="M 0 0 
L -3.5 0 
" style="stroke: #000000; stroke-width: 0.8"/>
      </defs>
      <g>
       <use xlink:href="#m0fcd0c35e1" x="34.706" y="71.08" style="stroke: #000000; stroke-width: 0.8"/>
      </g>
     </g>
     <g id="text_5">
      <text style="font: 8px 'sans-serif'; text-anchor: end" x="27.706" y="74.119375" transform="rotate(-0, 27.706, 74.119375)">0</text>
     </g>
    </g>
    <g id="ytick_2">
     <g id="line2d_5">
      <g>
       <use xlink:href="#m0fcd0c35e1" x="34.706" y="41.3" style="stroke: #000000; stroke-width: 0.8"/>
      </g>
     </g>
     <g id="text_6">
      <text style="font: 8px 'sans-serif'; text-anchor: end" x="27.706" y="44.339375" transform="rotate(-0, 27.706, 44.339375)">2</text>
     </g>
    </g>
    <g id="ytick_3">
     <g id="line2d_6">
      <g>
       <use xlink:href="#m0fcd0c35e1" x="34.706" y="11.52" style="stroke: #000000; stroke-width: 0.8"/>
      </g>
     </g>
     <g id="text_7">
      <text style="font: 8px 'sans-serif'; text-anchor: end" x="27.706" y="14.559375" transform="rotate(-0, 27.706, 14.559375)">4</text>
     </g>
    </g>
    <g id="text_8">
     <!-- $C_{v}$ -->
     <g transform="translate(16.95225 45.86)rotate(-90)">
      <text>
       <tspan style="font: oblique 8px 'DejaVu Sans'" x="0" y="-0.0625">C</tspan>
       <tspan style="font: oblique 5.6px 'DejaVu Sans'" x="5.585938" y="1.25">v</tspan>
      </text>
     </g>
    </g>
   </g>
   <g id="LineCollection_1">
    <path clip-path="url(#p0882edaa47)" style="fill: none; stroke: #1f77b4; stroke-width: 1.5"/>
    <path d="M 41.293833 34.725489 
L 41.293833 26.859653 
" clip-path="url(#p0882edaa47)" style="fill: none; stroke: #1f77b4; stroke-width: 1.5"/>
    <path d="M 74.233 46.315185 
L 74.233 43.830668 
" clip-path="url(#p0882edaa47)" style="fill: none; stroke: #1f77b4; stroke-width: 1.5"/>
    <path clip-path="url(#p0882edaa47)" style="fill: none; stroke: #1f77b4; stroke-width: 1.5"/>
    <path d="M 64.35125 43.919737 
L 64.35125 35.329431 
" clip-path="url(#p0882edaa47)" style="fill: none; stroke: #1f77b4; stroke-width: 1.5"/>
    <path d="M 95.314067 40.851409 
L 95.314067 36.107883 
" clip-path="url(#p0882edaa47)" style="fill: none; stroke: #1f77b4; stroke-width: 1.5"/>
    <path clip-path="url(#p0882edaa47)" style="fill: none; stroke: #1f77b4; stroke-width: 1.5"/>
    <path d="M 41.293833 30.010265 
L 41.293833 19.677479 
" clip-path="url(#p0882edaa47)" style="fill: none; stroke: #1f77b4; stroke-width: 1.5"/>
    <path d="M 74.233 41.423831 
L 74.233 37.201729 
" clip-path="url(#p0882edaa47)" style="fill: none; stroke: #1f77b4; stroke-width: 1.5"/>
    <path clip-path="url(#p0882edaa47)" style="fill: none; stroke: #1f77b4; stroke-width: 1.5"/>
    <path d="M 47.881667 36.214757 
L 47.881667 31.773406 
" clip-path="url(#p0882edaa47)" style="fill: none; stroke: #1f77b4; stroke-width: 1.5"/>
    <path clip-path="url(#p0882edaa47)" style="fill: none; stroke: #1f77b4; stroke-width: 1.5"/>
    <path d="M 74.233 53.49197 
L 74.233 51.587282 
" clip-path="url(#p0882edaa47)" style="fill: none; stroke: #1f77b4; stroke-width: 1.5"/>
   </g>
   <g id="LineCollection_2">
    <path clip-path="url(#p0882edaa47)" style="fill: none; stroke: #d62728; stroke-width: 1.5"/>
    <path d="M 41.293833 45.002439 
L 41.293833 32.321515 
" clip-path="url(#p0882edaa47)" style="fill: none; stroke: #d62728; stroke-width: 1.5"/>
    <path d="M 74.233 49.530807 
L 74.233 43.036485 
" clip-path="url(#p0882edaa47)" style="fill: none; stroke: #d62728; stroke-width: 1.5"/>
    <path clip-path="url(#p0882edaa47)" style="fill: none; stroke: #d62728; stroke-width: 1.5"/>
    <path d="M 41.293833 47.504087 
L 41.293833 41.356169 
" clip-path="url(#p0882edaa47)" style="fill: none; stroke: #d62728; stroke-width: 1.5"/>
    <path d="M 84.11475 56.038245 
L 84.11475 54.35507 
" clip-path="url(#p0882edaa47)" style="fill: none; stroke: #d62728; stroke-width: 1.5"/>
    <path clip-path="url(#p0882edaa47)" style="fill: none; stroke: #d62728; stroke-width: 1.5"/>
    <path d="M 54.4695 49.54732 
L 54.4695 44.724565 
" clip-path="url(#p0882edaa47)" style="fill: none; stroke: #d62728; stroke-width: 1.5"/>
    <path d="M 87.408667 57.19496 
L 87.408667 52.843567 
" clip-path="url(#p0882edaa47)" style="fill: none; stroke: #d62728; stroke-width: 1.5"/>
    <path clip-path="url(#p0882edaa47)" style="fill: none; stroke: #d62728; stroke-width: 1.5"/>
    <path clip-path="url(#p0882edaa47)" style="fill: none; stroke: #d62728; stroke-width: 1.5"/>
    <path d="M 74.233 55.375681 
L 74.233 50.359855 
" clip-path="url(#p0882edaa47)" style="fill: none; stroke: #d62728; stroke-width: 1.5"/>
    <path d="M 107.172167 56.230023 
L 107.172167 53.470226 
" clip-path="url(#p0882edaa47)" style="fill: none; stroke: #d62728; stroke-width: 1.5"/>
   </g>
   <g id="patch_3">
    <path d="M 34.706 71.08 
L 34.706 11.52 
" style="fill: none; stroke: #000000; stroke-width: 0.8; stroke-linejoin: miter; stroke-linecap: square"/>
   </g>
   <g id="patch_4">
    <path d="M 34.706 71.08 
L 113.76 71.08 
" style="fill: none; stroke: #000000; stroke-width: 0.8; stroke-linejoin: miter; stroke-linecap: square"/>
   </g>
  </g>
 </g>
 <defs>
  <clipPath id="p0882edaa47">
   <rect x="34.706" y="11.52" width="79.054" height="59.56"/>
  </clipPath>
 </defs>
</svg>
