<?xml version="1.0" encoding="utf-8" standalone="no"?>
<!DOCTYPE svg PUBLIC "-//W3C//DTD SVG 1.1//EN"
  "http://www.w3.org/Graphics/SVG/1.1/DTD/svg11.dtd">
<svg xmlns:xlink="http://www.w3.org/1999/xlink" width="72pt" height="36pt" viewBox="0 0 72 36" xmlns="http://www.w3.org/2000/svg" version="1.1">
 <metadata>
  <rdf:RDF xmlns:dc="http://purl.org/dc/elements/1.1/" xmlns:cc="http://creativecommons.org/ns#" xmlns:rdf="http://www.w3.org/1999/02/22-rdf-syntax-ns#">
   <cc:Work>
    <dc:type rdf:resource="http://purl.org/dc/dcmitype/StillImage"/>
    <dc:date>2023-11-26T10:06:30.536146</dc:date>
    <dc:format>image/svg+xml</dc:format>
    <dc:creator>
     <cc:Agent>
      <dc:title>Matplotlib v3.5.2, https://matplotlib.org/</dc:title>
     </cc:Agent>
    </dc:creator>
   </cc:Work>
  </rdf:RDF>
 </metadata>
 <defs>
  <style type="text/css">*{stroke-linejoin: round; stroke-linecap: butt}</style>
 </defs>
 <g id="figure_1">
  <g id="patch_1">
   <path d="M 0 36 
L 72 36 
L 72 0 
L 0 0 
z
" style="fill: #ffffff"/>
  </g>
  <g id="axes_1">
   <g id="patch_2">
    <path d="M 9 32.04 
L 64.8 32.04 
L 64.8 4.32 
L 9 4.32 
z
" style="fill: #ffffff"/>
   </g>
   <g id="matplotlib.axis_1">
    <g id="xtick_1">
     <g id="line2d_1">
      <defs>
       <path id="m5e16fb24ec" d="M 0 0 
L 0 3.5 
" style="stroke: #000000; stroke-width: 0.8"/>
      </defs>
      <g>
       <use xlink:href="#m5e16fb24ec" x="28.451093" y="32.04" style="stroke: #000000; stroke-width: 0.8"/>
      </g>
     </g>
     <g id="text_1">
      <text style="font: 8px 'sans-serif'; text-anchor: middle" x="28.451093" y="45.11875" transform="rotate(-0, 28.451093, 45.11875)">9.3</text>
     </g>
    </g>
    <g id="xtick_2">
     <g id="line2d_2">
      <g>
       <use xlink:href="#m5e16fb24ec" x="62.280551" y="32.04" style="stroke: #000000; stroke-width: 0.8"/>
      </g>
     </g>
     <g id="text_2">
      <text style="font: 8px 'sans-serif'; text-anchor: middle" x="62.280551" y="45.11875" transform="rotate(-0, 62.280551, 45.11875)">9.4</text>
     </g>
    </g>
   </g>
   <g id="matplotlib.axis_2">
    <g id="ytick_1">
     <g id="line2d_3">
      <defs>
       <path id="mc8ad36d0ed" d="M 0 0 
L -3.5 0 
" style="stroke: #000000; stroke-width: 0.8"/>
      </defs>
      <g>
       <use xlink:href="#mc8ad36d0ed" x="9" y="29.80251" style="stroke: #000000; stroke-width: 0.8"/>
      </g>
     </g>
     <g id="text_3">
      <text style="font: 8px 'sans-serif'; text-anchor: end" x="2" y="32.841885" transform="rotate(-0, 2, 32.841885)">−50</text>
     </g>
    </g>
    <g id="ytick_2">
     <g id="line2d_4">
      <g>
       <use xlink:href="#mc8ad36d0ed" x="9" y="17.95414" style="stroke: #000000; stroke-width: 0.8"/>
      </g>
     </g>
     <g id="text_4">
      <text style="font: 8px 'sans-serif'; text-anchor: end" x="2" y="20.993515" transform="rotate(-0, 2, 20.993515)">0</text>
     </g>
    </g>
    <g id="ytick_3">
     <g id="line2d_5">
      <g>
       <use xlink:href="#mc8ad36d0ed" x="9" y="6.105771" style="stroke: #000000; stroke-width: 0.8"/>
      </g>
     </g>
     <g id="text_5">
      <text style="font: 8px 'sans-serif'; text-anchor: end" x="2" y="9.145146" transform="rotate(-0, 2, 9.145146)">50</text>
     </g>
    </g>
   </g>
   <g id="line2d_6">
    <path d="M 11.536364 29.136039 
L 11.553278 29.113823 
L 11.570193 29.187875 
L 11.587108 29.261928 
L 11.620937 29.16566 
L 11.671681 29.187875 
L 11.688596 29.084202 
L 11.722426 29.247117 
L 11.77317 29.150849 
L 11.874658 29.247117 
L 11.823914 29.084202 
L 11.891573 29.18047 
L 11.976147 29.061986 
L 11.993061 29.202686 
L 12.009976 29.269333 
L 12.043806 29.076797 
L 12.077635 29.195281 
L 12.145294 29.232307 
L 12.196038 29.099013 
L 12.297526 29.210091 
L 12.314441 29.099013 
L 12.331356 29.047176 
L 12.365185 29.143444 
L 12.41593 29.128634 
L 12.517418 29.173065 
L 12.483588 29.02496 
L 12.534333 29.158254 
L 12.618906 29.032366 
L 12.635821 29.136039 
L 12.652736 29.202686 
L 12.686565 29.054581 
L 12.720395 29.121228 
L 12.788054 29.18047 
L 12.838798 29.017555 
L 12.940286 29.187875 
L 12.957201 29.106418 
L 12.974116 29.02496 
L 13.007945 29.128634 
L 13.058689 29.099013 
L 13.075604 29.150849 
L 13.126348 28.987934 
L 13.160178 29.106418 
L 13.261666 29.01015 
L 13.210922 29.128634 
L 13.278581 29.047176 
L 13.295495 29.128634 
L 13.380069 29.054581 
L 13.413899 28.950908 
L 13.447728 29.136039 
L 13.481557 29.01015 
L 13.583046 29.16566 
L 13.549216 28.943503 
L 13.599961 29.121228 
L 13.684534 28.987934 
L 13.701449 29.061986 
L 13.718364 29.150849 
L 13.769108 28.965718 
L 13.802937 29.02496 
L 14.005914 29.099013 
L 14.022829 29.054581 
L 14.056658 28.950908 
L 14.090488 29.076797 
L 14.124317 29.032366 
L 14.225806 29.091607 
L 14.191976 28.958313 
L 14.24272 29.054581 
L 14.327294 28.906477 
L 14.293464 29.091607 
L 14.344209 29.02496 
L 14.361123 29.121228 
L 14.411868 28.980529 
L 14.445697 28.995339 
L 14.479527 28.958313 
L 14.496441 29.047176 
L 14.513356 29.084202 
L 14.547185 28.921287 
L 14.581015 29.032366 
L 14.682503 28.936098 
L 14.648674 29.099013 
L 14.699418 28.965718 
L 14.800906 29.054581 
L 14.834736 28.950908 
L 14.902395 28.973124 
L 14.936224 29.061986 
L 14.970054 28.921287 
L 15.020798 29.039771 
L 15.122286 28.884261 
L 15.139201 29.02496 
L 15.156116 29.113823 
L 15.189945 28.906477 
L 15.223775 29.047176 
L 15.257604 28.891666 
L 15.291434 29.099013 
L 15.342178 28.950908 
L 15.426751 29.099013 
L 15.443666 29.076797 
L 15.477496 28.928692 
L 15.545154 28.987934 
L 15.578984 29.061986 
L 15.629728 28.943503 
L 15.646643 28.973124 
L 15.731216 29.02496 
L 15.748131 28.943503 
L 15.765046 28.884261 
L 15.798875 29.047176 
L 15.832705 28.958313 
L 15.900364 28.913882 
L 15.951108 29.084202 
L 16.035682 28.928692 
L 16.052596 28.958313 
L 16.069511 29.099013 
L 16.120255 28.936098 
L 16.154085 29.039771 
L 16.255573 28.943503 
L 16.221744 29.084202 
L 16.272488 28.973124 
L 16.357061 29.091607 
L 16.390891 28.987934 
L 16.407806 28.913882 
L 16.492379 29.039771 
L 16.678441 28.936098 
L 16.695356 28.921287 
L 16.712271 29.032366 
L 16.796844 29.039771 
L 16.763015 28.958313 
L 16.813759 28.980529 
L 16.830674 28.906477 
L 16.864503 29.076797 
L 16.915248 28.973124 
L 16.999821 29.061986 
L 16.965992 28.899071 
L 17.016736 29.032366 
L 17.050565 28.913882 
L 17.118224 28.943503 
L 17.152054 29.039771 
L 17.185883 28.899071 
L 17.236627 28.987934 
L 17.338116 28.906477 
L 17.270457 29.01015 
L 17.35503 28.950908 
L 17.371945 29.039771 
L 17.405775 28.906477 
L 17.456519 28.965718 
L 17.473434 28.876856 
L 17.507263 29.069392 
L 17.558007 28.965718 
L 18.420658 28.995339 
L 18.437573 29.084202 
L 18.471403 28.936098 
L 18.522147 28.995339 
L 18.572891 29.039771 
L 18.623635 28.891666 
L 18.708209 29.017555 
L 18.742038 28.965718 
L 18.758953 28.884261 
L 18.843527 28.973124 
L 18.860441 29.047176 
L 18.911186 28.876856 
L 18.945015 29.002745 
L 19.046503 28.862045 
L 19.063418 28.906477 
L 19.147992 29.02496 
L 19.164906 28.980529 
L 19.181821 28.86945 
L 19.215651 29.039771 
L 19.266395 28.958313 
L 19.367883 29.032366 
L 19.317139 28.876856 
L 19.384798 29.002745 
L 19.469372 28.86945 
L 19.435542 29.017555 
L 19.486286 28.965718 
L 19.503201 29.084202 
L 19.553945 28.906477 
L 19.587775 28.950908 
L 19.790751 29.076797 
L 19.807666 29.02496 
L 19.841496 28.913882 
L 19.909155 28.987934 
L 19.926069 29.017555 
L 19.959899 28.980529 
L 19.976813 28.86945 
L 20.010643 29.054581 
L 20.061387 29.002745 
L 20.145961 29.069392 
L 20.112131 28.906477 
L 20.162876 29.039771 
L 20.247449 28.950908 
L 20.264364 28.958313 
L 20.298193 29.113823 
L 20.365852 29.061986 
L 20.467341 28.965718 
L 20.433511 29.099013 
L 20.484255 28.987934 
L 20.568829 29.099013 
L 20.602658 29.002745 
L 20.619573 28.936098 
L 20.653403 29.054581 
L 20.687232 29.002745 
L 20.754891 28.965718 
L 20.805635 29.099013 
L 20.907124 28.950908 
L 21.008612 29.121228 
L 21.025527 29.017555 
L 21.042441 28.965718 
L 21.076271 29.113823 
L 21.127015 28.995339 
L 21.211589 29.113823 
L 21.177759 28.973124 
L 21.228503 29.091607 
L 21.262333 28.958313 
L 21.329992 29.032366 
L 21.363821 29.158254 
L 21.448395 29.121228 
L 21.549883 29.017555 
L 21.566798 29.113823 
L 21.651372 29.128634 
L 21.668286 29.054581 
L 21.685201 28.973124 
L 21.719031 29.16566 
L 21.769775 29.061986 
L 21.854348 29.202686 
L 21.820519 29.017555 
L 21.871263 29.150849 
L 21.972752 29.039771 
L 21.989666 29.106418 
L 22.006581 29.158254 
L 22.04041 29.01015 
L 22.07424 29.099013 
L 22.141899 29.150849 
L 22.192643 29.017555 
L 22.294131 29.128634 
L 22.311046 29.076797 
L 22.327961 28.973124 
L 22.36179 29.128634 
L 22.412534 29.106418 
L 22.514023 29.173065 
L 22.463279 29.017555 
L 22.530938 29.136039 
L 22.615511 28.987934 
L 22.581682 29.150849 
L 22.632426 29.143444 
L 22.649341 29.210091 
L 22.68317 29.076797 
L 22.717 29.16566 
L 22.784659 29.217496 
L 22.835403 29.039771 
L 22.936891 29.239712 
L 22.953806 29.150849 
L 22.970721 29.099013 
L 23.055294 29.173065 
L 23.258271 29.091607 
L 23.275186 29.187875 
L 23.32593 29.084202 
L 23.359759 29.217496 
L 23.393589 29.076797 
L 23.427418 29.247117 
L 23.478162 29.113823 
L 23.579651 29.247117 
L 23.596566 29.18047 
L 23.61348 29.121228 
L 23.698054 29.217496 
L 23.714969 29.298954 
L 23.765713 29.128634 
L 23.799542 29.202686 
L 23.901031 29.136039 
L 23.850286 29.276738 
L 23.917945 29.187875 
L 24.019434 29.224902 
L 24.053263 29.143444 
L 24.087093 29.284143 
L 24.120922 29.217496 
L 24.222411 29.298954 
L 24.188581 29.121228 
L 24.239325 29.276738 
L 24.323899 29.121228 
L 24.340814 29.210091 
L 24.357728 29.343385 
L 24.408473 29.143444 
L 24.442302 29.202686 
L 24.493046 29.276738 
L 24.54379 29.143444 
L 24.645279 29.291549 
L 24.662193 29.224902 
L 24.679108 29.121228 
L 24.763682 29.16566 
L 24.831341 29.106418 
L 24.882085 29.276738 
L 24.966659 29.106418 
L 24.983573 29.136039 
L 25.000488 29.284143 
L 25.085062 29.210091 
L 25.118891 29.113823 
L 25.152721 29.291549 
L 25.18655 29.150849 
L 25.288038 29.276738 
L 25.254209 29.121228 
L 25.304953 29.232307 
L 25.321868 29.136039 
L 25.406442 29.210091 
L 25.423356 29.298954 
L 25.4741 29.121228 
L 25.50793 29.224902 
L 25.609418 29.128634 
L 25.643248 29.195281 
L 25.710907 29.202686 
L 25.677077 29.16566 
L 25.727821 29.173065 
L 25.761651 29.047176 
L 25.79548 29.269333 
L 25.82931 29.136039 
L 25.930798 29.284143 
L 25.896969 29.091607 
L 25.947713 29.254522 
L 26.032287 29.121228 
L 26.049201 29.158254 
L 26.083031 29.276738 
L 26.11686 29.106418 
L 26.15069 29.202686 
L 26.252178 29.173065 
L 26.218349 29.254522 
L 26.269093 29.18047 
L 26.353666 29.291549 
L 26.370581 29.239712 
L 26.404411 29.150849 
L 26.472069 29.202686 
L 26.539728 29.150849 
L 26.590473 29.298954 
L 26.691961 29.128634 
L 26.793449 29.291549 
L 26.810364 29.217496 
L 26.827279 29.158254 
L 26.861108 29.343385 
L 26.911852 29.210091 
L 26.996426 29.373006 
L 26.962597 29.187875 
L 27.030256 29.239712 
L 27.04717 29.202686 
L 27.064085 29.291549 
L 27.114829 29.254522 
L 27.182488 29.195281 
L 27.233232 29.313764 
L 27.334721 29.217496 
L 27.283976 29.365601 
L 27.351635 29.291549 
L 27.436209 29.328575 
L 27.453124 29.276738 
L 27.470038 29.18047 
L 27.503868 29.387817 
L 27.554612 29.313764 
L 27.639186 29.380411 
L 27.605356 29.239712 
L 27.656101 29.35079 
L 27.757589 29.239712 
L 27.791418 29.410032 
L 27.859077 29.35079 
L 27.926736 29.387817 
L 27.97748 29.261928 
L 28.078969 29.387817 
L 28.095883 29.306359 
L 28.112798 29.224902 
L 28.146628 29.358196 
L 28.197372 29.33598 
L 28.29886 29.395222 
L 28.265031 29.254522 
L 28.315775 29.33598 
L 28.400349 29.239712 
L 28.349604 29.365601 
L 28.417263 29.358196 
L 28.434178 29.410032 
L 28.468008 29.254522 
L 28.518752 29.313764 
L 28.535666 29.261928 
L 28.569496 29.417438 
L 28.62024 29.291549 
L 28.721728 29.410032 
L 28.755558 29.284143 
L 28.840132 29.343385 
L 28.94162 29.402627 
L 28.90779 29.276738 
L 28.958535 29.358196 
L 29.178426 29.247117 
L 29.195341 29.298954 
L 29.212256 29.454464 
L 29.263 29.276738 
L 29.296829 29.343385 
L 29.313744 29.239712 
L 29.347573 29.402627 
L 29.398318 29.254522 
L 29.499806 29.439653 
L 29.516721 29.395222 
L 29.533635 29.269333 
L 29.618209 29.33598 
L 29.635124 29.402627 
L 29.685868 29.247117 
L 29.719697 29.343385 
L 29.787356 29.380411 
L 29.804271 29.33598 
L 29.821186 29.247117 
L 29.855015 29.395222 
L 29.905759 29.298954 
L 30.007248 29.402627 
L 29.956504 29.254522 
L 30.024163 29.358196 
L 30.108736 29.247117 
L 30.125651 29.328575 
L 30.142566 29.432248 
L 30.176395 29.284143 
L 30.227139 29.35079 
L 30.328628 29.232307 
L 30.277884 29.432248 
L 30.345542 29.328575 
L 30.430116 29.387817 
L 30.447031 29.298954 
L 30.463946 29.239712 
L 30.51469 29.32117 
L 30.548519 29.313764 
L 30.650008 29.358196 
L 30.616178 29.217496 
L 30.666922 29.313764 
L 30.751496 29.16566 
L 30.717666 29.35079 
L 30.768411 29.254522 
L 30.785325 29.365601 
L 30.869899 29.306359 
L 30.937558 29.387817 
L 30.971387 29.202686 
L 31.072876 29.343385 
L 31.089791 29.306359 
L 31.157449 29.239712 
L 31.191279 29.276738 
L 31.208194 29.358196 
L 31.258938 29.195281 
L 31.292767 29.298954 
L 31.41117 29.195281 
L 31.360426 29.343385 
L 31.428085 29.247117 
L 31.512659 29.276738 
L 31.580318 29.32117 
L 31.614147 29.187875 
L 31.681806 29.143444 
L 31.73255 29.343385 
L 31.817124 29.150849 
L 31.834039 29.224902 
L 31.867868 29.313764 
L 31.901698 29.173065 
L 31.935527 29.261928 
L 32.037015 29.18047 
L 32.003186 29.32117 
L 32.05393 29.232307 
L 32.138504 29.32117 
L 32.155418 29.269333 
L 32.172333 29.195281 
L 32.256907 29.217496 
L 32.358395 29.291549 
L 32.324566 29.150849 
L 32.37531 29.284143 
L 32.459884 29.099013 
L 32.476798 29.16566 
L 32.493713 29.284143 
L 32.544457 29.150849 
L 32.578287 29.261928 
L 32.612116 29.106418 
L 32.645946 29.284143 
L 32.69669 29.187875 
L 32.781263 29.269333 
L 32.747434 29.143444 
L 32.798178 29.187875 
L 32.848922 29.224902 
L 32.899667 29.121228 
L 32.916581 29.261928 
L 32.967325 29.076797 
L 33.01807 29.195281 
L 33.102643 29.106418 
L 33.068814 29.239712 
L 33.136473 29.187875 
L 33.153387 29.239712 
L 33.187217 29.158254 
L 33.237961 29.150849 
L 33.254876 29.076797 
L 33.288705 29.247117 
L 33.33945 29.158254 
L 33.390194 29.076797 
L 33.440938 29.217496 
L 33.542426 29.047176 
L 33.576256 29.247117 
L 33.643915 29.143444 
L 33.711574 29.195281 
L 33.762318 29.047176 
L 33.846891 29.150849 
L 33.863806 29.121228 
L 33.897636 29.01015 
L 33.982209 29.106418 
L 34.083698 29.143444 
L 34.032953 28.995339 
L 34.100612 29.099013 
L 34.185186 28.987934 
L 34.202101 29.143444 
L 34.219015 29.150849 
L 34.23593 29.099013 
L 34.320504 29.002745 
L 34.337419 29.099013 
L 34.354333 29.150849 
L 34.405077 28.995339 
L 34.438907 29.054581 
L 34.472736 29.047176 
L 34.489651 29.173065 
L 34.540395 29.01015 
L 34.574225 29.061986 
L 34.777201 29.143444 
L 34.794116 29.054581 
L 34.827946 28.958313 
L 34.861775 29.113823 
L 34.912519 29.047176 
L 34.997093 29.173065 
L 34.963264 28.943503 
L 35.014008 29.143444 
L 35.098581 28.958313 
L 35.115496 29.017555 
L 35.149326 29.128634 
L 35.183155 28.995339 
L 35.216984 29.039771 
L 35.318473 28.958313 
L 35.284643 29.136039 
L 35.335388 29.017555 
L 35.419961 29.099013 
L 35.386132 28.958313 
L 35.453791 29.017555 
L 35.538364 28.995339 
L 35.52145 29.069392 
L 35.555279 29.061986 
L 35.572194 29.076797 
L 35.589108 29.039771 
L 35.606023 28.950908 
L 35.656767 29.099013 
L 35.690597 29.02496 
L 35.792085 29.113823 
L 35.758256 28.950908 
L 35.809 29.076797 
L 35.893574 28.958313 
L 35.842829 29.106418 
L 35.910488 29.091607 
L 35.927403 29.150849 
L 35.961233 29.02496 
L 35.995062 29.069392 
L 36.062721 29.113823 
L 36.113465 28.980529 
L 36.214953 29.150849 
L 36.231868 29.091607 
L 36.248783 28.987934 
L 36.333357 29.054581 
L 36.401015 28.950908 
L 36.434845 29.069392 
L 36.536333 28.906477 
L 36.553248 28.943503 
L 36.570163 29.039771 
L 36.654736 28.980529 
L 36.705481 29.047176 
L 36.756225 28.86945 
L 36.857713 29.02496 
L 36.874628 28.987934 
L 36.959202 28.862045 
L 36.976116 28.906477 
L 36.993031 28.973124 
L 37.02686 28.83983 
L 37.077605 28.86945 
L 37.466643 28.639888 
L 37.483558 28.773182 
L 37.534302 28.713941 
L 37.568132 28.802803 
L 37.601961 28.639888 
L 37.635791 28.832424 
L 37.686535 28.68432 
L 37.788023 28.810209 
L 37.754194 28.662104 
L 37.804938 28.743562 
L 37.821853 28.647294 
L 37.906426 28.780588 
L 37.923341 28.810209 
L 37.957171 28.662104 
L 38.092488 28.676914 
L 38.109403 28.573241 
L 38.143233 28.706535 
L 38.210892 28.639888 
L 38.27855 28.69913 
L 38.329295 28.595457 
L 38.430783 28.706535 
L 38.396954 28.491784 
L 38.447698 28.639888 
L 38.532271 28.536215 
L 38.481527 28.647294 
L 38.549186 28.632483 
L 38.59993 28.54362 
L 38.63376 28.580646 
L 38.819822 28.484378 
L 38.887481 28.469568 
L 38.938225 28.595457 
L 39.039713 28.425137 
L 39.056628 28.580646 
L 39.141202 28.499189 
L 39.208861 28.565836 
L 39.259605 28.402921 
L 39.344178 28.551026 
L 39.310349 28.365895 
L 39.361093 28.52881 
L 39.445667 28.365895 
L 39.479496 28.476973 
L 39.496411 28.521405 
L 39.53024 28.336274 
L 39.56407 28.439947 
L 39.631729 28.476973 
L 39.682473 28.314058 
L 39.716302 28.432542 
L 39.800876 28.380705 
L 39.817791 28.306653 
L 39.85162 28.439947 
L 39.902364 28.38811 
L 39.919279 28.402921 
L 39.953109 28.291842 
L 40.037682 28.269627 
L 39.986938 28.395516 
L 40.054597 28.328869 
L 40.088426 28.284437 
L 40.105341 28.188169 
L 40.139171 28.380705 
L 40.189915 28.269627 
L 40.274488 28.35849 
L 40.240659 28.240006 
L 40.291403 28.314058 
L 40.392892 28.21779 
L 40.409806 28.291842 
L 40.443636 28.240006 
L 40.46055 28.143738 
L 40.49438 28.269627 
L 40.545124 28.240006 
L 40.562039 28.254816 
L 40.595868 28.173359 
L 40.612783 28.128927 
L 40.646613 28.254816 
L 40.697357 28.210385 
L 40.714271 28.225195 
L 40.731186 28.173359 
L 40.748101 28.054875 
L 40.78193 28.269627 
L 40.832675 28.165954 
L 40.934163 28.269627 
L 40.883419 28.069686 
L 40.951078 28.158548 
L 41.035651 28.077091 
L 41.001822 28.173359 
L 41.052566 28.180764 
L 41.069481 28.240006 
L 41.10331 28.032659 
L 41.13714 28.106712 
L 41.204799 28.151143 
L 41.255543 28.003038 
L 41.289372 28.084496 
L 41.357031 28.06228 
L 41.475434 27.958607 
L 41.576923 28.017849 
L 41.593837 27.921581 
L 41.678411 27.788287 
L 41.627667 27.958607 
L 41.695326 27.914176 
L 41.71224 27.958607 
L 41.74607 27.840123 
L 41.779899 27.884555 
L 41.847558 27.936391 
L 41.898302 27.751261 
L 41.982876 27.862339 
L 42.016706 27.803097 
L 42.03362 27.743855 
L 42.084364 27.832718 
L 42.118194 27.840123 
L 42.152023 27.854934 
L 42.168938 27.729045 
L 42.439574 27.692019 
L 42.490318 27.788287 
L 42.541062 27.588346 
L 42.642551 27.714234 
L 42.744039 27.469862 
L 42.760954 27.58094 
L 42.777868 27.625372 
L 42.794783 27.484672 
L 42.896271 26.270215 
L 42.980845 8.830896 
L 43.065419 14.058989 
L 43.31914 27.869744 
L 43.420628 28.188169 
L 43.437543 28.143738 
L 43.539031 27.958607 
L 43.572861 28.025254 
L 43.742008 27.684614 
L 43.843496 27.743855 
L 43.860411 27.706829 
L 43.894241 27.573535 
L 43.978814 27.640182 
L 43.995729 27.647587 
L 44.012644 27.588346 
L 44.029558 27.514293 
L 44.063388 27.669803 
L 44.114132 27.58094 
L 44.21562 27.662398 
L 44.164876 27.514293 
L 44.232535 27.588346 
L 44.317109 27.506888 
L 44.350938 27.669803 
L 44.418597 27.588346 
L 44.486256 27.669803 
L 44.537 27.506888 
L 44.621574 27.617967 
L 44.655403 27.558725 
L 44.672318 27.484672 
L 44.723062 27.632777 
L 44.756892 27.573535 
L 44.85838 27.617967 
L 44.824551 27.455051 
L 44.875295 27.573535 
L 44.959868 27.418025 
L 44.909124 27.588346 
L 44.976783 27.521699 
L 44.993698 27.647587 
L 45.027527 27.499483 
L 45.078272 27.543914 
L 45.129016 27.625372 
L 45.17976 27.521699 
L 45.281248 27.640182 
L 45.298163 27.58094 
L 45.315078 27.432836 
L 45.399651 27.551319 
L 45.416566 27.588346 
L 45.450396 27.477267 
L 45.50114 27.529104 
L 46.228473 27.484672 
L 46.245388 27.403215 
L 46.329962 27.529104 
L 46.363791 27.514293 
L 46.380706 27.432836 
L 46.39762 27.39581 
L 46.43145 27.558725 
L 46.465279 27.432836 
L 46.499109 27.543914 
L 46.532938 27.380999 
L 46.583682 27.492078 
L 46.668256 27.388404 
L 46.617512 27.499483 
L 46.685171 27.432836 
L 46.702086 27.543914 
L 46.75283 27.358783 
L 46.786659 27.462457 
L 46.888148 27.358783 
L 46.837403 27.514293 
L 46.905062 27.425431 
L 46.989636 27.484672 
L 47.006551 27.432836 
L 47.023465 27.314352 
L 47.108039 27.343973 
L 47.124954 27.447646 
L 47.175698 27.306947 
L 47.226442 27.41062 
L 47.311016 27.225489 
L 47.344845 27.380999 
L 47.378675 27.269921 
L 47.463248 27.151437 
L 47.480163 27.262515 
L 47.497078 27.299542 
L 47.530907 27.188463 
L 47.564737 27.247705 
L 47.767713 26.699718 
L 47.869202 9.149321 
L 47.97069 14.977238 
L 48.207496 27.292136 
L 48.342814 27.662398 
L 48.427388 27.617967 
L 48.596535 27.306947 
L 48.698024 27.380999 
L 48.714938 27.329163 
L 48.748768 27.188463 
L 48.816427 27.25511 
L 48.884086 27.181058 
L 48.93483 27.329163 
L 49.036318 27.151437 
L 49.053233 27.299542 
L 49.103977 27.232895 
L 49.137807 27.336568 
L 49.171636 27.210679 
L 49.205465 27.41062 
L 49.25621 27.247705 
L 49.357698 27.432836 
L 49.374613 27.321757 
L 49.391527 27.232895 
L 49.408442 27.351378 
L 49.459186 27.329163 
L 49.526845 27.314352 
L 49.577589 27.447646 
L 49.628334 27.514293 
L 49.679078 27.373594 
L 49.780566 27.536509 
L 49.797481 27.462457 
L 49.814396 27.418025 
L 49.848225 27.551319 
L 49.882055 27.469862 
L 49.983543 27.632777 
L 49.949714 27.440241 
L 50.017372 27.529104 
L 50.051202 27.573535 
L 50.101946 27.492078 
L 50.135776 27.669803 
L 50.220349 27.603156 
L 50.237264 27.551319 
L 50.271093 27.72164 
L 50.321838 27.588346 
L 50.423326 27.714234 
L 50.440241 27.662398 
L 50.457155 27.58094 
L 50.541729 27.699424 
L 50.710876 27.743855 
L 50.727791 27.669803 
L 50.744706 27.617967 
L 50.778535 27.854934 
L 50.812365 27.699424 
L 50.913853 27.817908 
L 50.880024 27.647587 
L 50.930768 27.795692 
L 50.964597 27.692019 
L 51.032256 27.743855 
L 51.066086 27.884555 
L 51.099915 27.706829 
L 51.150659 27.795692 
L 51.201403 27.862339 
L 51.252148 27.773476 
L 51.353636 27.884555 
L 51.370551 27.825313 
L 51.387466 27.751261 
L 51.421295 27.90677 
L 51.472039 27.869744 
L 51.522783 27.803097 
L 51.641186 27.921581 
L 51.675016 27.803097 
L 51.708845 27.988228 
L 51.742675 27.847529 
L 51.844163 28.032659 
L 51.861078 27.988228 
L 51.962566 27.90677 
L 51.979481 28.025254 
L 52.080969 28.010444 
L 52.182458 27.90677 
L 52.131714 28.04747 
L 52.199373 27.995633 
L 52.267031 28.054875 
L 52.233202 27.966012 
L 52.300861 27.973418 
L 52.317776 27.921581 
L 52.351605 28.084496 
L 52.402349 28.017849 
L 52.503838 28.136333 
L 52.453093 27.921581 
L 52.520752 28.017849 
L 52.774473 28.151143 
L 52.791388 28.099306 
L 52.808303 28.010444 
L 52.859047 28.121522 
L 52.892876 28.121522 
L 52.960535 28.04747 
L 53.01128 28.188169 
L 53.095853 28.032659 
L 53.112768 28.128927 
L 53.129683 28.247411 
L 53.214256 28.173359 
L 53.281915 28.269627 
L 53.315745 28.121522 
L 53.417233 28.336274 
L 53.383404 28.091901 
L 53.434148 28.225195 
L 53.451062 28.136333 
L 53.535636 28.21779 
L 53.552551 28.284437 
L 53.603295 28.136333 
L 53.637124 28.21779 
L 53.670954 28.20298 
L 53.687869 28.306653 
L 53.721698 28.254816 
L 53.738613 28.180764 
L 53.806272 28.314058 
L 53.823187 28.299248 
L 53.924675 28.410326 
L 53.890845 28.240006 
L 53.94159 28.35849 
L 54.026163 28.299248 
L 53.992334 28.425137 
L 54.043078 28.395516 
L 54.127652 28.499189 
L 54.161481 28.439947 
L 54.482861 28.83983 
L 54.499776 28.810209 
L 54.533605 28.721346 
L 54.584349 28.832424 
L 54.601264 28.787993 
L 54.668923 28.765777 
L 54.719667 28.943503 
L 54.821156 28.832424 
L 54.854985 28.987934 
L 54.939559 28.906477 
L 54.956473 28.847235 
L 54.990303 29.054581 
L 55.024132 28.913882 
L 55.125621 29.128634 
L 55.142535 29.076797 
L 55.176365 28.965718 
L 55.244024 29.01015 
L 55.311683 28.965718 
L 55.362427 29.099013 
L 55.447001 29.017555 
L 55.413171 29.158254 
L 55.463915 29.047176 
L 55.565404 29.18047 
L 55.582318 29.121228 
L 55.599233 29.061986 
L 55.633063 29.239712 
L 55.666892 29.106418 
L 55.734551 29.084202 
L 55.785295 29.254522 
L 55.886783 29.143444 
L 55.988272 29.306359 
L 56.005187 29.247117 
L 56.08976 29.239712 
L 56.055931 29.365601 
L 56.106675 29.261928 
L 56.208163 29.365601 
L 56.225078 29.306359 
L 56.241993 29.261928 
L 56.275822 29.365601 
L 56.309652 29.306359 
L 56.428055 29.447058 
L 56.44497 29.395222 
L 56.529543 29.276738 
L 56.495714 29.424843 
L 56.546458 29.432248 
L 56.563373 29.498895 
L 56.597202 29.35079 
L 56.631032 29.447058 
L 56.69869 29.49149 
L 56.749435 29.358196 
L 56.834008 29.513706 
L 56.800179 29.343385 
L 56.850923 29.484085 
L 56.884752 29.358196 
L 56.952411 29.454464 
L 57.036985 29.417438 
L 57.070815 29.535921 
L 57.172303 29.387817 
L 57.189218 29.484085 
L 57.206132 29.550732 
L 57.239962 29.469274 
L 57.290706 29.49149 
L 57.307621 29.424843 
L 57.34145 29.587758 
L 57.392194 29.469274 
L 57.476768 29.617379 
L 57.442939 29.424843 
L 57.510597 29.558137 
L 57.595171 29.476679 
L 57.612086 29.587758 
L 57.629001 29.66181 
L 57.66283 29.476679 
L 57.696659 29.587758 
L 57.764318 29.624784 
L 57.815063 29.498895 
L 57.916551 29.654405 
L 57.933466 29.580353 
L 57.95038 29.498895 
L 58.001125 29.639594 
L 58.034954 29.617379 
L 58.136442 29.735862 
L 58.102613 29.535921 
L 58.153357 29.676621 
L 58.237931 29.5063 
L 58.254846 29.632189 
L 58.27176 29.750673 
L 58.30559 29.595163 
L 58.356334 29.617379 
L 58.423993 29.691431 
L 58.457822 29.550732 
L 58.559311 29.758078 
L 58.576225 29.691431 
L 58.59314 29.602568 
L 58.677714 29.706242 
L 58.694629 29.728457 
L 58.728458 29.609974 
L 58.745373 29.572947 
L 58.779202 29.698836 
L 58.813032 29.639594 
L 58.91452 29.721052 
L 58.880691 29.572947 
L 58.931435 29.698836 
L 59.032923 29.587758 
L 59.066753 29.772889 
L 59.134411 29.728457 
L 59.168241 29.609974 
L 59.20207 29.787699 
L 59.2359 29.654405 
L 59.337388 29.839536 
L 59.354303 29.780294 
L 59.388132 29.676621 
L 59.455791 29.713647 
L 59.472706 29.83213 
L 59.52345 29.691431 
L 59.574194 29.80251 
L 59.675683 29.684026 
L 59.692598 29.787699 
L 59.726427 29.765483 
L 59.777171 29.83213 
L 59.811001 29.66181 
L 59.84483 29.883967 
L 59.895574 29.780294 
L 59.997063 29.891372 
L 59.946318 29.669215 
L 60.013977 29.787699 
L 60.081636 29.721052 
L 60.047807 29.824725 
L 60.115466 29.81732 
L 60.13238 29.854346 
L 60.16621 29.735862 
L 60.216954 29.787699 
L 60.267698 29.883967 
L 60.352272 29.80251 
L 60.555249 29.854346 
L 60.572163 29.80251 
L 60.589078 29.721052 
L 60.622908 29.876562 
L 60.673652 29.795104 
L 60.77514 29.928398 
L 60.741311 29.765483 
L 60.792055 29.898778 
L 60.876629 29.772889 
L 60.893543 29.854346 
L 60.910458 29.958019 
L 60.961202 29.809915 
L 60.995032 29.83213 
L 61.011946 29.809915 
L 61.028861 29.846941 
L 61.045776 29.965425 
L 61.09652 29.824725 
L 61.147264 29.913588 
L 61.248753 29.876562 
L 61.198008 29.965425 
L 61.265667 29.920993 
L 61.350241 29.928398 
L 61.367156 29.883967 
L 61.38407 29.795104 
L 61.4179 29.980235 
L 61.468644 29.854346 
L 61.553218 29.980235 
L 61.519388 29.81732 
L 61.587047 29.898778 
L 61.671621 29.809915 
L 61.688536 29.950614 
L 61.73928 29.780294 
L 61.773109 29.898778 
L 61.874598 29.795104 
L 61.840768 29.913588 
L 61.891512 29.824725 
L 61.976086 29.935804 
L 61.993001 29.876562 
L 62.02683 29.758078 
L 62.094489 29.83213 
L 62.111404 29.935804 
L 62.162148 29.772889 
L 62.212892 29.906183 
L 62.246722 29.824725 
L 62.263636 29.883967 
" clip-path="url(#p22917a1ab6)" style="fill: none; stroke: #1f77b4; stroke-width: 1.5; stroke-linecap: square"/>
   </g>
   <g id="line2d_7">
    <path d="M 11.536364 30.705948 
L 11.604023 30.654111 
L 11.654767 30.78 
L 11.77317 30.654111 
L 11.790085 30.698542 
L 11.840829 30.639301 
L 11.874658 30.757784 
L 11.993061 30.62449 
L 12.652736 30.550438 
L 12.771139 30.45417 
L 12.788054 30.476386 
L 12.889542 30.520817 
L 12.906457 30.461575 
L 12.99103 30.417144 
L 12.940286 30.491196 
L 13.02486 30.446765 
L 13.109433 30.513412 
L 13.126348 30.461575 
L 13.210922 30.409738 
L 13.194007 30.498601 
L 13.244751 30.446765 
L 13.396984 30.350497 
L 13.430813 30.446765 
L 13.464643 30.328281 
L 13.498472 30.417144 
L 13.599961 30.320876 
L 13.616875 30.343091 
L 13.870596 30.335686 
L 14.293464 30.232013 
L 14.378038 30.194987 
L 14.344209 30.29866 
L 14.394953 30.246823 
L 14.750162 30.224608 
L 14.767077 30.120934 
L 14.868565 30.157961 
L 14.88548 30.232013 
L 14.919309 30.113529 
L 14.970054 30.202392 
L 15.088457 30.106124 
L 15.156116 30.069098 
L 15.20686 30.180176 
L 15.325263 30.076503 
L 15.342178 30.091314 
L 15.426751 30.135745 
L 15.409837 30.009856 
L 15.443666 30.12834 
L 15.545154 30.039477 
L 15.49441 30.150555 
L 15.562069 30.054287 
L 15.663558 30.14315 
L 15.680472 30.091314 
L 15.765046 30.002451 
L 15.748131 30.12834 
L 15.781961 30.017261 
L 15.900364 30.091314 
L 16.001852 29.97283 
L 16.018767 30.017261 
L 16.13717 30.061693 
L 16.255573 29.97283 
L 16.357061 30.098719 
L 16.373976 30.024666 
L 16.441635 30.098719 
L 16.492379 29.97283 
L 16.543123 29.935804 
L 16.593868 30.098719 
L 16.627697 29.906183 
L 16.712271 29.935804 
L 16.830674 30.054287 
L 16.864503 29.891372 
L 16.949077 29.935804 
L 17.06748 30.002451 
L 17.10131 29.861751 
L 17.135139 30.024666 
L 17.185883 29.913588 
L 17.287372 30.017261 
L 17.253542 29.898778 
L 17.304286 29.995046 
L 17.405775 29.883967 
L 17.371945 30.009856 
L 17.422689 29.935804 
L 17.490348 29.861751 
L 17.524178 29.995046 
L 17.642581 29.854346 
L 17.67641 30.032072 
L 17.760984 30.002451 
L 17.879387 29.898778 
L 17.980875 30.009856 
L 17.99779 29.958019 
L 18.099279 29.906183 
L 18.065449 29.995046 
L 18.116193 29.943209 
L 18.217682 30.017261 
L 18.234596 29.935804 
L 18.251511 29.839536 
L 18.302255 29.98764 
L 18.336085 29.935804 
L 18.454488 29.995046 
L 18.471403 29.943209 
L 18.488317 29.883967 
L 18.522147 30.002451 
L 18.572891 29.920993 
L 18.64055 29.898778 
L 18.691294 29.995046 
L 18.792782 29.898778 
L 18.809697 29.935804 
L 18.843527 30.039477 
L 18.860441 29.876562 
L 18.9281 29.958019 
L 18.945015 30.024666 
L 18.96193 29.935804 
L 19.029589 29.935804 
L 19.131077 29.965425 
L 19.147992 29.950614 
L 19.181821 29.995046 
L 19.28331 29.920993 
L 19.384798 29.97283 
L 19.418627 29.950614 
L 19.942984 29.861751 
L 20.010643 29.83213 
L 19.993728 29.891372 
L 20.044472 29.876562 
L 20.145961 29.913588 
L 20.162876 29.891372 
L 20.196705 29.787699 
L 20.281279 29.854346 
L 20.382767 29.876562 
L 20.433511 29.780294 
L 20.50117 29.80251 
L 20.535 29.891372 
L 20.619573 29.854346 
L 20.721062 29.787699 
L 20.754891 29.83213 
L 20.771806 29.883967 
L 20.78872 29.81732 
L 20.873294 29.846941 
L 20.974783 29.787699 
L 20.991697 29.846941 
L 21.076271 29.854346 
L 21.042441 29.772889 
L 21.093186 29.839536 
L 21.211589 29.80251 
L 21.313077 29.876562 
L 21.262333 29.758078 
L 21.329992 29.787699 
L 21.380736 29.876562 
L 21.43148 29.80251 
L 21.532969 29.861751 
L 21.549883 29.81732 
L 21.651372 29.765483 
L 21.600627 29.846941 
L 21.668286 29.809915 
L 21.685201 29.883967 
L 21.78669 29.83213 
L 21.888178 29.758078 
L 21.854348 29.876562 
L 21.905093 29.83213 
L 21.955837 29.765483 
L 22.006581 29.883967 
L 22.124984 29.758078 
L 22.158814 29.876562 
L 22.192643 29.735862 
L 22.243387 29.81732 
L 22.344876 29.713647 
L 22.36179 29.765483 
L 22.463279 29.854346 
L 22.429449 29.698836 
L 22.480193 29.80251 
L 22.581682 29.698836 
L 22.598597 29.758078 
L 23.32593 29.721052 
L 23.427418 29.543326 
L 23.444333 29.587758 
L 23.478162 29.632189 
L 23.495077 29.49149 
L 23.596566 29.417438 
L 23.545821 29.572947 
L 23.61348 29.49149 
L 23.630395 29.543326 
L 23.64731 29.387817 
L 23.714969 29.461869 
L 23.833372 29.291549 
L 23.850286 29.35079 
L 23.867201 29.424843 
L 23.901031 29.254522 
L 23.951775 29.32117 
L 24.019434 29.365601 
L 24.070178 29.254522 
L 24.137837 29.187875 
L 24.171666 29.35079 
L 24.290069 29.113823 
L 24.306984 29.143444 
L 24.323899 29.202686 
L 24.357728 29.017555 
L 24.408473 29.121228 
L 24.526876 28.928692 
L 24.54379 28.987934 
L 24.628364 28.995339 
L 24.611449 28.891666 
L 24.645279 28.980529 
L 24.746767 28.85464 
L 24.712938 29.01015 
L 24.763682 28.876856 
L 24.86517 28.943503 
L 24.983573 28.758372 
L 25.000488 28.906477 
L 25.101976 28.847235 
L 25.203465 28.743562 
L 25.22038 28.780588 
L 25.237294 28.86945 
L 25.288038 28.765777 
L 25.338783 28.825019 
L 25.524845 28.610267 
L 25.541759 28.639888 
L 25.558674 28.713941 
L 25.592504 28.565836 
L 25.643248 28.610267 
L 25.930798 28.380705 
L 25.981542 28.402921 
L 25.964628 28.336274 
L 25.998457 28.3733 
L 26.133775 28.269627 
L 26.252178 28.277032 
L 26.269093 28.247411 
L 26.421325 28.151143 
L 26.539728 28.114117 
L 26.590473 28.077091 
L 26.641217 28.143738 
L 26.742705 28.010444 
L 26.776535 28.025254 
L 27.537697 27.751261 
L 27.639186 27.817908 
L 27.656101 27.788287 
L 27.909821 27.610561 
L 27.943651 27.647587 
L 27.994395 27.56613 
L 28.078969 27.232895 
L 28.129713 13.148146 
L 28.163542 5.58 
L 28.231201 9.371478 
L 28.569496 27.536509 
L 28.65407 27.72164 
L 28.721728 27.669803 
L 28.857046 27.529104 
L 28.873961 27.588346 
L 28.890876 27.610561 
L 28.90779 27.499483 
L 28.958535 27.625372 
L 29.009279 27.499483 
L 29.026194 27.617967 
L 29.127682 27.603156 
L 29.195341 27.684614 
L 29.22917 27.543914 
L 29.347573 27.692019 
L 29.364488 27.647587 
L 29.482891 27.692019 
L 29.567465 27.803097 
L 29.601294 27.729045 
L 29.736612 27.847529 
L 29.753527 27.810502 
L 29.770442 27.72164 
L 29.821186 27.869744 
L 29.855015 27.773476 
L 29.973418 27.884555 
L 30.074907 27.780882 
L 30.041077 27.921581 
L 30.091822 27.862339 
L 30.19331 27.951202 
L 30.210225 27.928986 
L 30.227139 27.832718 
L 30.277884 27.958607 
L 30.311713 27.854934 
L 30.430116 28.025254 
L 30.447031 27.958607 
L 30.463946 27.884555 
L 30.51469 28.032659 
L 30.565434 27.936391 
L 30.666922 28.099306 
L 30.683837 28.010444 
L 30.751496 28.084496 
L 30.785325 27.951202 
L 30.886814 28.128927 
L 30.903729 28.121522 
L 31.022132 28.025254 
L 31.12362 28.158548 
L 31.089791 28.003038 
L 31.140535 28.136333 
L 31.174364 28.032659 
L 31.208194 28.195574 
L 31.242023 28.091901 
L 31.360426 28.210385 
L 31.326597 28.040065 
L 31.377341 28.143738 
L 31.445 28.210385 
L 31.478829 28.099306 
L 31.597232 28.210385 
L 31.614147 28.188169 
L 31.664891 28.247411 
L 31.715636 28.143738 
L 31.749465 28.232601 
L 31.834039 28.173359 
L 31.952442 28.128927 
L 32.05393 28.240006 
L 32.070845 28.165954 
L 32.121589 28.20298 
L 32.172333 28.128927 
L 32.290736 28.254816 
L 32.324566 28.136333 
L 32.409139 28.188169 
L 32.510628 28.262222 
L 32.527543 28.232601 
L 32.629031 28.284437 
L 32.645946 28.277032 
L 34.743372 28.343679 
L 34.760287 28.417731 
L 34.794116 28.306653 
L 34.84486 28.38811 
L 34.946349 28.35849 
L 34.963264 28.380705 
L 35.081667 28.38811 
L 35.115496 28.328869 
L 35.149326 28.410326 
L 35.183155 28.380705 
L 35.301558 28.499189 
L 35.335388 28.410326 
L 35.419961 28.439947 
L 35.538364 28.484378 
L 35.555279 28.454758 
L 35.606023 28.54362 
L 35.656767 28.417731 
L 35.690597 28.551026 
L 35.775171 28.491784 
L 35.842829 28.52881 
L 35.893574 28.410326 
L 35.995062 28.565836 
L 36.011977 28.454758 
L 36.062721 28.513999 
L 36.113465 28.402921 
L 36.231868 28.580646 
L 36.265698 28.439947 
L 36.350271 28.491784 
L 36.468674 28.565836 
L 36.485589 28.506594 
L 36.570163 28.447352 
L 36.536333 28.558431 
L 36.587078 28.506594 
L 36.705481 28.588052 
L 36.806969 28.476973 
L 36.77314 28.632483 
L 36.823884 28.565836 
L 36.908457 28.617673 
L 36.891543 28.499189 
L 36.925372 28.595457 
L 37.02686 28.521405 
L 37.043775 28.536215 
L 37.162178 28.68432 
L 37.111434 28.484378 
L 37.179093 28.580646 
L 37.229837 28.654699 
L 37.280581 28.521405 
L 37.314411 28.69913 
L 37.398985 28.617673 
L 37.466643 28.676914 
L 37.517388 28.602862 
L 37.618876 28.721346 
L 37.568132 28.588052 
L 37.635791 28.669509 
L 37.737279 28.52881 
L 37.855682 28.69913 
L 37.889512 28.484378 
L 37.974085 28.565836 
L 38.041744 28.54362 
L 38.092488 28.662104 
L 38.193977 28.573241 
L 38.227806 28.669509 
L 38.261636 28.602862 
L 38.329295 28.662104 
L 38.430783 28.617673 
L 38.549186 28.780588 
L 38.566101 28.632483 
L 38.667589 28.662104 
L 38.853651 28.773182 
L 38.887481 28.713941 
L 38.972054 28.654699 
L 38.938225 28.773182 
L 38.988969 28.721346 
L 39.090457 28.802803 
L 39.056628 28.69913 
L 39.107372 28.750967 
L 39.175031 28.802803 
L 39.225775 28.750967 
L 39.24269 28.817614 
L 39.276519 28.728751 
L 39.344178 28.787993 
L 39.597899 28.706535 
L 39.682473 28.802803 
L 39.716302 28.795398 
L 39.868535 28.85464 
L 39.953109 28.758372 
L 39.986938 28.802803 
L 40.122256 28.847235 
L 40.139171 28.773182 
L 40.173 28.884261 
L 40.223744 28.832424 
L 40.342147 28.862045 
L 40.443636 28.825019 
L 40.409806 28.913882 
L 40.46055 28.85464 
L 40.562039 28.906477 
L 40.578954 28.876856 
L 40.765016 28.906477 
L 40.951078 28.958313 
L 41.052566 28.884261 
L 41.086395 28.958313 
L 41.187884 28.980529 
L 41.120225 28.906477 
L 41.204799 28.958313 
L 41.289372 28.921287 
L 41.255543 28.987934 
L 41.306287 28.943503 
L 41.407775 28.995339 
L 41.42469 28.987934 
L 41.526178 28.973124 
L 41.543093 29.017555 
L 41.593837 28.958313 
L 41.695326 29.047176 
L 41.881388 29.099013 
L 41.898302 28.987934 
L 41.999791 29.054581 
L 42.101279 29.16566 
L 42.118194 29.128634 
L 42.185853 29.150849 
L 42.219682 29.054581 
L 42.338085 29.210091 
L 42.355 29.187875 
L 42.371915 29.084202 
L 42.405744 29.239712 
L 42.456489 29.150849 
L 42.574892 29.195281 
L 42.67638 29.113823 
L 42.642551 29.247117 
L 42.693295 29.150849 
L 42.811698 29.232307 
L 42.862442 29.254522 
L 42.930101 29.158254 
L 42.947016 29.291549 
L 43.048504 29.217496 
L 43.133078 29.16566 
L 43.116163 29.254522 
L 43.166907 29.202686 
L 43.217651 29.150849 
L 43.268396 29.284143 
L 43.302225 29.173065 
L 43.386799 29.224902 
L 43.488287 29.313764 
L 43.437543 29.18047 
L 43.505202 29.239712 
L 43.572861 29.32117 
L 43.60669 29.195281 
L 43.742008 29.284143 
L 43.843496 29.173065 
L 43.792752 29.33598 
L 43.860411 29.239712 
L 43.911155 29.195281 
L 43.961899 29.358196 
L 44.080303 29.187875 
L 44.114132 29.358196 
L 44.198706 29.306359 
L 44.266365 29.343385 
L 44.317109 29.232307 
L 44.350938 29.380411 
L 44.384768 29.18047 
L 44.435512 29.298954 
L 44.537 29.217496 
L 44.503171 29.32117 
L 44.553915 29.232307 
L 44.587744 29.35079 
L 44.672318 29.291549 
L 44.773806 29.202686 
L 44.723062 29.306359 
L 44.790721 29.239712 
L 44.807636 29.328575 
L 44.85838 29.16566 
L 44.89221 29.298954 
L 44.926039 29.173065 
L 45.010613 29.210091 
L 45.129016 29.254522 
L 45.14593 29.224902 
L 45.162845 29.18047 
L 45.196675 29.306359 
L 45.247419 29.232307 
L 45.348907 29.33598 
L 45.46731 29.202686 
L 45.585713 29.276738 
L 45.602628 29.247117 
L 45.704117 29.224902 
L 45.721031 29.254522 
L 45.805605 29.32117 
L 45.78869 29.232307 
L 45.82252 29.276738 
L 45.907093 29.232307 
L 45.890179 29.32117 
L 45.940923 29.254522 
L 46.008582 29.313764 
L 46.059326 29.284143 
L 46.126985 29.32117 
L 46.160814 29.239712 
L 46.296132 29.306359 
L 47.023465 29.380411 
L 47.124954 29.432248 
L 47.141869 29.417438 
L 47.243357 29.380411 
L 47.209527 29.461869 
L 47.260272 29.424843 
L 47.733884 29.5063 
L 47.818458 29.528516 
L 47.801543 29.447058 
L 47.852287 29.5063 
L 48.038349 29.476679 
L 48.055264 29.572947 
L 48.156752 29.521111 
L 48.511962 29.595163 
L 48.596535 29.632189 
L 48.630365 29.528516 
L 48.748768 29.624784 
L 48.765683 29.609974 
L 48.867171 29.558137 
L 48.884086 29.580353 
L 48.985574 29.676621 
L 49.070148 29.706242 
L 49.103977 29.550732 
L 49.22238 29.735862 
L 49.25621 29.595163 
L 49.340783 29.632189 
L 49.442272 29.713647 
L 49.459186 29.698836 
L 49.476101 29.602568 
L 49.526845 29.713647 
L 49.560675 29.647 
L 49.679078 29.765483 
L 49.695993 29.684026 
L 49.797481 29.66181 
L 49.746737 29.721052 
L 49.814396 29.691431 
L 49.915884 29.787699 
L 49.86514 29.66181 
L 49.932799 29.728457 
L 49.949714 29.66181 
L 49.983543 29.824725 
L 50.034287 29.735862 
L 50.085031 29.676621 
L 50.15269 29.772889 
L 50.254179 29.676621 
L 50.220349 29.80251 
L 50.271093 29.706242 
L 50.338752 29.647 
L 50.372582 29.780294 
L 50.490985 29.66181 
L 50.609388 29.795104 
L 50.626303 29.691431 
L 50.660132 29.721052 
L 50.677047 29.780294 
L 50.693962 29.787699 
L 50.761621 29.80251 
L 50.812365 29.66181 
L 50.846194 29.795104 
L 50.930768 29.728457 
L 50.998427 29.787699 
L 51.032256 29.654405 
L 51.150659 29.839536 
L 51.184489 29.676621 
L 51.269062 29.698836 
L 51.336721 29.676621 
L 51.387466 29.83213 
L 51.421295 29.691431 
L 51.505869 29.735862 
L 51.539698 29.81732 
L 51.624272 29.780294 
L 51.72576 29.728457 
L 51.691931 29.876562 
L 51.742675 29.758078 
L 51.844163 29.81732 
L 51.861078 29.795104 
L 51.877993 29.728457 
L 51.928737 29.824725 
L 51.962566 29.750673 
L 52.064055 29.839536 
L 52.097884 29.780294 
L 52.199373 29.750673 
L 52.267031 29.735862 
L 52.317776 29.83213 
L 52.419264 29.750673 
L 52.436179 29.80251 
L 52.537667 29.846941 
L 52.503838 29.743268 
L 52.554582 29.809915 
L 52.65607 29.735862 
L 52.672985 29.787699 
L 52.791388 29.824725 
L 52.875962 29.780294 
L 52.909791 29.81732 
L 54.22914 29.898778 
L 54.313714 29.950614 
L 54.279884 29.839536 
L 54.330628 29.883967 
L 54.449031 29.883967 
L 54.55052 30.009856 
L 54.567435 29.861751 
L 54.652008 29.920993 
L 54.702752 29.958019 
L 54.736582 29.913588 
L 54.753497 29.869157 
L 54.787326 29.995046 
L 54.83807 29.920993 
L 54.939559 29.98764 
L 54.956473 29.958019 
L 55.007218 30.024666 
L 55.057962 29.920993 
L 55.15945 30.017261 
L 55.176365 30.002451 
L 55.294768 29.943209 
L 55.396256 30.039477 
L 55.413171 29.98764 
L 55.514659 29.965425 
L 55.447001 30.002451 
L 55.531574 29.980235 
L 55.633063 30.061693 
L 55.649977 30.009856 
L 55.666892 29.943209 
L 55.700721 30.054287 
L 55.76838 29.98764 
L 55.852954 30.091314 
L 55.886783 30.046882 
L 55.971357 29.950614 
L 55.937528 30.083908 
L 55.988272 29.995046 
L 56.005187 30.083908 
L 56.055931 29.935804 
L 56.106675 30.046882 
L 56.208163 29.980235 
L 56.174334 30.091314 
L 56.225078 30.017261 
L 56.326566 30.061693 
L 56.343481 30.046882 
L 56.44497 30.002451 
L 56.41114 30.120934 
L 56.461884 30.032072 
L 56.478799 30.135745 
L 56.512628 29.97283 
L 56.563373 30.083908 
L 56.664861 29.98764 
L 56.681776 30.024666 
L 56.834008 30.009856 
L 56.850923 30.061693 
L 56.901667 30.002451 
L 56.952411 30.091314 
L 57.0539 29.98764 
L 57.02007 30.113529 
L 57.070815 30.032072 
L 57.121559 30.002451 
L 57.189218 30.069098 
L 57.256877 30.113529 
L 57.307621 30.002451 
L 57.37528 29.98764 
L 57.409109 30.14315 
L 57.527512 29.97283 
L 57.645915 30.135745 
L 57.764318 29.965425 
L 57.882722 30.12834 
L 57.899636 30.002451 
L 58.001125 30.076503 
L 58.119528 30.120934 
L 58.153357 29.980235 
L 58.237931 30.017261 
L 58.254846 30.120934 
L 58.356334 30.091314 
L 58.390163 29.98764 
L 58.407078 30.106124 
L 58.474737 30.054287 
L 58.491652 30.150555 
L 58.525481 30.017261 
L 58.576225 30.069098 
L 58.931435 29.995046 
L 58.999094 29.928398 
L 59.032923 30.069098 
L 59.168241 29.958019 
L 59.185156 30.009856 
L 59.218985 29.891372 
L 59.269729 29.97283 
L 59.388132 29.891372 
L 59.405047 29.935804 
L 59.540365 29.935804 
L 59.658768 29.898778 
L 59.861745 29.958019 
L 59.980148 29.81732 
L 60.115466 29.83213 
L 60.233869 29.780294 
L 60.250784 29.795104 
L 60.267698 29.846941 
L 60.352272 29.80251 
L 60.504505 29.780294 
L 60.622908 29.758078 
L 60.690567 29.721052 
L 60.656737 29.80251 
L 60.724396 29.795104 
L 60.859714 29.713647 
L 60.876629 29.735862 
L 60.961202 29.780294 
L 60.927373 29.706242 
L 60.978117 29.735862 
L 61.113435 29.728457 
L 61.147264 29.698836 
L 61.214923 29.750673 
L 61.316412 29.676621 
L 61.333326 29.728457 
L 61.519388 29.698836 
L 62.263636 29.780294 
L 62.263636 29.780294 
" clip-path="url(#p22917a1ab6)" style="fill: none; stroke: #ff7f0e; stroke-width: 1.5; stroke-linecap: square"/>
   </g>
   <g id="patch_3">
    <path d="M 9 32.04 
L 9 4.32 
" style="fill: none; stroke: #000000; stroke-width: 0.8; stroke-linejoin: miter; stroke-linecap: square"/>
   </g>
   <g id="patch_4">
    <path d="M 9 32.04 
L 64.8 32.04 
" style="fill: none; stroke: #000000; stroke-width: 0.8; stroke-linejoin: miter; stroke-linecap: square"/>
   </g>
   <g id="legend_1">
    <g id="line2d_8">
     <path d="M 16.2 8.63375 
L 24.2 8.63375 
L 32.2 8.63375 
" style="fill: none; stroke: #1f77b4; stroke-width: 1.5; stroke-linecap: square"/>
    </g>
    <g id="text_6">
     <text style="font: 8px 'sans-serif'; text-anchor: start" x="38.6" y="11.43375" transform="rotate(-0, 38.6, 11.43375)">Control</text>
    </g>
    <g id="line2d_9">
     <path d="M 16.2 20.37625 
L 24.2 20.37625 
L 32.2 20.37625 
" style="fill: none; stroke: #ff7f0e; stroke-width: 1.5; stroke-linecap: square"/>
    </g>
    <g id="text_7">
     <text style="font: 8px 'sans-serif'; text-anchor: start" x="38.6" y="23.17625" transform="rotate(-0, 38.6, 23.17625)">MK-801</text>
    </g>
   </g>
  </g>
 </g>
 <defs>
  <clipPath id="p22917a1ab6">
   <rect x="9" y="4.32" width="55.8" height="27.72"/>
  </clipPath>
 </defs>
</svg>
