<?xml version="1.0" encoding="utf-8" standalone="no"?>
<!DOCTYPE svg PUBLIC "-//W3C//DTD SVG 1.1//EN"
  "http://www.w3.org/Graphics/SVG/1.1/DTD/svg11.dtd">
<svg xmlns:xlink="http://www.w3.org/1999/xlink" width="72pt" height="36pt" viewBox="0 0 72 36" xmlns="http://www.w3.org/2000/svg" version="1.1">
 <metadata>
  <rdf:RDF xmlns:dc="http://purl.org/dc/elements/1.1/" xmlns:cc="http://creativecommons.org/ns#" xmlns:rdf="http://www.w3.org/1999/02/22-rdf-syntax-ns#">
   <cc:Work>
    <dc:type rdf:resource="http://purl.org/dc/dcmitype/StillImage"/>
    <dc:date>2023-11-25T20:45:03.278683</dc:date>
    <dc:format>image/svg+xml</dc:format>
    <dc:creator>
     <cc:Agent>
      <dc:title>Matplotlib v3.5.2, https://matplotlib.org/</dc:title>
     </cc:Agent>
    </dc:creator>
   </cc:Work>
  </rdf:RDF>
 </metadata>
 <defs>
  <style type="text/css">*{stroke-linejoin: round; stroke-linecap: butt}</style>
 </defs>
 <g id="figure_1">
  <g id="patch_1">
   <path d="M 0 36 
L 72 36 
L 72 0 
L 0 0 
z
" style="fill: #ffffff"/>
  </g>
  <g id="axes_1">
   <g id="patch_2">
    <path d="M 9 31.5 
L 64.8 31.5 
L 64.8 4.32 
L 9 4.32 
z
" style="fill: #ffffff"/>
   </g>
   <g id="matplotlib.axis_1">
    <g id="xtick_1">
     <g id="line2d_1">
      <defs>
       <path id="m290a687cc5" d="M 0 0 
L 0 3.5 
" style="stroke: #000000; stroke-width: 0.8"/>
      </defs>
      <g>
       <use xlink:href="#m290a687cc5" x="10.625243" y="31.5" style="stroke: #000000; stroke-width: 0.8"/>
      </g>
     </g>
     <g id="text_1">
      <text style="font: 8px 'sans-serif'; text-anchor: middle" x="10.625243" y="44.57875" transform="rotate(-0, 10.625243, 44.57875)">0</text>
     </g>
    </g>
    <g id="xtick_2">
     <g id="line2d_2">
      <g>
       <use xlink:href="#m290a687cc5" x="37.712621" y="31.5" style="stroke: #000000; stroke-width: 0.8"/>
      </g>
     </g>
     <g id="text_2">
      <text style="font: 8px 'sans-serif'; text-anchor: middle" x="37.712621" y="44.57875" transform="rotate(-0, 37.712621, 44.57875)">5</text>
     </g>
    </g>
    <g id="xtick_3">
     <g id="line2d_3">
      <g>
       <use xlink:href="#m290a687cc5" x="64.8" y="31.5" style="stroke: #000000; stroke-width: 0.8"/>
      </g>
     </g>
     <g id="text_3">
      <text style="font: 8px 'sans-serif'; text-anchor: middle" x="64.8" y="44.57875" transform="rotate(-0, 64.8, 44.57875)">10</text>
     </g>
    </g>
    <g id="text_4">
     <!-- $x$ -->
     <g transform="translate(34.5 56.32125)">
      <text>
       <tspan style="font: oblique 8px 'DejaVu Sans'" x="0" y="-0.625">x</tspan>
      </text>
     </g>
    </g>
   </g>
   <g id="matplotlib.axis_2">
    <g id="ytick_1">
     <g id="line2d_4">
      <defs>
       <path id="mcc6a3f0896" d="M 0 0 
L -3.5 0 
" style="stroke: #000000; stroke-width: 0.8"/>
      </defs>
      <g>
       <use xlink:href="#mcc6a3f0896" x="9" y="31.5" style="stroke: #000000; stroke-width: 0.8"/>
      </g>
     </g>
     <g id="text_5">
      <text style="font: 8px 'sans-serif'; text-anchor: end" x="2" y="34.539375" transform="rotate(-0, 2, 34.539375)">0.0</text>
     </g>
    </g>
    <g id="ytick_2">
     <g id="line2d_5">
      <g>
       <use xlink:href="#mcc6a3f0896" x="9" y="17.91" style="stroke: #000000; stroke-width: 0.8"/>
      </g>
     </g>
     <g id="text_6">
      <text style="font: 8px 'sans-serif'; text-anchor: end" x="2" y="20.949375" transform="rotate(-0, 2, 20.949375)">2.5</text>
     </g>
    </g>
    <g id="ytick_3">
     <g id="line2d_6">
      <g>
       <use xlink:href="#mcc6a3f0896" x="9" y="4.32" style="stroke: #000000; stroke-width: 0.8"/>
      </g>
     </g>
     <g id="text_7">
      <text style="font: 8px 'sans-serif'; text-anchor: end" x="2" y="7.359375" transform="rotate(-0, 2, 7.359375)">5.0</text>
     </g>
    </g>
    <g id="text_8">
     <!-- $h(x)$ -->
     <g transform="translate(-16.38625 25.95)rotate(-90)">
      <text>
       <tspan style="font: oblique 8px 'DejaVu Sans'" x="0 8.191406" y="-0.921875">hx</tspan>
       <tspan style="font: 8px 'DejaVu Sans'" x="5.070312 12.925781" y="-0.921875">()</tspan>
      </text>
     </g>
    </g>
   </g>
   <g id="line2d_7">
    <path d="M 10.625243 4.314645 
L 11.16699 6.90062 
L 11.708738 9.240395 
L 12.250485 11.35739 
L 12.792233 13.27279 
L 13.333981 15.005766 
L 13.875728 16.573662 
L 14.417476 17.992171 
L 14.959223 19.275489 
L 15.500971 20.436459 
L 16.042718 21.486702 
L 16.584466 22.436729 
L 17.126214 23.296047 
L 17.667961 24.073257 
L 18.209709 24.776138 
L 18.751456 25.411725 
L 19.293204 25.986378 
L 19.834951 26.505848 
L 20.376699 26.975336 
L 20.918447 27.399539 
L 21.460194 27.782703 
L 22.001942 28.128664 
L 22.543689 28.440883 
L 23.085437 28.722485 
L 23.627184 28.976289 
L 24.168932 29.204835 
L 24.71068 29.41041 
L 25.252427 29.595072 
L 25.794175 29.760668 
L 26.335922 29.908857 
L 26.87767 30.041121 
L 27.419417 30.158784 
L 27.961165 30.263024 
L 28.502913 30.354884 
L 29.04466 30.435283 
L 29.586408 30.505026 
L 30.128155 30.56481 
L 30.669903 30.615236 
L 31.21165 30.656806 
L 31.753398 30.689937 
L 32.295146 30.714961 
L 32.836893 30.732128 
L 33.378641 30.74161 
L 33.920388 30.743501 
L 34.462136 30.737821 
L 35.003883 30.724513 
L 35.545631 30.703444 
L 36.087379 30.674403 
L 36.629126 30.637099 
L 37.170874 30.591158 
L 37.712621 30.536122 
L 38.254369 30.471438 
L 38.796117 30.396461 
L 39.337864 30.310439 
L 39.879612 30.212511 
L 40.421359 30.101699 
L 40.963107 29.976892 
L 41.504854 29.836844 
L 42.046602 29.680157 
L 42.58835 29.50527 
L 43.130097 29.310453 
L 43.671845 29.093799 
L 44.213592 28.853229 
L 44.75534 28.586516 
L 45.297087 28.291338 
L 45.838835 27.965383 
L 46.380583 27.606529 
L 46.92233 27.213112 
L 47.464078 26.784323 
L 48.005825 26.320714 
L 48.547573 25.824817 
L 49.08932 25.301787 
L 49.631068 24.759996 
L 50.172816 24.211407 
L 50.714563 23.671591 
L 51.256311 23.159225 
L 51.798058 22.695027 
L 52.339806 22.300123 
L 52.881553 21.99405 
L 53.423301 21.792638 
L 53.965049 21.706142 
L 54.506796 21.737951 
L 55.048544 21.884128 
L 55.590291 22.133866 
L 56.132039 22.47077 
L 56.673786 22.874726 
L 57.215534 23.324 
L 57.757282 23.797247 
L 58.299029 24.275121 
L 58.840777 24.741344 
L 59.382524 25.183198 
L 59.924272 25.591497 
L 60.466019 25.960209 
L 61.007767 26.285854 
L 61.549515 26.566846 
L 62.091262 26.80287 
L 62.63301 26.99436 
L 63.174757 27.142093 
L 63.716505 27.246904 
L 64.258252 27.309496 
L 64.8 27.330313 
" clip-path="url(#pa1e1f15e9c)" style="fill: none; stroke: #000000; stroke-width: 1.5; stroke-linecap: square"/>
   </g>
   <g id="LineCollection_1">
    <path d="M 53.965049 31.5 
L 53.965049 17.91 
" clip-path="url(#pa1e1f15e9c)" style="fill: none; stroke-dasharray: 5.55,2.4; stroke-dashoffset: 0; stroke: #d62728; stroke-width: 1.5"/>
   </g>
   <g id="LineCollection_2">
    <path d="M 10.625243 31.5 
L 10.625243 4.32 
" clip-path="url(#pa1e1f15e9c)" style="fill: none; stroke-dasharray: 5.55,2.4; stroke-dashoffset: 0; stroke: #1f77b4; stroke-width: 1.5"/>
   </g>
   <g id="patch_3">
    <path d="M 9 31.5 
L 9 4.32 
" style="fill: none; stroke: #000000; stroke-width: 0.8; stroke-linejoin: miter; stroke-linecap: square"/>
   </g>
   <g id="patch_4">
    <path d="M 9 31.5 
L 64.8 31.5 
" style="fill: none; stroke: #000000; stroke-width: 0.8; stroke-linejoin: miter; stroke-linecap: square"/>
   </g>
   <g id="text_9">
    <text style="font: 9.6px 'sans-serif'; text-anchor: middle" x="36.9" y="-1.68" transform="rotate(-0, 36.9, -1.68)">Subthreshold</text>
   </g>
   <g id="legend_1">
    <g id="line2d_8">
     <path d="M 16.2 8.09375 
L 32.2 8.09375 
" style="fill: none; stroke-dasharray: 5.55,2.4; stroke-dashoffset: 0; stroke: #d62728; stroke-width: 1.5"/>
    </g>
    <g id="text_10">
     <!-- $I_{d}$ -->
     <g transform="translate(38.6 10.89375)">
      <text>
       <tspan style="font: oblique 8px 'DejaVu Sans'" x="0" y="-0.171875">I</tspan>
       <tspan style="font: oblique 5.6px 'DejaVu Sans'" x="2.359375" y="1.140625">d</tspan>
      </text>
     </g>
    </g>
    <g id="line2d_9">
     <path d="M 16.2 19.83625 
L 32.2 19.83625 
" style="fill: none; stroke-dasharray: 5.55,2.4; stroke-dashoffset: 0; stroke: #1f77b4; stroke-width: 1.5"/>
    </g>
    <g id="text_11">
     <!-- $I_{s}$ -->
     <g transform="translate(38.6 22.63625)">
      <text>
       <tspan style="font: oblique 8px 'DejaVu Sans'" x="0" y="-0.171875">I</tspan>
       <tspan style="font: oblique 5.6px 'DejaVu Sans'" x="2.359375" y="1.140625">s</tspan>
      </text>
     </g>
    </g>
   </g>
  </g>
 </g>
 <defs>
  <clipPath id="pa1e1f15e9c">
   <rect x="9" y="4.32" width="55.8" height="27.18"/>
  </clipPath>
 </defs>
</svg>
