<?xml version="1.0" encoding="utf-8" standalone="no"?>
<!DOCTYPE svg PUBLIC "-//W3C//DTD SVG 1.1//EN"
  "http://www.w3.org/Graphics/SVG/1.1/DTD/svg11.dtd">
<svg xmlns:xlink="http://www.w3.org/1999/xlink" width="72pt" height="36pt" viewBox="0 0 72 36" xmlns="http://www.w3.org/2000/svg" version="1.1">
 <metadata>
  <rdf:RDF xmlns:dc="http://purl.org/dc/elements/1.1/" xmlns:cc="http://creativecommons.org/ns#" xmlns:rdf="http://www.w3.org/1999/02/22-rdf-syntax-ns#">
   <cc:Work>
    <dc:type rdf:resource="http://purl.org/dc/dcmitype/StillImage"/>
    <dc:date>2023-11-25T20:45:03.362458</dc:date>
    <dc:format>image/svg+xml</dc:format>
    <dc:creator>
     <cc:Agent>
      <dc:title>Matplotlib v3.5.2, https://matplotlib.org/</dc:title>
     </cc:Agent>
    </dc:creator>
   </cc:Work>
  </rdf:RDF>
 </metadata>
 <defs>
  <style type="text/css">*{stroke-linejoin: round; stroke-linecap: butt}</style>
 </defs>
 <g id="figure_1">
  <g id="patch_1">
   <path d="M 0 36 
L 72 36 
L 72 0 
L 0 0 
z
" style="fill: #ffffff"/>
  </g>
  <g id="axes_1">
   <g id="patch_2">
    <path d="M 9 31.5 
L 64.8 31.5 
L 64.8 4.32 
L 9 4.32 
z
" style="fill: #ffffff"/>
   </g>
   <g id="matplotlib.axis_1">
    <g id="xtick_1">
     <g id="line2d_1">
      <defs>
       <path id="m9bce6188f4" d="M 0 0 
L 0 3.5 
" style="stroke: #000000; stroke-width: 0.8"/>
      </defs>
      <g>
       <use xlink:href="#m9bce6188f4" x="10.625243" y="31.5" style="stroke: #000000; stroke-width: 0.8"/>
      </g>
     </g>
     <g id="text_1">
      <text style="font: 8px 'sans-serif'; text-anchor: middle" x="10.625243" y="44.57875" transform="rotate(-0, 10.625243, 44.57875)">0</text>
     </g>
    </g>
    <g id="xtick_2">
     <g id="line2d_2">
      <g>
       <use xlink:href="#m9bce6188f4" x="37.712621" y="31.5" style="stroke: #000000; stroke-width: 0.8"/>
      </g>
     </g>
     <g id="text_2">
      <text style="font: 8px 'sans-serif'; text-anchor: middle" x="37.712621" y="44.57875" transform="rotate(-0, 37.712621, 44.57875)">5</text>
     </g>
    </g>
    <g id="xtick_3">
     <g id="line2d_3">
      <g>
       <use xlink:href="#m9bce6188f4" x="64.8" y="31.5" style="stroke: #000000; stroke-width: 0.8"/>
      </g>
     </g>
     <g id="text_3">
      <text style="font: 8px 'sans-serif'; text-anchor: middle" x="64.8" y="44.57875" transform="rotate(-0, 64.8, 44.57875)">10</text>
     </g>
    </g>
    <g id="text_4">
     <!-- $x$ -->
     <g transform="translate(34.5 56.32125)">
      <text>
       <tspan style="font: oblique 8px 'DejaVu Sans'" x="0" y="-0.625">x</tspan>
      </text>
     </g>
    </g>
   </g>
   <g id="matplotlib.axis_2">
    <g id="ytick_1">
     <g id="line2d_4">
      <defs>
       <path id="mc83db6f6c9" d="M 0 0 
L -3.5 0 
" style="stroke: #000000; stroke-width: 0.8"/>
      </defs>
      <g>
       <use xlink:href="#mc83db6f6c9" x="9" y="31.5" style="stroke: #000000; stroke-width: 0.8"/>
      </g>
     </g>
     <g id="text_5">
      <text style="font: 8px 'sans-serif'; text-anchor: end" x="2" y="34.539375" transform="rotate(-0, 2, 34.539375)">0.0</text>
     </g>
    </g>
    <g id="ytick_2">
     <g id="line2d_5">
      <g>
       <use xlink:href="#mc83db6f6c9" x="9" y="17.91" style="stroke: #000000; stroke-width: 0.8"/>
      </g>
     </g>
     <g id="text_6">
      <text style="font: 8px 'sans-serif'; text-anchor: end" x="2" y="20.949375" transform="rotate(-0, 2, 20.949375)">2.5</text>
     </g>
    </g>
    <g id="ytick_3">
     <g id="line2d_6">
      <g>
       <use xlink:href="#mc83db6f6c9" x="9" y="4.32" style="stroke: #000000; stroke-width: 0.8"/>
      </g>
     </g>
     <g id="text_7">
      <text style="font: 8px 'sans-serif'; text-anchor: end" x="2" y="7.359375" transform="rotate(-0, 2, 7.359375)">5.0</text>
     </g>
    </g>
    <g id="text_8">
     <!-- $h(x)$ -->
     <g transform="translate(-16.38625 25.95)rotate(-90)">
      <text>
       <tspan style="font: oblique 8px 'DejaVu Sans'" x="0 8.191406" y="-0.921875">hx</tspan>
       <tspan style="font: 8px 'DejaVu Sans'" x="5.070312 12.925781" y="-0.921875">()</tspan>
      </text>
     </g>
    </g>
   </g>
   <g id="line2d_7">
    <path d="M 10.625243 4.21623 
L 11.16699 6.791836 
L 11.708738 9.120155 
L 12.250485 11.224488 
L 12.792233 13.125898 
L 13.333981 14.843413 
L 13.875728 16.394224 
L 14.417476 17.793851 
L 14.959223 19.056302 
L 15.500971 20.194212 
L 16.042718 21.218971 
L 16.584466 22.140833 
L 17.126214 22.969026 
L 17.667961 23.711837 
L 18.209709 24.376703 
L 18.751456 24.970276 
L 19.293204 25.498497 
L 19.834951 25.966653 
L 20.376699 26.37943 
L 20.918447 26.740958 
L 21.460194 27.054856 
L 22.001942 27.324265 
L 22.543689 27.551883 
L 23.085437 27.739986 
L 23.627184 27.890458 
L 24.168932 28.004805 
L 24.71068 28.084172 
L 25.252427 28.129354 
L 25.794175 28.140807 
L 26.335922 28.118655 
L 26.87767 28.062696 
L 27.419417 27.972411 
L 27.961165 27.846987 
L 28.502913 27.685348 
L 29.04466 27.486225 
L 29.586408 27.248269 
L 30.128155 26.970235 
L 30.669903 26.651271 
L 31.21165 26.291311 
L 31.753398 25.891598 
L 32.295146 25.455301 
L 32.836893 24.988174 
L 33.378641 24.499146 
L 33.920388 24.000711 
L 34.462136 23.508938 
L 35.003883 23.042989 
L 35.545631 22.624044 
L 36.087379 22.273682 
L 36.629126 22.011887 
L 37.170874 21.854932 
L 37.712621 21.813515 
L 38.254369 21.891479 
L 38.796117 22.085347 
L 39.337864 22.38479 
L 39.879612 22.773911 
L 40.421359 23.233116 
L 40.963107 23.741228 
L 41.504854 24.277488 
L 42.046602 24.823181 
L 42.58835 25.362709 
L 43.130097 25.884085 
L 43.671845 26.378923 
L 44.213592 26.842053 
L 44.75534 27.270943 
L 45.297087 27.665039 
L 45.838835 28.025158 
L 46.380583 28.352975 
L 46.92233 28.650633 
L 47.464078 28.920468 
L 48.005825 29.164832 
L 48.547573 29.385992 
L 49.08932 29.58607 
L 49.631068 29.767026 
L 50.172816 29.930653 
L 50.714563 30.07858 
L 51.256311 30.212282 
L 51.798058 30.333098 
L 52.339806 30.442235 
L 52.881553 30.540785 
L 53.423301 30.629736 
L 53.965049 30.709977 
L 54.506796 30.782311 
L 55.048544 30.847462 
L 55.590291 30.906082 
L 56.132039 30.958758 
L 56.673786 31.006017 
L 57.215534 31.048332 
L 57.757282 31.086127 
L 58.299029 31.119779 
L 58.840777 31.149627 
L 59.382524 31.175967 
L 59.924272 31.199065 
L 60.466019 31.21915 
L 61.007767 31.236425 
L 61.549515 31.251062 
L 62.091262 31.263207 
L 62.63301 31.272983 
L 63.174757 31.280486 
L 63.716505 31.285793 
L 64.258252 31.288955 
L 64.8 31.290005 
" clip-path="url(#p372dbdb379)" style="fill: none; stroke: #000000; stroke-width: 1.5; stroke-linecap: square"/>
   </g>
   <g id="LineCollection_1">
    <path d="M 53.965049 31.5 
L 53.965049 17.91 
" clip-path="url(#p372dbdb379)" style="fill: none; stroke-dasharray: 5.55,2.4; stroke-dashoffset: 0; stroke: #d62728; stroke-width: 1.5"/>
   </g>
   <g id="LineCollection_2">
    <path d="M 10.625243 31.5 
L 10.625243 4.32 
" clip-path="url(#p372dbdb379)" style="fill: none; stroke-dasharray: 5.55,2.4; stroke-dashoffset: 0; stroke: #1f77b4; stroke-width: 1.5"/>
   </g>
   <g id="patch_3">
    <path d="M 9 31.5 
L 9 4.32 
" style="fill: none; stroke: #000000; stroke-width: 0.8; stroke-linejoin: miter; stroke-linecap: square"/>
   </g>
   <g id="patch_4">
    <path d="M 9 31.5 
L 64.8 31.5 
" style="fill: none; stroke: #000000; stroke-width: 0.8; stroke-linejoin: miter; stroke-linecap: square"/>
   </g>
   <g id="text_9">
    <text style="font: 9.6px 'sans-serif'; text-anchor: middle" x="36.9" y="-1.68" transform="rotate(-0, 36.9, -1.68)">Subthreshold</text>
   </g>
   <g id="legend_1">
    <g id="line2d_8">
     <path d="M 29.04 8.09375 
L 45.04 8.09375 
" style="fill: none; stroke-dasharray: 5.55,2.4; stroke-dashoffset: 0; stroke: #d62728; stroke-width: 1.5"/>
    </g>
    <g id="text_10">
     <!-- $I_{d}$ -->
     <g transform="translate(51.44 10.89375)">
      <text>
       <tspan style="font: oblique 8px 'DejaVu Sans'" x="0" y="-0.171875">I</tspan>
       <tspan style="font: oblique 5.6px 'DejaVu Sans'" x="2.359375" y="1.140625">d</tspan>
      </text>
     </g>
    </g>
    <g id="line2d_9">
     <path d="M 29.04 19.83625 
L 45.04 19.83625 
" style="fill: none; stroke-dasharray: 5.55,2.4; stroke-dashoffset: 0; stroke: #1f77b4; stroke-width: 1.5"/>
    </g>
    <g id="text_11">
     <!-- $I_{s}$ -->
     <g transform="translate(51.44 22.63625)">
      <text>
       <tspan style="font: oblique 8px 'DejaVu Sans'" x="0" y="-0.171875">I</tspan>
       <tspan style="font: oblique 5.6px 'DejaVu Sans'" x="2.359375" y="1.140625">s</tspan>
      </text>
     </g>
    </g>
   </g>
  </g>
 </g>
 <defs>
  <clipPath id="p372dbdb379">
   <rect x="9" y="4.32" width="55.8" height="27.18"/>
  </clipPath>
 </defs>
</svg>
