<?xml version="1.0" encoding="utf-8" standalone="no"?>
<!DOCTYPE svg PUBLIC "-//W3C//DTD SVG 1.1//EN"
  "http://www.w3.org/Graphics/SVG/1.1/DTD/svg11.dtd">
<svg xmlns:xlink="http://www.w3.org/1999/xlink" width="432pt" height="108pt" viewBox="0 0 432 108" xmlns="http://www.w3.org/2000/svg" version="1.1">
 <metadata>
  <rdf:RDF xmlns:dc="http://purl.org/dc/elements/1.1/" xmlns:cc="http://creativecommons.org/ns#" xmlns:rdf="http://www.w3.org/1999/02/22-rdf-syntax-ns#">
   <cc:Work>
    <dc:type rdf:resource="http://purl.org/dc/dcmitype/StillImage"/>
    <dc:date>2023-11-26T15:22:03.213475</dc:date>
    <dc:format>image/svg+xml</dc:format>
    <dc:creator>
     <cc:Agent>
      <dc:title>Matplotlib v3.5.2, https://matplotlib.org/</dc:title>
     </cc:Agent>
    </dc:creator>
   </cc:Work>
  </rdf:RDF>
 </metadata>
 <defs>
  <style type="text/css">*{stroke-linejoin: round; stroke-linecap: butt}</style>
 </defs>
 <g id="figure_1">
  <g id="patch_1">
   <path d="M 0 108 
L 432 108 
L 432 0 
L 0 0 
z
" style="fill: #ffffff"/>
  </g>
  <g id="axes_1">
   <g id="patch_2">
    <path d="M 37.1 71.08 
L 200.298751 71.08 
L 200.298751 11.52 
L 37.1 11.52 
z
" style="fill: #ffffff"/>
   </g>
   <g id="matplotlib.axis_1">
    <g id="xtick_1">
     <g id="line2d_1">
      <defs>
       <path id="ma8d6ce8938" d="M 0 0 
L 0 3.5 
" style="stroke: #000000; stroke-width: 0.8"/>
      </defs>
      <g>
       <use xlink:href="#ma8d6ce8938" x="37.1" y="71.08" style="stroke: #000000; stroke-width: 0.8"/>
      </g>
     </g>
     <g id="text_1">
      <text style="font: 8px 'sans-serif'; text-anchor: middle" x="37.1" y="84.15875" transform="rotate(-0, 37.1, 84.15875)">0</text>
     </g>
    </g>
    <g id="xtick_2">
     <g id="line2d_2">
      <g>
       <use xlink:href="#ma8d6ce8938" x="117.891461" y="71.08" style="stroke: #000000; stroke-width: 0.8"/>
      </g>
     </g>
     <g id="text_2">
      <text style="font: 8px 'sans-serif'; text-anchor: middle" x="117.891461" y="84.15875" transform="rotate(-0, 117.891461, 84.15875)">500</text>
     </g>
    </g>
    <g id="xtick_3">
     <g id="line2d_3">
      <g>
       <use xlink:href="#ma8d6ce8938" x="198.682921" y="71.08" style="stroke: #000000; stroke-width: 0.8"/>
      </g>
     </g>
     <g id="text_3">
      <text style="font: 8px 'sans-serif'; text-anchor: middle" x="198.682921" y="84.15875" transform="rotate(-0, 198.682921, 84.15875)">1000</text>
     </g>
    </g>
    <g id="text_4">
     <!-- $I_{s}$ [pA] -->
     <g transform="translate(106.259375 95.9025)">
      <text>
       <tspan style="font: oblique 8px 'DejaVu Sans'" x="0" y="-0.921875">I</tspan>
       <tspan style="font: oblique 5.6px 'DejaVu Sans'" x="2.359375" y="0.390625">s</tspan>
       <tspan style="font: 8px 'DejaVu Sans'" x="5.495703 8.038672 11.159766 16.237891 21.710547" y="-0.921875"> [pA]</tspan>
      </text>
     </g>
    </g>
   </g>
   <g id="matplotlib.axis_2">
    <g id="ytick_1">
     <g id="line2d_4">
      <defs>
       <path id="m9ef4ec50c7" d="M 0 0 
L -3.5 0 
" style="stroke: #000000; stroke-width: 0.8"/>
      </defs>
      <g>
       <use xlink:href="#m9ef4ec50c7" x="37.1" y="47.602888" style="stroke: #000000; stroke-width: 0.8"/>
      </g>
     </g>
     <g id="text_5">
      <text style="font: 8px 'sans-serif'; text-anchor: end" x="30.1" y="50.642263" transform="rotate(-0, 30.1, 50.642263)">20</text>
     </g>
    </g>
    <g id="ytick_2">
     <g id="line2d_5">
      <g>
       <use xlink:href="#m9ef4ec50c7" x="37.1" y="21.695561" style="stroke: #000000; stroke-width: 0.8"/>
      </g>
     </g>
     <g id="text_6">
      <text style="font: 8px 'sans-serif'; text-anchor: end" x="30.1" y="24.734936" transform="rotate(-0, 30.1, 24.734936)">40</text>
     </g>
    </g>
    <g id="text_7">
     <text style="font: 8px 'sans-serif'; text-anchor: middle" x="14.25625" y="41.3" transform="rotate(-90, 14.25625, 41.3)">Frequency [Hz]</text>
    </g>
   </g>
   <g id="line2d_6">
    <defs>
     <path id="m3035955c74" d="M 0 1.5 
C 0.397805 1.5 0.77937 1.341951 1.06066 1.06066 
C 1.341951 0.77937 1.5 0.397805 1.5 0 
C 1.5 -0.397805 1.341951 -0.77937 1.06066 -1.06066 
C 0.77937 -1.341951 0.397805 -1.5 0 -1.5 
C -0.397805 -1.5 -0.77937 -1.341951 -1.06066 -1.06066 
C -1.341951 -0.77937 -1.5 -0.397805 -1.5 0 
C -1.5 0.397805 -1.341951 0.77937 -1.06066 1.06066 
C -0.77937 1.341951 -0.397805 1.5 0 1.5 
z
" style="stroke: #1f77b4"/>
    </defs>
    <g clip-path="url(#p50bcab8272)">
     <use xlink:href="#m3035955c74" x="77.49573" y="68.372727" style="fill: #1f77b4; stroke: #1f77b4"/>
     <use xlink:href="#m3035955c74" x="85.574876" y="64.652505" style="fill: #1f77b4; stroke: #1f77b4"/>
     <use xlink:href="#m3035955c74" x="93.654023" y="63.567529" style="fill: #1f77b4; stroke: #1f77b4"/>
     <use xlink:href="#m3035955c74" x="101.733169" y="57.041077" style="fill: #1f77b4; stroke: #1f77b4"/>
     <use xlink:href="#m3035955c74" x="109.812315" y="53.676201" style="fill: #1f77b4; stroke: #1f77b4"/>
     <use xlink:href="#m3035955c74" x="117.891461" y="55.040163" style="fill: #1f77b4; stroke: #1f77b4"/>
     <use xlink:href="#m3035955c74" x="125.970607" y="50.873544" style="fill: #1f77b4; stroke: #1f77b4"/>
     <use xlink:href="#m3035955c74" x="134.049753" y="50.1777" style="fill: #1f77b4; stroke: #1f77b4"/>
     <use xlink:href="#m3035955c74" x="142.128899" y="47.083847" style="fill: #1f77b4; stroke: #1f77b4"/>
     <use xlink:href="#m3035955c74" x="150.208045" y="41.800726" style="fill: #1f77b4; stroke: #1f77b4"/>
     <use xlink:href="#m3035955c74" x="158.287191" y="43.32479" style="fill: #1f77b4; stroke: #1f77b4"/>
     <use xlink:href="#m3035955c74" x="166.366337" y="36.296765" style="fill: #1f77b4; stroke: #1f77b4"/>
     <use xlink:href="#m3035955c74" x="174.445483" y="38.697537" style="fill: #1f77b4; stroke: #1f77b4"/>
     <use xlink:href="#m3035955c74" x="182.524629" y="36.952369" style="fill: #1f77b4; stroke: #1f77b4"/>
     <use xlink:href="#m3035955c74" x="190.603775" y="34.45868" style="fill: #1f77b4; stroke: #1f77b4"/>
     <use xlink:href="#m3035955c74" x="198.682921" y="31.871521" style="fill: #1f77b4; stroke: #1f77b4"/>
    </g>
   </g>
   <g id="line2d_7">
    <defs>
     <path id="m12827d1530" d="M 0 1.5 
C 0.397805 1.5 0.77937 1.341951 1.06066 1.06066 
C 1.341951 0.77937 1.5 0.397805 1.5 0 
C 1.5 -0.397805 1.341951 -0.77937 1.06066 -1.06066 
C 0.77937 -1.341951 0.397805 -1.5 0 -1.5 
C -0.397805 -1.5 -0.77937 -1.341951 -1.06066 -1.06066 
C -1.341951 -0.77937 -1.5 -0.397805 -1.5 0 
C -1.5 0.397805 -1.341951 0.77937 -1.06066 1.06066 
C -0.77937 1.341951 -0.397805 1.5 0 1.5 
z
" style="stroke: #ff7f0e"/>
    </defs>
    <g clip-path="url(#p50bcab8272)">
     <use xlink:href="#m12827d1530" x="93.654023" y="66.914184" style="fill: #ff7f0e; stroke: #ff7f0e"/>
     <use xlink:href="#m12827d1530" x="101.733169" y="67.837907" style="fill: #ff7f0e; stroke: #ff7f0e"/>
     <use xlink:href="#m12827d1530" x="109.812315" y="64.762576" style="fill: #ff7f0e; stroke: #ff7f0e"/>
     <use xlink:href="#m12827d1530" x="117.891461" y="60.483189" style="fill: #ff7f0e; stroke: #ff7f0e"/>
     <use xlink:href="#m12827d1530" x="125.970607" y="56.361563" style="fill: #ff7f0e; stroke: #ff7f0e"/>
     <use xlink:href="#m12827d1530" x="134.049753" y="54.06027" style="fill: #ff7f0e; stroke: #ff7f0e"/>
     <use xlink:href="#m12827d1530" x="142.128899" y="49.586506" style="fill: #ff7f0e; stroke: #ff7f0e"/>
     <use xlink:href="#m12827d1530" x="150.208045" y="45.622156" style="fill: #ff7f0e; stroke: #ff7f0e"/>
     <use xlink:href="#m12827d1530" x="158.287191" y="48.118949" style="fill: #ff7f0e; stroke: #ff7f0e"/>
     <use xlink:href="#m12827d1530" x="166.366337" y="44.1894" style="fill: #ff7f0e; stroke: #ff7f0e"/>
     <use xlink:href="#m12827d1530" x="174.445483" y="44.316511" style="fill: #ff7f0e; stroke: #ff7f0e"/>
     <use xlink:href="#m12827d1530" x="182.524629" y="39.859092" style="fill: #ff7f0e; stroke: #ff7f0e"/>
     <use xlink:href="#m12827d1530" x="190.603775" y="41.043162" style="fill: #ff7f0e; stroke: #ff7f0e"/>
     <use xlink:href="#m12827d1530" x="198.682921" y="39.10563" style="fill: #ff7f0e; stroke: #ff7f0e"/>
    </g>
   </g>
   <g id="line2d_8">
    <defs>
     <path id="m29a6182611" d="M 0 1.5 
C 0.397805 1.5 0.77937 1.341951 1.06066 1.06066 
C 1.341951 0.77937 1.5 0.397805 1.5 0 
C 1.5 -0.397805 1.341951 -0.77937 1.06066 -1.06066 
C 0.77937 -1.341951 0.397805 -1.5 0 -1.5 
C -0.397805 -1.5 -0.77937 -1.341951 -1.06066 -1.06066 
C -1.341951 -0.77937 -1.5 -0.397805 -1.5 0 
C -1.5 0.397805 -1.341951 0.77937 -1.06066 1.06066 
C -0.77937 1.341951 -0.397805 1.5 0 1.5 
z
" style="stroke: #2ca02c"/>
    </defs>
    <g clip-path="url(#p50bcab8272)">
     <use xlink:href="#m29a6182611" x="77.49573" y="66.939199" style="fill: #2ca02c; stroke: #2ca02c"/>
     <use xlink:href="#m29a6182611" x="85.574876" y="67.213879" style="fill: #2ca02c; stroke: #2ca02c"/>
     <use xlink:href="#m29a6182611" x="93.654023" y="61.614525" style="fill: #2ca02c; stroke: #2ca02c"/>
     <use xlink:href="#m29a6182611" x="101.733169" y="61.615208" style="fill: #2ca02c; stroke: #2ca02c"/>
     <use xlink:href="#m29a6182611" x="109.812315" y="54.703477" style="fill: #2ca02c; stroke: #2ca02c"/>
     <use xlink:href="#m29a6182611" x="117.891461" y="54.868756" style="fill: #2ca02c; stroke: #2ca02c"/>
     <use xlink:href="#m29a6182611" x="125.970607" y="45.30482" style="fill: #2ca02c; stroke: #2ca02c"/>
     <use xlink:href="#m29a6182611" x="134.049753" y="45.540285" style="fill: #2ca02c; stroke: #2ca02c"/>
     <use xlink:href="#m29a6182611" x="142.128899" y="37.902534" style="fill: #2ca02c; stroke: #2ca02c"/>
     <use xlink:href="#m29a6182611" x="150.208045" y="39.889287" style="fill: #2ca02c; stroke: #2ca02c"/>
     <use xlink:href="#m29a6182611" x="158.287191" y="33.381146" style="fill: #2ca02c; stroke: #2ca02c"/>
     <use xlink:href="#m29a6182611" x="166.366337" y="33.749817" style="fill: #2ca02c; stroke: #2ca02c"/>
     <use xlink:href="#m29a6182611" x="174.445483" y="29.583455" style="fill: #2ca02c; stroke: #2ca02c"/>
     <use xlink:href="#m29a6182611" x="182.524629" y="27.314082" style="fill: #2ca02c; stroke: #2ca02c"/>
     <use xlink:href="#m29a6182611" x="190.603775" y="24.225509" style="fill: #2ca02c; stroke: #2ca02c"/>
     <use xlink:href="#m29a6182611" x="198.682921" y="24.315675" style="fill: #2ca02c; stroke: #2ca02c"/>
    </g>
   </g>
   <g id="line2d_9">
    <defs>
     <path id="m94c666bb1b" d="M 0 1.5 
C 0.397805 1.5 0.77937 1.341951 1.06066 1.06066 
C 1.341951 0.77937 1.5 0.397805 1.5 0 
C 1.5 -0.397805 1.341951 -0.77937 1.06066 -1.06066 
C 0.77937 -1.341951 0.397805 -1.5 0 -1.5 
C -0.397805 -1.5 -0.77937 -1.341951 -1.06066 -1.06066 
C -1.341951 -0.77937 -1.5 -0.397805 -1.5 0 
C -1.5 0.397805 -1.341951 0.77937 -1.06066 1.06066 
C -0.77937 1.341951 -0.397805 1.5 0 1.5 
z
" style="stroke: #d62728"/>
    </defs>
    <g clip-path="url(#p50bcab8272)">
     <use xlink:href="#m94c666bb1b" x="53.258292" y="66.023167" style="fill: #d62728; stroke: #d62728"/>
     <use xlink:href="#m94c666bb1b" x="61.337438" y="61.503377" style="fill: #d62728; stroke: #d62728"/>
     <use xlink:href="#m94c666bb1b" x="69.416584" y="63.499104" style="fill: #d62728; stroke: #d62728"/>
     <use xlink:href="#m94c666bb1b" x="77.49573" y="57.632244" style="fill: #d62728; stroke: #d62728"/>
     <use xlink:href="#m94c666bb1b" x="85.574876" y="58.880392" style="fill: #d62728; stroke: #d62728"/>
     <use xlink:href="#m94c666bb1b" x="93.654023" y="52.406169" style="fill: #d62728; stroke: #d62728"/>
     <use xlink:href="#m94c666bb1b" x="101.733169" y="49.58903" style="fill: #d62728; stroke: #d62728"/>
     <use xlink:href="#m94c666bb1b" x="109.812315" y="49.158608" style="fill: #d62728; stroke: #d62728"/>
     <use xlink:href="#m94c666bb1b" x="117.891461" y="44.68006" style="fill: #d62728; stroke: #d62728"/>
     <use xlink:href="#m94c666bb1b" x="125.970607" y="38.376139" style="fill: #d62728; stroke: #d62728"/>
     <use xlink:href="#m94c666bb1b" x="134.049753" y="37.612192" style="fill: #d62728; stroke: #d62728"/>
     <use xlink:href="#m94c666bb1b" x="142.128899" y="33.096374" style="fill: #d62728; stroke: #d62728"/>
     <use xlink:href="#m94c666bb1b" x="150.208045" y="30.032427" style="fill: #d62728; stroke: #d62728"/>
     <use xlink:href="#m94c666bb1b" x="158.287191" y="25.014802" style="fill: #d62728; stroke: #d62728"/>
     <use xlink:href="#m94c666bb1b" x="166.366337" y="20.800853" style="fill: #d62728; stroke: #d62728"/>
     <use xlink:href="#m94c666bb1b" x="174.445483" y="19.174378" style="fill: #d62728; stroke: #d62728"/>
     <use xlink:href="#m94c666bb1b" x="182.524629" y="16.984654" style="fill: #d62728; stroke: #d62728"/>
     <use xlink:href="#m94c666bb1b" x="190.603775" y="14.227273" style="fill: #d62728; stroke: #d62728"/>
     <use xlink:href="#m94c666bb1b" x="198.682921" y="15.085614" style="fill: #d62728; stroke: #d62728"/>
    </g>
   </g>
   <g id="line2d_10">
    <defs>
     <path id="m40aff5ff73" d="M 0 1.75 
C 0.464105 1.75 0.909265 1.565609 1.237437 1.237437 
C 1.565609 0.909265 1.75 0.464105 1.75 0 
C 1.75 -0.464105 1.565609 -0.909265 1.237437 -1.237437 
C 0.909265 -1.565609 0.464105 -1.75 0 -1.75 
C -0.464105 -1.75 -0.909265 -1.565609 -1.237437 -1.237437 
C -1.565609 -0.909265 -1.75 -0.464105 -1.75 0 
C -1.75 0.464105 -1.565609 0.909265 -1.237437 1.237437 
C -0.909265 1.565609 -0.464105 1.75 0 1.75 
z
" style="stroke: #000000"/>
    </defs>
    <g clip-path="url(#p50bcab8272)">
     <use xlink:href="#m40aff5ff73" x="53.258292" y="66.023167" style="fill-opacity: 0; stroke: #000000"/>
     <use xlink:href="#m40aff5ff73" x="61.337438" y="61.503377" style="fill-opacity: 0; stroke: #000000"/>
     <use xlink:href="#m40aff5ff73" x="69.416584" y="63.499104" style="fill-opacity: 0; stroke: #000000"/>
     <use xlink:href="#m40aff5ff73" x="77.49573" y="64.314724" style="fill-opacity: 0; stroke: #000000"/>
     <use xlink:href="#m40aff5ff73" x="85.574876" y="63.582259" style="fill-opacity: 0; stroke: #000000"/>
     <use xlink:href="#m40aff5ff73" x="93.654023" y="61.125602" style="fill-opacity: 0; stroke: #000000"/>
     <use xlink:href="#m40aff5ff73" x="101.733169" y="59.020805" style="fill-opacity: 0; stroke: #000000"/>
     <use xlink:href="#m40aff5ff73" x="109.812315" y="55.575216" style="fill-opacity: 0; stroke: #000000"/>
     <use xlink:href="#m40aff5ff73" x="117.891461" y="53.768042" style="fill-opacity: 0; stroke: #000000"/>
     <use xlink:href="#m40aff5ff73" x="125.970607" y="47.729017" style="fill-opacity: 0; stroke: #000000"/>
     <use xlink:href="#m40aff5ff73" x="134.049753" y="46.847612" style="fill-opacity: 0; stroke: #000000"/>
     <use xlink:href="#m40aff5ff73" x="142.128899" y="41.917315" style="fill-opacity: 0; stroke: #000000"/>
     <use xlink:href="#m40aff5ff73" x="150.208045" y="39.336149" style="fill-opacity: 0; stroke: #000000"/>
     <use xlink:href="#m40aff5ff73" x="158.287191" y="37.459922" style="fill-opacity: 0; stroke: #000000"/>
     <use xlink:href="#m40aff5ff73" x="166.366337" y="33.759209" style="fill-opacity: 0; stroke: #000000"/>
     <use xlink:href="#m40aff5ff73" x="174.445483" y="32.94297" style="fill-opacity: 0; stroke: #000000"/>
     <use xlink:href="#m40aff5ff73" x="182.524629" y="30.277549" style="fill-opacity: 0; stroke: #000000"/>
     <use xlink:href="#m40aff5ff73" x="190.603775" y="28.488656" style="fill-opacity: 0; stroke: #000000"/>
     <use xlink:href="#m40aff5ff73" x="198.682921" y="27.59461" style="fill-opacity: 0; stroke: #000000"/>
    </g>
   </g>
   <g id="LineCollection_1">
    <path clip-path="url(#p50bcab8272)" style="fill: none; stroke: #000000; stroke-width: 1.5"/>
    <path clip-path="url(#p50bcab8272)" style="fill: none; stroke: #000000; stroke-width: 1.5"/>
    <path d="M 53.258292 66.023167 
L 53.258292 66.023167 
" clip-path="url(#p50bcab8272)" style="fill: none; stroke: #000000; stroke-width: 1.5"/>
    <path d="M 61.337438 61.503377 
L 61.337438 61.503377 
" clip-path="url(#p50bcab8272)" style="fill: none; stroke: #000000; stroke-width: 1.5"/>
    <path d="M 69.416584 63.499104 
L 69.416584 63.499104 
" clip-path="url(#p50bcab8272)" style="fill: none; stroke: #000000; stroke-width: 1.5"/>
    <path d="M 77.49573 66.695389 
L 77.49573 61.934058 
" clip-path="url(#p50bcab8272)" style="fill: none; stroke: #000000; stroke-width: 1.5"/>
    <path d="M 85.574876 65.324901 
L 85.574876 61.839616 
" clip-path="url(#p50bcab8272)" style="fill: none; stroke: #000000; stroke-width: 1.5"/>
    <path d="M 93.654023 63.815145 
L 93.654023 58.436059 
" clip-path="url(#p50bcab8272)" style="fill: none; stroke: #000000; stroke-width: 1.5"/>
    <path d="M 101.733169 62.350125 
L 101.733169 55.691486 
" clip-path="url(#p50bcab8272)" style="fill: none; stroke: #000000; stroke-width: 1.5"/>
    <path d="M 109.812315 58.425069 
L 109.812315 52.725362 
" clip-path="url(#p50bcab8272)" style="fill: none; stroke: #000000; stroke-width: 1.5"/>
    <path d="M 117.891461 56.624115 
L 117.891461 50.911968 
" clip-path="url(#p50bcab8272)" style="fill: none; stroke: #000000; stroke-width: 1.5"/>
    <path d="M 125.970607 51.062202 
L 125.970607 44.395832 
" clip-path="url(#p50bcab8272)" style="fill: none; stroke: #000000; stroke-width: 1.5"/>
    <path d="M 134.049753 49.910637 
L 134.049753 43.784586 
" clip-path="url(#p50bcab8272)" style="fill: none; stroke: #000000; stroke-width: 1.5"/>
    <path d="M 142.128899 45.266168 
L 142.128899 38.568463 
" clip-path="url(#p50bcab8272)" style="fill: none; stroke: #000000; stroke-width: 1.5"/>
    <path d="M 150.208045 42.213357 
L 150.208045 36.458941 
" clip-path="url(#p50bcab8272)" style="fill: none; stroke: #000000; stroke-width: 1.5"/>
    <path d="M 158.287191 41.928765 
L 158.287191 32.991079 
" clip-path="url(#p50bcab8272)" style="fill: none; stroke: #000000; stroke-width: 1.5"/>
    <path d="M 166.366337 37.965953 
L 166.366337 29.552465 
" clip-path="url(#p50bcab8272)" style="fill: none; stroke: #000000; stroke-width: 1.5"/>
    <path d="M 174.445483 37.708294 
L 174.445483 28.177647 
" clip-path="url(#p50bcab8272)" style="fill: none; stroke: #000000; stroke-width: 1.5"/>
    <path d="M 182.524629 34.762541 
L 182.524629 25.792558 
" clip-path="url(#p50bcab8272)" style="fill: none; stroke: #000000; stroke-width: 1.5"/>
    <path d="M 190.603775 33.580428 
L 190.603775 23.396884 
" clip-path="url(#p50bcab8272)" style="fill: none; stroke: #000000; stroke-width: 1.5"/>
    <path d="M 198.682921 32.052902 
L 198.682921 23.136318 
" clip-path="url(#p50bcab8272)" style="fill: none; stroke: #000000; stroke-width: 1.5"/>
   </g>
   <g id="patch_3">
    <path d="M 37.1 71.08 
L 37.1 11.52 
" style="fill: none; stroke: #000000; stroke-width: 0.8; stroke-linejoin: miter; stroke-linecap: square"/>
   </g>
   <g id="patch_4">
    <path d="M 37.1 71.08 
L 200.298751 71.08 
" style="fill: none; stroke: #000000; stroke-width: 0.8; stroke-linejoin: miter; stroke-linecap: square"/>
   </g>
  </g>
  <g id="axes_2">
   <g id="patch_5">
    <path d="M 251.408 71.08 
L 414.606751 71.08 
L 414.606751 11.52 
L 251.408 11.52 
z
" style="fill: #ffffff"/>
   </g>
   <g id="matplotlib.axis_3">
    <g id="xtick_4">
     <g id="line2d_11">
      <g>
       <use xlink:href="#ma8d6ce8938" x="251.408" y="71.08" style="stroke: #000000; stroke-width: 0.8"/>
      </g>
     </g>
     <g id="text_8">
      <text style="font: 8px 'sans-serif'; text-anchor: middle" x="251.408" y="84.15875" transform="rotate(-0, 251.408, 84.15875)">0</text>
     </g>
    </g>
    <g id="xtick_5">
     <g id="line2d_12">
      <g>
       <use xlink:href="#ma8d6ce8938" x="332.199461" y="71.08" style="stroke: #000000; stroke-width: 0.8"/>
      </g>
     </g>
     <g id="text_9">
      <text style="font: 8px 'sans-serif'; text-anchor: middle" x="332.199461" y="84.15875" transform="rotate(-0, 332.199461, 84.15875)">500</text>
     </g>
    </g>
    <g id="xtick_6">
     <g id="line2d_13">
      <g>
       <use xlink:href="#ma8d6ce8938" x="412.990921" y="71.08" style="stroke: #000000; stroke-width: 0.8"/>
      </g>
     </g>
     <g id="text_10">
      <text style="font: 8px 'sans-serif'; text-anchor: middle" x="412.990921" y="84.15875" transform="rotate(-0, 412.990921, 84.15875)">1000</text>
     </g>
    </g>
    <g id="text_11">
     <!-- $I_{s}$ [pA] -->
     <g transform="translate(320.567375 95.9025)">
      <text>
       <tspan style="font: oblique 8px 'DejaVu Sans'" x="0" y="-0.921875">I</tspan>
       <tspan style="font: oblique 5.6px 'DejaVu Sans'" x="2.359375" y="0.390625">s</tspan>
       <tspan style="font: 8px 'DejaVu Sans'" x="5.495703 8.038672 11.159766 16.237891 21.710547" y="-0.921875"> [pA]</tspan>
      </text>
     </g>
    </g>
   </g>
   <g id="matplotlib.axis_4">
    <g id="ytick_3">
     <g id="line2d_14">
      <g>
       <use xlink:href="#m9ef4ec50c7" x="251.408" y="71.08" style="stroke: #000000; stroke-width: 0.8"/>
      </g>
     </g>
     <g id="text_12">
      <text style="font: 8px 'sans-serif'; text-anchor: end" x="244.408" y="74.119375" transform="rotate(-0, 244.408, 74.119375)">0.0</text>
     </g>
    </g>
    <g id="ytick_4">
     <g id="line2d_15">
      <g>
       <use xlink:href="#m9ef4ec50c7" x="251.408" y="51.226667" style="stroke: #000000; stroke-width: 0.8"/>
      </g>
     </g>
     <g id="text_13">
      <text style="font: 8px 'sans-serif'; text-anchor: end" x="244.408" y="54.266042" transform="rotate(-0, 244.408, 54.266042)">0.5</text>
     </g>
    </g>
    <g id="ytick_5">
     <g id="line2d_16">
      <g>
       <use xlink:href="#m9ef4ec50c7" x="251.408" y="31.373333" style="stroke: #000000; stroke-width: 0.8"/>
      </g>
     </g>
     <g id="text_14">
      <text style="font: 8px 'sans-serif'; text-anchor: end" x="244.408" y="34.412708" transform="rotate(-0, 244.408, 34.412708)">1.0</text>
     </g>
    </g>
    <g id="ytick_6">
     <g id="line2d_17">
      <g>
       <use xlink:href="#m9ef4ec50c7" x="251.408" y="11.52" style="stroke: #000000; stroke-width: 0.8"/>
      </g>
     </g>
     <g id="text_15">
      <text style="font: 8px 'sans-serif'; text-anchor: end" x="244.408" y="14.559375" transform="rotate(-0, 244.408, 14.559375)">1.5</text>
     </g>
    </g>
    <g id="text_16">
     <!-- $C_{v}$ -->
     <g transform="translate(226.02175 45.86)rotate(-90)">
      <text>
       <tspan style="font: oblique 8px 'DejaVu Sans'" x="0" y="-0.0625">C</tspan>
       <tspan style="font: oblique 5.6px 'DejaVu Sans'" x="5.585938" y="1.25">v</tspan>
      </text>
     </g>
    </g>
   </g>
   <g id="line2d_18">
    <g clip-path="url(#pd60c951cd3)">
     <use xlink:href="#m3035955c74" x="291.80373" y="50.746054" style="fill: #1f77b4; stroke: #1f77b4"/>
     <use xlink:href="#m3035955c74" x="299.882876" y="39.610047" style="fill: #1f77b4; stroke: #1f77b4"/>
     <use xlink:href="#m3035955c74" x="307.962023" y="54.28181" style="fill: #1f77b4; stroke: #1f77b4"/>
     <use xlink:href="#m3035955c74" x="316.041169" y="50.48093" style="fill: #1f77b4; stroke: #1f77b4"/>
     <use xlink:href="#m3035955c74" x="324.120315" y="46.929372" style="fill: #1f77b4; stroke: #1f77b4"/>
     <use xlink:href="#m3035955c74" x="332.199461" y="48.933781" style="fill: #1f77b4; stroke: #1f77b4"/>
     <use xlink:href="#m3035955c74" x="340.278607" y="41.867771" style="fill: #1f77b4; stroke: #1f77b4"/>
     <use xlink:href="#m3035955c74" x="348.357753" y="46.4459" style="fill: #1f77b4; stroke: #1f77b4"/>
     <use xlink:href="#m3035955c74" x="356.436899" y="50.712438" style="fill: #1f77b4; stroke: #1f77b4"/>
     <use xlink:href="#m3035955c74" x="364.516045" y="41.355398" style="fill: #1f77b4; stroke: #1f77b4"/>
     <use xlink:href="#m3035955c74" x="372.595191" y="46.372204" style="fill: #1f77b4; stroke: #1f77b4"/>
     <use xlink:href="#m3035955c74" x="380.674337" y="47.130788" style="fill: #1f77b4; stroke: #1f77b4"/>
     <use xlink:href="#m3035955c74" x="388.753483" y="45.047953" style="fill: #1f77b4; stroke: #1f77b4"/>
     <use xlink:href="#m3035955c74" x="396.832629" y="44.507506" style="fill: #1f77b4; stroke: #1f77b4"/>
     <use xlink:href="#m3035955c74" x="404.911775" y="48.682848" style="fill: #1f77b4; stroke: #1f77b4"/>
     <use xlink:href="#m3035955c74" x="412.990921" y="45.034472" style="fill: #1f77b4; stroke: #1f77b4"/>
    </g>
   </g>
   <g id="line2d_19">
    <g clip-path="url(#pd60c951cd3)">
     <use xlink:href="#m12827d1530" x="307.962023" y="51.79087" style="fill: #ff7f0e; stroke: #ff7f0e"/>
     <use xlink:href="#m12827d1530" x="316.041169" y="54.5892" style="fill: #ff7f0e; stroke: #ff7f0e"/>
     <use xlink:href="#m12827d1530" x="324.120315" y="50.432995" style="fill: #ff7f0e; stroke: #ff7f0e"/>
     <use xlink:href="#m12827d1530" x="332.199461" y="47.427138" style="fill: #ff7f0e; stroke: #ff7f0e"/>
     <use xlink:href="#m12827d1530" x="340.278607" y="48.1422" style="fill: #ff7f0e; stroke: #ff7f0e"/>
     <use xlink:href="#m12827d1530" x="348.357753" y="49.63235" style="fill: #ff7f0e; stroke: #ff7f0e"/>
     <use xlink:href="#m12827d1530" x="356.436899" y="46.250653" style="fill: #ff7f0e; stroke: #ff7f0e"/>
     <use xlink:href="#m12827d1530" x="364.516045" y="44.772542" style="fill: #ff7f0e; stroke: #ff7f0e"/>
     <use xlink:href="#m12827d1530" x="372.595191" y="50.674244" style="fill: #ff7f0e; stroke: #ff7f0e"/>
     <use xlink:href="#m12827d1530" x="380.674337" y="51.538834" style="fill: #ff7f0e; stroke: #ff7f0e"/>
     <use xlink:href="#m12827d1530" x="388.753483" y="51.142803" style="fill: #ff7f0e; stroke: #ff7f0e"/>
     <use xlink:href="#m12827d1530" x="396.832629" y="47.601344" style="fill: #ff7f0e; stroke: #ff7f0e"/>
     <use xlink:href="#m12827d1530" x="404.911775" y="49.498109" style="fill: #ff7f0e; stroke: #ff7f0e"/>
     <use xlink:href="#m12827d1530" x="412.990921" y="47.854959" style="fill: #ff7f0e; stroke: #ff7f0e"/>
    </g>
   </g>
   <g id="line2d_20">
    <g clip-path="url(#pd60c951cd3)">
     <use xlink:href="#m29a6182611" x="291.80373" y="55.500413" style="fill: #2ca02c; stroke: #2ca02c"/>
     <use xlink:href="#m29a6182611" x="299.882876" y="46.471068" style="fill: #2ca02c; stroke: #2ca02c"/>
     <use xlink:href="#m29a6182611" x="307.962023" y="49.21173" style="fill: #2ca02c; stroke: #2ca02c"/>
     <use xlink:href="#m29a6182611" x="316.041169" y="42.148711" style="fill: #2ca02c; stroke: #2ca02c"/>
     <use xlink:href="#m29a6182611" x="324.120315" y="45.393107" style="fill: #2ca02c; stroke: #2ca02c"/>
     <use xlink:href="#m29a6182611" x="332.199461" y="46.57438" style="fill: #2ca02c; stroke: #2ca02c"/>
     <use xlink:href="#m29a6182611" x="340.278607" y="45.217114" style="fill: #2ca02c; stroke: #2ca02c"/>
     <use xlink:href="#m29a6182611" x="348.357753" y="45.722315" style="fill: #2ca02c; stroke: #2ca02c"/>
     <use xlink:href="#m29a6182611" x="356.436899" y="42.603593" style="fill: #2ca02c; stroke: #2ca02c"/>
     <use xlink:href="#m29a6182611" x="364.516045" y="48.477994" style="fill: #2ca02c; stroke: #2ca02c"/>
     <use xlink:href="#m29a6182611" x="372.595191" y="47.407504" style="fill: #2ca02c; stroke: #2ca02c"/>
     <use xlink:href="#m29a6182611" x="380.674337" y="46.972641" style="fill: #2ca02c; stroke: #2ca02c"/>
     <use xlink:href="#m29a6182611" x="388.753483" y="48.623463" style="fill: #2ca02c; stroke: #2ca02c"/>
     <use xlink:href="#m29a6182611" x="396.832629" y="47.463724" style="fill: #2ca02c; stroke: #2ca02c"/>
     <use xlink:href="#m29a6182611" x="404.911775" y="47.520987" style="fill: #2ca02c; stroke: #2ca02c"/>
     <use xlink:href="#m29a6182611" x="412.990921" y="52.148286" style="fill: #2ca02c; stroke: #2ca02c"/>
    </g>
   </g>
   <g id="line2d_21">
    <g clip-path="url(#pd60c951cd3)">
     <use xlink:href="#m94c666bb1b" x="267.566292" y="45.977127" style="fill: #d62728; stroke: #d62728"/>
     <use xlink:href="#m94c666bb1b" x="275.645438" y="51.638697" style="fill: #d62728; stroke: #d62728"/>
     <use xlink:href="#m94c666bb1b" x="283.724584" y="50.374231" style="fill: #d62728; stroke: #d62728"/>
     <use xlink:href="#m94c666bb1b" x="291.80373" y="49.129555" style="fill: #d62728; stroke: #d62728"/>
     <use xlink:href="#m94c666bb1b" x="299.882876" y="57.289516" style="fill: #d62728; stroke: #d62728"/>
     <use xlink:href="#m94c666bb1b" x="307.962023" y="49.226984" style="fill: #d62728; stroke: #d62728"/>
     <use xlink:href="#m94c666bb1b" x="316.041169" y="51.650654" style="fill: #d62728; stroke: #d62728"/>
     <use xlink:href="#m94c666bb1b" x="324.120315" y="52.779362" style="fill: #d62728; stroke: #d62728"/>
     <use xlink:href="#m94c666bb1b" x="332.199461" y="52.545353" style="fill: #d62728; stroke: #d62728"/>
     <use xlink:href="#m94c666bb1b" x="340.278607" y="44.864306" style="fill: #d62728; stroke: #d62728"/>
     <use xlink:href="#m94c666bb1b" x="348.357753" y="46.708599" style="fill: #d62728; stroke: #d62728"/>
     <use xlink:href="#m94c666bb1b" x="356.436899" y="51.057732" style="fill: #d62728; stroke: #d62728"/>
     <use xlink:href="#m94c666bb1b" x="364.516045" y="48.624136" style="fill: #d62728; stroke: #d62728"/>
     <use xlink:href="#m94c666bb1b" x="372.595191" y="50.065187" style="fill: #d62728; stroke: #d62728"/>
     <use xlink:href="#m94c666bb1b" x="380.674337" y="48.353102" style="fill: #d62728; stroke: #d62728"/>
     <use xlink:href="#m94c666bb1b" x="388.753483" y="48.302837" style="fill: #d62728; stroke: #d62728"/>
     <use xlink:href="#m94c666bb1b" x="396.832629" y="46.810171" style="fill: #d62728; stroke: #d62728"/>
     <use xlink:href="#m94c666bb1b" x="404.911775" y="46.520021" style="fill: #d62728; stroke: #d62728"/>
     <use xlink:href="#m94c666bb1b" x="412.990921" y="48.103786" style="fill: #d62728; stroke: #d62728"/>
    </g>
   </g>
   <g id="line2d_22">
    <g clip-path="url(#pd60c951cd3)">
     <use xlink:href="#m40aff5ff73" x="267.566292" y="45.977127" style="fill-opacity: 0; stroke: #000000"/>
     <use xlink:href="#m40aff5ff73" x="275.645438" y="51.638697" style="fill-opacity: 0; stroke: #000000"/>
     <use xlink:href="#m40aff5ff73" x="283.724584" y="50.374231" style="fill-opacity: 0; stroke: #000000"/>
     <use xlink:href="#m40aff5ff73" x="291.80373" y="51.792008" style="fill-opacity: 0; stroke: #000000"/>
     <use xlink:href="#m40aff5ff73" x="299.882876" y="47.79021" style="fill-opacity: 0; stroke: #000000"/>
     <use xlink:href="#m40aff5ff73" x="307.962023" y="51.127848" style="fill-opacity: 0; stroke: #000000"/>
     <use xlink:href="#m40aff5ff73" x="316.041169" y="49.717373" style="fill-opacity: 0; stroke: #000000"/>
     <use xlink:href="#m40aff5ff73" x="324.120315" y="48.883709" style="fill-opacity: 0; stroke: #000000"/>
     <use xlink:href="#m40aff5ff73" x="332.199461" y="48.870163" style="fill-opacity: 0; stroke: #000000"/>
     <use xlink:href="#m40aff5ff73" x="340.278607" y="45.022848" style="fill-opacity: 0; stroke: #000000"/>
     <use xlink:href="#m40aff5ff73" x="348.357753" y="47.127291" style="fill-opacity: 0; stroke: #000000"/>
     <use xlink:href="#m40aff5ff73" x="356.436899" y="47.656104" style="fill-opacity: 0; stroke: #000000"/>
     <use xlink:href="#m40aff5ff73" x="364.516045" y="45.807518" style="fill-opacity: 0; stroke: #000000"/>
     <use xlink:href="#m40aff5ff73" x="372.595191" y="48.629785" style="fill-opacity: 0; stroke: #000000"/>
     <use xlink:href="#m40aff5ff73" x="380.674337" y="48.498841" style="fill-opacity: 0; stroke: #000000"/>
     <use xlink:href="#m40aff5ff73" x="388.753483" y="48.279264" style="fill-opacity: 0; stroke: #000000"/>
     <use xlink:href="#m40aff5ff73" x="396.832629" y="46.595686" style="fill-opacity: 0; stroke: #000000"/>
     <use xlink:href="#m40aff5ff73" x="404.911775" y="48.055491" style="fill-opacity: 0; stroke: #000000"/>
     <use xlink:href="#m40aff5ff73" x="412.990921" y="48.285376" style="fill-opacity: 0; stroke: #000000"/>
    </g>
   </g>
   <g id="LineCollection_2">
    <path clip-path="url(#pd60c951cd3)" style="fill: none; stroke: #000000; stroke-width: 1.5"/>
    <path clip-path="url(#pd60c951cd3)" style="fill: none; stroke: #000000; stroke-width: 1.5"/>
    <path d="M 267.566292 45.977127 
L 267.566292 45.977127 
" clip-path="url(#pd60c951cd3)" style="fill: none; stroke: #000000; stroke-width: 1.5"/>
    <path d="M 275.645438 51.638697 
L 275.645438 51.638697 
" clip-path="url(#pd60c951cd3)" style="fill: none; stroke: #000000; stroke-width: 1.5"/>
    <path d="M 283.724584 50.374231 
L 283.724584 50.374231 
" clip-path="url(#pd60c951cd3)" style="fill: none; stroke: #000000; stroke-width: 1.5"/>
    <path d="M 291.80373 53.144011 
L 291.80373 50.440005 
" clip-path="url(#pd60c951cd3)" style="fill: none; stroke: #000000; stroke-width: 1.5"/>
    <path d="M 299.882876 51.429029 
L 299.882876 44.151392 
" clip-path="url(#pd60c951cd3)" style="fill: none; stroke: #000000; stroke-width: 1.5"/>
    <path d="M 307.962023 52.178797 
L 307.962023 50.0769 
" clip-path="url(#pd60c951cd3)" style="fill: none; stroke: #000000; stroke-width: 1.5"/>
    <path d="M 316.041169 52.026864 
L 316.041169 47.407883 
" clip-path="url(#pd60c951cd3)" style="fill: none; stroke: #000000; stroke-width: 1.5"/>
    <path d="M 324.120315 50.332418 
L 324.120315 47.435 
" clip-path="url(#pd60c951cd3)" style="fill: none; stroke: #000000; stroke-width: 1.5"/>
    <path d="M 332.199461 50.012091 
L 332.199461 47.728234 
" clip-path="url(#pd60c951cd3)" style="fill: none; stroke: #000000; stroke-width: 1.5"/>
    <path d="M 340.278607 46.133808 
L 340.278607 43.911887 
" clip-path="url(#pd60c951cd3)" style="fill: none; stroke: #000000; stroke-width: 1.5"/>
    <path d="M 348.357753 47.872646 
L 348.357753 46.381936 
" clip-path="url(#pd60c951cd3)" style="fill: none; stroke: #000000; stroke-width: 1.5"/>
    <path d="M 356.436899 49.395633 
L 356.436899 45.916574 
" clip-path="url(#pd60c951cd3)" style="fill: none; stroke: #000000; stroke-width: 1.5"/>
    <path d="M 364.516045 47.306628 
L 364.516045 44.308407 
" clip-path="url(#pd60c951cd3)" style="fill: none; stroke: #000000; stroke-width: 1.5"/>
    <path d="M 372.595191 49.525289 
L 372.595191 47.734281 
" clip-path="url(#pd60c951cd3)" style="fill: none; stroke: #000000; stroke-width: 1.5"/>
    <path d="M 380.674337 49.416163 
L 380.674337 47.58152 
" clip-path="url(#pd60c951cd3)" style="fill: none; stroke: #000000; stroke-width: 1.5"/>
    <path d="M 388.753483 49.362092 
L 388.753483 47.196436 
" clip-path="url(#pd60c951cd3)" style="fill: none; stroke: #000000; stroke-width: 1.5"/>
    <path d="M 396.832629 47.216741 
L 396.832629 45.974632 
" clip-path="url(#pd60c951cd3)" style="fill: none; stroke: #000000; stroke-width: 1.5"/>
    <path d="M 404.911775 48.621071 
L 404.911775 47.489912 
" clip-path="url(#pd60c951cd3)" style="fill: none; stroke: #000000; stroke-width: 1.5"/>
    <path d="M 412.990921 49.552969 
L 412.990921 47.017782 
" clip-path="url(#pd60c951cd3)" style="fill: none; stroke: #000000; stroke-width: 1.5"/>
   </g>
   <g id="patch_6">
    <path d="M 251.408 71.08 
L 251.408 11.52 
" style="fill: none; stroke: #000000; stroke-width: 0.8; stroke-linejoin: miter; stroke-linecap: square"/>
   </g>
   <g id="patch_7">
    <path d="M 251.408 71.08 
L 414.606751 71.08 
" style="fill: none; stroke: #000000; stroke-width: 0.8; stroke-linejoin: miter; stroke-linecap: square"/>
   </g>
  </g>
 </g>
 <defs>
  <clipPath id="p50bcab8272">
   <rect x="37.1" y="11.52" width="163.198751" height="59.56"/>
  </clipPath>
  <clipPath id="pd60c951cd3">
   <rect x="251.408" y="11.52" width="163.198751" height="59.56"/>
  </clipPath>
 </defs>
</svg>
