<?xml version="1.0" encoding="utf-8" standalone="no"?>
<!DOCTYPE svg PUBLIC "-//W3C//DTD SVG 1.1//EN"
  "http://www.w3.org/Graphics/SVG/1.1/DTD/svg11.dtd">
<svg xmlns:xlink="http://www.w3.org/1999/xlink" width="432pt" height="108pt" viewBox="0 0 432 108" xmlns="http://www.w3.org/2000/svg" version="1.1">
 <metadata>
  <rdf:RDF xmlns:dc="http://purl.org/dc/elements/1.1/" xmlns:cc="http://creativecommons.org/ns#" xmlns:rdf="http://www.w3.org/1999/02/22-rdf-syntax-ns#">
   <cc:Work>
    <dc:type rdf:resource="http://purl.org/dc/dcmitype/StillImage"/>
    <dc:date>2023-11-27T19:53:22.491029</dc:date>
    <dc:format>image/svg+xml</dc:format>
    <dc:creator>
     <cc:Agent>
      <dc:title>Matplotlib v3.5.2, https://matplotlib.org/</dc:title>
     </cc:Agent>
    </dc:creator>
   </cc:Work>
  </rdf:RDF>
 </metadata>
 <defs>
  <style type="text/css">*{stroke-linejoin: round; stroke-linecap: butt}</style>
 </defs>
 <g id="figure_1">
  <g id="patch_1">
   <path d="M 0 108 
L 432 108 
L 432 0 
L 0 0 
z
" style="fill: #ffffff"/>
  </g>
  <g id="axes_1">
   <g id="patch_2">
    <path d="M 37.1 71.08 
L 202.848979 71.08 
L 202.848979 11.52 
L 37.1 11.52 
z
" style="fill: #ffffff"/>
   </g>
   <g id="matplotlib.axis_1">
    <g id="xtick_1">
     <g id="line2d_1">
      <defs>
       <path id="m4b8c9da704" d="M 0 0 
L 0 3.5 
" style="stroke: #000000; stroke-width: 0.8"/>
      </defs>
      <g>
       <use xlink:href="#m4b8c9da704" x="38.72499" y="71.08" style="stroke: #000000; stroke-width: 0.8"/>
      </g>
     </g>
     <g id="text_1">
      <text style="font: 8px 'sans-serif'; text-anchor: middle" x="38.72499" y="84.15875" transform="rotate(-0, 38.72499, 84.15875)">−250</text>
     </g>
    </g>
    <g id="xtick_2">
     <g id="line2d_2">
      <g>
       <use xlink:href="#m4b8c9da704" x="119.974489" y="71.08" style="stroke: #000000; stroke-width: 0.8"/>
      </g>
     </g>
     <g id="text_2">
      <text style="font: 8px 'sans-serif'; text-anchor: middle" x="119.974489" y="84.15875" transform="rotate(-0, 119.974489, 84.15875)">250</text>
     </g>
    </g>
    <g id="xtick_3">
     <g id="line2d_3">
      <g>
       <use xlink:href="#m4b8c9da704" x="201.223989" y="71.08" style="stroke: #000000; stroke-width: 0.8"/>
      </g>
     </g>
     <g id="text_3">
      <text style="font: 8px 'sans-serif'; text-anchor: middle" x="201.223989" y="84.15875" transform="rotate(-0, 201.223989, 84.15875)">750</text>
     </g>
    </g>
    <g id="text_4">
     <!-- $I_{s}$ [pA] -->
     <g transform="translate(107.534489 95.9025)">
      <text>
       <tspan style="font: oblique 8px 'DejaVu Sans'" x="0" y="-0.921875">I</tspan>
       <tspan style="font: oblique 5.6px 'DejaVu Sans'" x="2.359375" y="0.390625">s</tspan>
       <tspan style="font: 8px 'DejaVu Sans'" x="5.495703 8.038672 11.159766 16.237891 21.710547" y="-0.921875"> [pA]</tspan>
      </text>
     </g>
    </g>
   </g>
   <g id="matplotlib.axis_2">
    <g id="ytick_1">
     <g id="line2d_4">
      <defs>
       <path id="m486e92eb72" d="M 0 0 
L -3.5 0 
" style="stroke: #000000; stroke-width: 0.8"/>
      </defs>
      <g>
       <use xlink:href="#m486e92eb72" x="37.1" y="50.183714" style="stroke: #000000; stroke-width: 0.8"/>
      </g>
     </g>
     <g id="text_5">
      <text style="font: 8px 'sans-serif'; text-anchor: end" x="30.1" y="53.223089" transform="rotate(-0, 30.1, 53.223089)">25</text>
     </g>
    </g>
    <g id="ytick_2">
     <g id="line2d_5">
      <g>
       <use xlink:href="#m486e92eb72" x="37.1" y="27.504142" style="stroke: #000000; stroke-width: 0.8"/>
      </g>
     </g>
     <g id="text_6">
      <text style="font: 8px 'sans-serif'; text-anchor: end" x="30.1" y="30.543517" transform="rotate(-0, 30.1, 30.543517)">50</text>
     </g>
    </g>
    <g id="text_7">
     <text style="font: 8px 'sans-serif'; text-anchor: middle" x="14.25625" y="41.3" transform="rotate(-90, 14.25625, 41.3)">Frequency [Hz]</text>
    </g>
   </g>
   <g id="line2d_6">
    <defs>
     <path id="m32a6b354d6" d="M 0 1.5 
C 0.397805 1.5 0.77937 1.341951 1.06066 1.06066 
C 1.341951 0.77937 1.5 0.397805 1.5 0 
C 1.5 -0.397805 1.341951 -0.77937 1.06066 -1.06066 
C 0.77937 -1.341951 0.397805 -1.5 0 -1.5 
C -0.397805 -1.5 -0.77937 -1.341951 -1.06066 -1.06066 
C -1.341951 -0.77937 -1.5 -0.397805 -1.5 0 
C -1.5 0.397805 -1.341951 0.77937 -1.06066 1.06066 
C -0.77937 1.341951 -0.397805 1.5 0 1.5 
z
" style="stroke: #1f77b4"/>
    </defs>
    <g clip-path="url(#p17364303fb)">
     <use xlink:href="#m32a6b354d6" x="95.59964" y="68.372727" style="fill: #1f77b4; stroke: #1f77b4"/>
     <use xlink:href="#m32a6b354d6" x="103.724589" y="64.378995" style="fill: #1f77b4; stroke: #1f77b4"/>
     <use xlink:href="#m32a6b354d6" x="111.849539" y="59.47789" style="fill: #1f77b4; stroke: #1f77b4"/>
     <use xlink:href="#m32a6b354d6" x="119.974489" y="60.956641" style="fill: #1f77b4; stroke: #1f77b4"/>
     <use xlink:href="#m32a6b354d6" x="128.099439" y="58.805951" style="fill: #1f77b4; stroke: #1f77b4"/>
     <use xlink:href="#m32a6b354d6" x="136.224389" y="57.339623" style="fill: #1f77b4; stroke: #1f77b4"/>
     <use xlink:href="#m32a6b354d6" x="144.349339" y="58.353004" style="fill: #1f77b4; stroke: #1f77b4"/>
     <use xlink:href="#m32a6b354d6" x="152.474289" y="54.655422" style="fill: #1f77b4; stroke: #1f77b4"/>
     <use xlink:href="#m32a6b354d6" x="160.599239" y="51.760557" style="fill: #1f77b4; stroke: #1f77b4"/>
     <use xlink:href="#m32a6b354d6" x="168.724189" y="51.698475" style="fill: #1f77b4; stroke: #1f77b4"/>
     <use xlink:href="#m32a6b354d6" x="176.849139" y="50.977089" style="fill: #1f77b4; stroke: #1f77b4"/>
     <use xlink:href="#m32a6b354d6" x="184.974089" y="49.67862" style="fill: #1f77b4; stroke: #1f77b4"/>
     <use xlink:href="#m32a6b354d6" x="193.099039" y="47.201089" style="fill: #1f77b4; stroke: #1f77b4"/>
     <use xlink:href="#m32a6b354d6" x="201.223989" y="45.441665" style="fill: #1f77b4; stroke: #1f77b4"/>
    </g>
   </g>
   <g id="line2d_7">
    <defs>
     <path id="m10dfb93b82" d="M 0 1.5 
C 0.397805 1.5 0.77937 1.341951 1.06066 1.06066 
C 1.341951 0.77937 1.5 0.397805 1.5 0 
C 1.5 -0.397805 1.341951 -0.77937 1.06066 -1.06066 
C 0.77937 -1.341951 0.397805 -1.5 0 -1.5 
C -0.397805 -1.5 -0.77937 -1.341951 -1.06066 -1.06066 
C -1.341951 -0.77937 -1.5 -0.397805 -1.5 0 
C -1.5 0.397805 -1.341951 0.77937 -1.06066 1.06066 
C -0.77937 1.341951 -0.397805 1.5 0 1.5 
z
" style="stroke: #ff7f0e"/>
    </defs>
    <g clip-path="url(#p17364303fb)">
     <use xlink:href="#m10dfb93b82" x="87.47469" y="66.047488" style="fill: #ff7f0e; stroke: #ff7f0e"/>
     <use xlink:href="#m10dfb93b82" x="95.59964" y="65.408521" style="fill: #ff7f0e; stroke: #ff7f0e"/>
     <use xlink:href="#m10dfb93b82" x="103.724589" y="61.724484" style="fill: #ff7f0e; stroke: #ff7f0e"/>
     <use xlink:href="#m10dfb93b82" x="111.849539" y="61.026887" style="fill: #ff7f0e; stroke: #ff7f0e"/>
     <use xlink:href="#m10dfb93b82" x="119.974489" y="54.051822" style="fill: #ff7f0e; stroke: #ff7f0e"/>
     <use xlink:href="#m10dfb93b82" x="128.099439" y="52.117979" style="fill: #ff7f0e; stroke: #ff7f0e"/>
     <use xlink:href="#m10dfb93b82" x="136.224389" y="50.231866" style="fill: #ff7f0e; stroke: #ff7f0e"/>
     <use xlink:href="#m10dfb93b82" x="144.349339" y="48.530287" style="fill: #ff7f0e; stroke: #ff7f0e"/>
     <use xlink:href="#m10dfb93b82" x="152.474289" y="44.562463" style="fill: #ff7f0e; stroke: #ff7f0e"/>
     <use xlink:href="#m10dfb93b82" x="160.599239" y="41.744553" style="fill: #ff7f0e; stroke: #ff7f0e"/>
     <use xlink:href="#m10dfb93b82" x="168.724189" y="41.012292" style="fill: #ff7f0e; stroke: #ff7f0e"/>
     <use xlink:href="#m10dfb93b82" x="176.849139" y="37.937146" style="fill: #ff7f0e; stroke: #ff7f0e"/>
     <use xlink:href="#m10dfb93b82" x="184.974089" y="35.943603" style="fill: #ff7f0e; stroke: #ff7f0e"/>
     <use xlink:href="#m10dfb93b82" x="193.099039" y="33.136791" style="fill: #ff7f0e; stroke: #ff7f0e"/>
     <use xlink:href="#m10dfb93b82" x="201.223989" y="33.938462" style="fill: #ff7f0e; stroke: #ff7f0e"/>
    </g>
   </g>
   <g id="line2d_8">
    <defs>
     <path id="mf7cd4ab906" d="M 0 1.5 
C 0.397805 1.5 0.77937 1.341951 1.06066 1.06066 
C 1.341951 0.77937 1.5 0.397805 1.5 0 
C 1.5 -0.397805 1.341951 -0.77937 1.06066 -1.06066 
C 0.77937 -1.341951 0.397805 -1.5 0 -1.5 
C -0.397805 -1.5 -0.77937 -1.341951 -1.06066 -1.06066 
C -1.341951 -0.77937 -1.5 -0.397805 -1.5 0 
C -1.5 0.397805 -1.341951 0.77937 -1.06066 1.06066 
C -0.77937 1.341951 -0.397805 1.5 0 1.5 
z
" style="stroke: #2ca02c"/>
    </defs>
    <g clip-path="url(#p17364303fb)">
     <use xlink:href="#mf7cd4ab906" x="79.34974" y="63.333001" style="fill: #2ca02c; stroke: #2ca02c"/>
     <use xlink:href="#mf7cd4ab906" x="87.47469" y="56.916529" style="fill: #2ca02c; stroke: #2ca02c"/>
     <use xlink:href="#mf7cd4ab906" x="95.59964" y="54.614817" style="fill: #2ca02c; stroke: #2ca02c"/>
     <use xlink:href="#mf7cd4ab906" x="103.724589" y="51.064157" style="fill: #2ca02c; stroke: #2ca02c"/>
     <use xlink:href="#mf7cd4ab906" x="111.849539" y="48.655288" style="fill: #2ca02c; stroke: #2ca02c"/>
     <use xlink:href="#mf7cd4ab906" x="119.974489" y="46.202822" style="fill: #2ca02c; stroke: #2ca02c"/>
     <use xlink:href="#mf7cd4ab906" x="128.099439" y="44.448705" style="fill: #2ca02c; stroke: #2ca02c"/>
     <use xlink:href="#mf7cd4ab906" x="136.224389" y="44.605072" style="fill: #2ca02c; stroke: #2ca02c"/>
     <use xlink:href="#mf7cd4ab906" x="144.349339" y="41.481102" style="fill: #2ca02c; stroke: #2ca02c"/>
     <use xlink:href="#mf7cd4ab906" x="152.474289" y="41.234388" style="fill: #2ca02c; stroke: #2ca02c"/>
     <use xlink:href="#mf7cd4ab906" x="160.599239" y="39.697358" style="fill: #2ca02c; stroke: #2ca02c"/>
     <use xlink:href="#mf7cd4ab906" x="168.724189" y="39.485049" style="fill: #2ca02c; stroke: #2ca02c"/>
     <use xlink:href="#mf7cd4ab906" x="176.849139" y="39.97221" style="fill: #2ca02c; stroke: #2ca02c"/>
     <use xlink:href="#mf7cd4ab906" x="184.974089" y="38.787134" style="fill: #2ca02c; stroke: #2ca02c"/>
     <use xlink:href="#mf7cd4ab906" x="193.099039" y="38.317459" style="fill: #2ca02c; stroke: #2ca02c"/>
     <use xlink:href="#mf7cd4ab906" x="201.223989" y="39.354341" style="fill: #2ca02c; stroke: #2ca02c"/>
    </g>
   </g>
   <g id="line2d_9">
    <defs>
     <path id="m40f4b4f9b3" d="M 0 1.5 
C 0.397805 1.5 0.77937 1.341951 1.06066 1.06066 
C 1.341951 0.77937 1.5 0.397805 1.5 0 
C 1.5 -0.397805 1.341951 -0.77937 1.06066 -1.06066 
C 0.77937 -1.341951 0.397805 -1.5 0 -1.5 
C -0.397805 -1.5 -0.77937 -1.341951 -1.06066 -1.06066 
C -1.341951 -0.77937 -1.5 -0.397805 -1.5 0 
C -1.5 0.397805 -1.341951 0.77937 -1.06066 1.06066 
C -0.77937 1.341951 -0.397805 1.5 0 1.5 
z
" style="stroke: #d62728"/>
    </defs>
    <g clip-path="url(#p17364303fb)">
     <use xlink:href="#m40f4b4f9b3" x="63.09984" y="67.655578" style="fill: #d62728; stroke: #d62728"/>
     <use xlink:href="#m40f4b4f9b3" x="71.22479" y="63.030087" style="fill: #d62728; stroke: #d62728"/>
     <use xlink:href="#m40f4b4f9b3" x="79.34974" y="57.477211" style="fill: #d62728; stroke: #d62728"/>
     <use xlink:href="#m40f4b4f9b3" x="87.47469" y="55.021493" style="fill: #d62728; stroke: #d62728"/>
     <use xlink:href="#m40f4b4f9b3" x="95.59964" y="53.085291" style="fill: #d62728; stroke: #d62728"/>
     <use xlink:href="#m40f4b4f9b3" x="103.724589" y="50.408265" style="fill: #d62728; stroke: #d62728"/>
     <use xlink:href="#m40f4b4f9b3" x="111.849539" y="47.112148" style="fill: #d62728; stroke: #d62728"/>
     <use xlink:href="#m40f4b4f9b3" x="119.974489" y="44.154967" style="fill: #d62728; stroke: #d62728"/>
     <use xlink:href="#m40f4b4f9b3" x="128.099439" y="40.354625" style="fill: #d62728; stroke: #d62728"/>
     <use xlink:href="#m40f4b4f9b3" x="136.224389" y="41.472875" style="fill: #d62728; stroke: #d62728"/>
     <use xlink:href="#m40f4b4f9b3" x="144.349339" y="39.328645" style="fill: #d62728; stroke: #d62728"/>
     <use xlink:href="#m40f4b4f9b3" x="152.474289" y="36.475787" style="fill: #d62728; stroke: #d62728"/>
     <use xlink:href="#m40f4b4f9b3" x="160.599239" y="37.196761" style="fill: #d62728; stroke: #d62728"/>
     <use xlink:href="#m40f4b4f9b3" x="168.724189" y="29.180241" style="fill: #d62728; stroke: #d62728"/>
     <use xlink:href="#m40f4b4f9b3" x="176.849139" y="22.544478" style="fill: #d62728; stroke: #d62728"/>
     <use xlink:href="#m40f4b4f9b3" x="184.974089" y="21.255774" style="fill: #d62728; stroke: #d62728"/>
     <use xlink:href="#m40f4b4f9b3" x="193.099039" y="19.057037" style="fill: #d62728; stroke: #d62728"/>
     <use xlink:href="#m40f4b4f9b3" x="201.223989" y="14.227273" style="fill: #d62728; stroke: #d62728"/>
    </g>
   </g>
   <g id="line2d_10">
    <defs>
     <path id="m32b108ea8c" d="M 0 1.5 
C 0.397805 1.5 0.77937 1.341951 1.06066 1.06066 
C 1.341951 0.77937 1.5 0.397805 1.5 0 
C 1.5 -0.397805 1.341951 -0.77937 1.06066 -1.06066 
C 0.77937 -1.341951 0.397805 -1.5 0 -1.5 
C -0.397805 -1.5 -0.77937 -1.341951 -1.06066 -1.06066 
C -1.341951 -0.77937 -1.5 -0.397805 -1.5 0 
C -1.5 0.397805 -1.341951 0.77937 -1.06066 1.06066 
C -0.77937 1.341951 -0.397805 1.5 0 1.5 
z
" style="stroke: #9467bd"/>
    </defs>
    <g clip-path="url(#p17364303fb)">
     <use xlink:href="#m32b108ea8c" x="79.34974" y="67.124852" style="fill: #9467bd; stroke: #9467bd"/>
     <use xlink:href="#m32b108ea8c" x="87.47469" y="63.427226" style="fill: #9467bd; stroke: #9467bd"/>
     <use xlink:href="#m32b108ea8c" x="95.59964" y="61.95309" style="fill: #9467bd; stroke: #9467bd"/>
     <use xlink:href="#m32b108ea8c" x="103.724589" y="59.333714" style="fill: #9467bd; stroke: #9467bd"/>
     <use xlink:href="#m32b108ea8c" x="111.849539" y="54.792862" style="fill: #9467bd; stroke: #9467bd"/>
     <use xlink:href="#m32b108ea8c" x="119.974489" y="52.611516" style="fill: #9467bd; stroke: #9467bd"/>
     <use xlink:href="#m32b108ea8c" x="128.099439" y="50.09462" style="fill: #9467bd; stroke: #9467bd"/>
     <use xlink:href="#m32b108ea8c" x="136.224389" y="50.464886" style="fill: #9467bd; stroke: #9467bd"/>
     <use xlink:href="#m32b108ea8c" x="144.349339" y="44.506437" style="fill: #9467bd; stroke: #9467bd"/>
     <use xlink:href="#m32b108ea8c" x="152.474289" y="44.395204" style="fill: #9467bd; stroke: #9467bd"/>
     <use xlink:href="#m32b108ea8c" x="160.599239" y="38.691795" style="fill: #9467bd; stroke: #9467bd"/>
     <use xlink:href="#m32b108ea8c" x="168.724189" y="38.277768" style="fill: #9467bd; stroke: #9467bd"/>
     <use xlink:href="#m32b108ea8c" x="176.849139" y="38.292964" style="fill: #9467bd; stroke: #9467bd"/>
     <use xlink:href="#m32b108ea8c" x="184.974089" y="36.262518" style="fill: #9467bd; stroke: #9467bd"/>
     <use xlink:href="#m32b108ea8c" x="193.099039" y="33.697523" style="fill: #9467bd; stroke: #9467bd"/>
     <use xlink:href="#m32b108ea8c" x="201.223989" y="32.257786" style="fill: #9467bd; stroke: #9467bd"/>
    </g>
   </g>
   <g id="line2d_11">
    <defs>
     <path id="m3c84cee1e3" d="M 0 1.75 
C 0.464105 1.75 0.909265 1.565609 1.237437 1.237437 
C 1.565609 0.909265 1.75 0.464105 1.75 0 
C 1.75 -0.464105 1.565609 -0.909265 1.237437 -1.237437 
C 0.909265 -1.565609 0.464105 -1.75 0 -1.75 
C -0.464105 -1.75 -0.909265 -1.565609 -1.237437 -1.237437 
C -1.565609 -0.909265 -1.75 -0.464105 -1.75 0 
C -1.75 0.464105 -1.565609 0.909265 -1.237437 1.237437 
C -0.909265 1.565609 -0.464105 1.75 0 1.75 
z
" style="stroke: #000000"/>
    </defs>
    <g clip-path="url(#p17364303fb)">
     <use xlink:href="#m3c84cee1e3" x="63.09984" y="67.655578" style="fill-opacity: 0; stroke: #000000"/>
     <use xlink:href="#m3c84cee1e3" x="71.22479" y="63.030087" style="fill-opacity: 0; stroke: #000000"/>
     <use xlink:href="#m3c84cee1e3" x="79.34974" y="62.645021" style="fill-opacity: 0; stroke: #000000"/>
     <use xlink:href="#m3c84cee1e3" x="87.47469" y="60.353184" style="fill-opacity: 0; stroke: #000000"/>
     <use xlink:href="#m3c84cee1e3" x="95.59964" y="60.686889" style="fill-opacity: 0; stroke: #000000"/>
     <use xlink:href="#m3c84cee1e3" x="103.724589" y="57.381923" style="fill-opacity: 0; stroke: #000000"/>
     <use xlink:href="#m3c84cee1e3" x="111.849539" y="54.213015" style="fill-opacity: 0; stroke: #000000"/>
     <use xlink:href="#m3c84cee1e3" x="119.974489" y="51.595554" style="fill-opacity: 0; stroke: #000000"/>
     <use xlink:href="#m3c84cee1e3" x="128.099439" y="49.164376" style="fill-opacity: 0; stroke: #000000"/>
     <use xlink:href="#m3c84cee1e3" x="136.224389" y="48.822864" style="fill-opacity: 0; stroke: #000000"/>
     <use xlink:href="#m3c84cee1e3" x="144.349339" y="46.439895" style="fill-opacity: 0; stroke: #000000"/>
     <use xlink:href="#m3c84cee1e3" x="152.474289" y="44.264653" style="fill-opacity: 0; stroke: #000000"/>
     <use xlink:href="#m3c84cee1e3" x="160.599239" y="41.818205" style="fill-opacity: 0; stroke: #000000"/>
     <use xlink:href="#m3c84cee1e3" x="168.724189" y="39.930765" style="fill-opacity: 0; stroke: #000000"/>
     <use xlink:href="#m3c84cee1e3" x="176.849139" y="37.944777" style="fill-opacity: 0; stroke: #000000"/>
     <use xlink:href="#m3c84cee1e3" x="184.974089" y="36.38553" style="fill-opacity: 0; stroke: #000000"/>
     <use xlink:href="#m3c84cee1e3" x="193.099039" y="34.28198" style="fill-opacity: 0; stroke: #000000"/>
     <use xlink:href="#m3c84cee1e3" x="201.223989" y="33.043905" style="fill-opacity: 0; stroke: #000000"/>
    </g>
   </g>
   <g id="LineCollection_1">
    <path clip-path="url(#p17364303fb)" style="fill: none; stroke: #000000; stroke-width: 1.5"/>
    <path clip-path="url(#p17364303fb)" style="fill: none; stroke: #000000; stroke-width: 1.5"/>
    <path clip-path="url(#p17364303fb)" style="fill: none; stroke: #000000; stroke-width: 1.5"/>
    <path d="M 63.09984 67.655578 
L 63.09984 67.655578 
" clip-path="url(#p17364303fb)" style="fill: none; stroke: #000000; stroke-width: 1.5"/>
    <path d="M 71.22479 63.030087 
L 71.22479 63.030087 
" clip-path="url(#p17364303fb)" style="fill: none; stroke: #000000; stroke-width: 1.5"/>
    <path d="M 79.34974 64.419816 
L 79.34974 60.870226 
" clip-path="url(#p17364303fb)" style="fill: none; stroke: #000000; stroke-width: 1.5"/>
    <path d="M 87.47469 62.379416 
L 87.47469 58.326952 
" clip-path="url(#p17364303fb)" style="fill: none; stroke: #000000; stroke-width: 1.5"/>
    <path d="M 95.59964 63.352399 
L 95.59964 58.02138 
" clip-path="url(#p17364303fb)" style="fill: none; stroke: #000000; stroke-width: 1.5"/>
    <path d="M 103.724589 59.913108 
L 103.724589 54.850738 
" clip-path="url(#p17364303fb)" style="fill: none; stroke: #000000; stroke-width: 1.5"/>
    <path d="M 111.849539 56.709369 
L 111.849539 51.716661 
" clip-path="url(#p17364303fb)" style="fill: none; stroke: #000000; stroke-width: 1.5"/>
    <path d="M 119.974489 54.272412 
L 119.974489 48.918695 
" clip-path="url(#p17364303fb)" style="fill: none; stroke: #000000; stroke-width: 1.5"/>
    <path d="M 128.099439 52.009711 
L 128.099439 46.31904 
" clip-path="url(#p17364303fb)" style="fill: none; stroke: #000000; stroke-width: 1.5"/>
    <path d="M 136.224389 51.264412 
L 136.224389 46.381317 
" clip-path="url(#p17364303fb)" style="fill: none; stroke: #000000; stroke-width: 1.5"/>
    <path d="M 144.349339 49.441159 
L 144.349339 43.438631 
" clip-path="url(#p17364303fb)" style="fill: none; stroke: #000000; stroke-width: 1.5"/>
    <path d="M 152.474289 46.932407 
L 152.474289 41.596899 
" clip-path="url(#p17364303fb)" style="fill: none; stroke: #000000; stroke-width: 1.5"/>
    <path d="M 160.599239 44.137567 
L 160.599239 39.498843 
" clip-path="url(#p17364303fb)" style="fill: none; stroke: #000000; stroke-width: 1.5"/>
    <path d="M 168.724189 43.144196 
L 168.724189 36.717334 
" clip-path="url(#p17364303fb)" style="fill: none; stroke: #000000; stroke-width: 1.5"/>
    <path d="M 176.849139 42.000598 
L 176.849139 33.888956 
" clip-path="url(#p17364303fb)" style="fill: none; stroke: #000000; stroke-width: 1.5"/>
    <path d="M 184.974089 40.443085 
L 184.974089 32.327975 
" clip-path="url(#p17364303fb)" style="fill: none; stroke: #000000; stroke-width: 1.5"/>
    <path d="M 193.099039 38.364334 
L 193.099039 30.199625 
" clip-path="url(#p17364303fb)" style="fill: none; stroke: #000000; stroke-width: 1.5"/>
    <path d="M 201.223989 37.730097 
L 201.223989 28.357713 
" clip-path="url(#p17364303fb)" style="fill: none; stroke: #000000; stroke-width: 1.5"/>
   </g>
   <g id="patch_3">
    <path d="M 37.1 71.08 
L 37.1 11.52 
" style="fill: none; stroke: #000000; stroke-width: 0.8; stroke-linejoin: miter; stroke-linecap: square"/>
   </g>
   <g id="patch_4">
    <path d="M 37.1 71.08 
L 202.848979 71.08 
" style="fill: none; stroke: #000000; stroke-width: 0.8; stroke-linejoin: miter; stroke-linecap: square"/>
   </g>
  </g>
  <g id="axes_2">
   <g id="patch_5">
    <path d="M 251.408 71.08 
L 417.156979 71.08 
L 417.156979 11.52 
L 251.408 11.52 
z
" style="fill: #ffffff"/>
   </g>
   <g id="matplotlib.axis_3">
    <g id="xtick_4">
     <g id="line2d_12">
      <g>
       <use xlink:href="#m4b8c9da704" x="253.03299" y="71.08" style="stroke: #000000; stroke-width: 0.8"/>
      </g>
     </g>
     <g id="text_8">
      <text style="font: 8px 'sans-serif'; text-anchor: middle" x="253.03299" y="84.15875" transform="rotate(-0, 253.03299, 84.15875)">−250</text>
     </g>
    </g>
    <g id="xtick_5">
     <g id="line2d_13">
      <g>
       <use xlink:href="#m4b8c9da704" x="334.282489" y="71.08" style="stroke: #000000; stroke-width: 0.8"/>
      </g>
     </g>
     <g id="text_9">
      <text style="font: 8px 'sans-serif'; text-anchor: middle" x="334.282489" y="84.15875" transform="rotate(-0, 334.282489, 84.15875)">250</text>
     </g>
    </g>
    <g id="xtick_6">
     <g id="line2d_14">
      <g>
       <use xlink:href="#m4b8c9da704" x="415.531989" y="71.08" style="stroke: #000000; stroke-width: 0.8"/>
      </g>
     </g>
     <g id="text_10">
      <text style="font: 8px 'sans-serif'; text-anchor: middle" x="415.531989" y="84.15875" transform="rotate(-0, 415.531989, 84.15875)">750</text>
     </g>
    </g>
    <g id="text_11">
     <!-- $I_{s}$ [pA] -->
     <g transform="translate(321.842489 95.9025)">
      <text>
       <tspan style="font: oblique 8px 'DejaVu Sans'" x="0" y="-0.921875">I</tspan>
       <tspan style="font: oblique 5.6px 'DejaVu Sans'" x="2.359375" y="0.390625">s</tspan>
       <tspan style="font: 8px 'DejaVu Sans'" x="5.495703 8.038672 11.159766 16.237891 21.710547" y="-0.921875"> [pA]</tspan>
      </text>
     </g>
    </g>
   </g>
   <g id="matplotlib.axis_4">
    <g id="ytick_3">
     <g id="line2d_15">
      <g>
       <use xlink:href="#m486e92eb72" x="251.408" y="71.08" style="stroke: #000000; stroke-width: 0.8"/>
      </g>
     </g>
     <g id="text_12">
      <text style="font: 8px 'sans-serif'; text-anchor: end" x="244.408" y="74.119375" transform="rotate(-0, 244.408, 74.119375)">0.0</text>
     </g>
    </g>
    <g id="ytick_4">
     <g id="line2d_16">
      <g>
       <use xlink:href="#m486e92eb72" x="251.408" y="51.226667" style="stroke: #000000; stroke-width: 0.8"/>
      </g>
     </g>
     <g id="text_13">
      <text style="font: 8px 'sans-serif'; text-anchor: end" x="244.408" y="54.266042" transform="rotate(-0, 244.408, 54.266042)">0.5</text>
     </g>
    </g>
    <g id="ytick_5">
     <g id="line2d_17">
      <g>
       <use xlink:href="#m486e92eb72" x="251.408" y="31.373333" style="stroke: #000000; stroke-width: 0.8"/>
      </g>
     </g>
     <g id="text_14">
      <text style="font: 8px 'sans-serif'; text-anchor: end" x="244.408" y="34.412708" transform="rotate(-0, 244.408, 34.412708)">1.0</text>
     </g>
    </g>
    <g id="ytick_6">
     <g id="line2d_18">
      <g>
       <use xlink:href="#m486e92eb72" x="251.408" y="11.52" style="stroke: #000000; stroke-width: 0.8"/>
      </g>
     </g>
     <g id="text_15">
      <text style="font: 8px 'sans-serif'; text-anchor: end" x="244.408" y="14.559375" transform="rotate(-0, 244.408, 14.559375)">1.5</text>
     </g>
    </g>
    <g id="text_16">
     <!-- $C_{v}$ -->
     <g transform="translate(226.02175 45.86)rotate(-90)">
      <text>
       <tspan style="font: oblique 8px 'DejaVu Sans'" x="0" y="-0.0625">C</tspan>
       <tspan style="font: oblique 5.6px 'DejaVu Sans'" x="5.585938" y="1.25">v</tspan>
      </text>
     </g>
    </g>
   </g>
   <g id="line2d_19">
    <g clip-path="url(#pa71de44fec)">
     <use xlink:href="#m32a6b354d6" x="309.90764" y="23.715539" style="fill: #1f77b4; stroke: #1f77b4"/>
     <use xlink:href="#m32a6b354d6" x="318.032589" y="25.28623" style="fill: #1f77b4; stroke: #1f77b4"/>
     <use xlink:href="#m32a6b354d6" x="326.157539" y="35.508593" style="fill: #1f77b4; stroke: #1f77b4"/>
     <use xlink:href="#m32a6b354d6" x="334.282489" y="28.120953" style="fill: #1f77b4; stroke: #1f77b4"/>
     <use xlink:href="#m32a6b354d6" x="342.407439" y="41.681723" style="fill: #1f77b4; stroke: #1f77b4"/>
     <use xlink:href="#m32a6b354d6" x="350.532389" y="48.898353" style="fill: #1f77b4; stroke: #1f77b4"/>
     <use xlink:href="#m32a6b354d6" x="358.657339" y="45.104066" style="fill: #1f77b4; stroke: #1f77b4"/>
     <use xlink:href="#m32a6b354d6" x="366.782289" y="40.306458" style="fill: #1f77b4; stroke: #1f77b4"/>
     <use xlink:href="#m32a6b354d6" x="374.907239" y="45.721659" style="fill: #1f77b4; stroke: #1f77b4"/>
     <use xlink:href="#m32a6b354d6" x="383.032189" y="48.064652" style="fill: #1f77b4; stroke: #1f77b4"/>
     <use xlink:href="#m32a6b354d6" x="391.157139" y="47.262893" style="fill: #1f77b4; stroke: #1f77b4"/>
     <use xlink:href="#m32a6b354d6" x="399.282089" y="44.526095" style="fill: #1f77b4; stroke: #1f77b4"/>
     <use xlink:href="#m32a6b354d6" x="407.407039" y="44.142368" style="fill: #1f77b4; stroke: #1f77b4"/>
     <use xlink:href="#m32a6b354d6" x="415.531989" y="43.036833" style="fill: #1f77b4; stroke: #1f77b4"/>
    </g>
   </g>
   <g id="line2d_20">
    <g clip-path="url(#pa71de44fec)">
     <use xlink:href="#m10dfb93b82" x="301.78269" y="34.061087" style="fill: #ff7f0e; stroke: #ff7f0e"/>
     <use xlink:href="#m10dfb93b82" x="309.90764" y="52.290862" style="fill: #ff7f0e; stroke: #ff7f0e"/>
     <use xlink:href="#m10dfb93b82" x="318.032589" y="43.011051" style="fill: #ff7f0e; stroke: #ff7f0e"/>
     <use xlink:href="#m10dfb93b82" x="326.157539" y="45.866598" style="fill: #ff7f0e; stroke: #ff7f0e"/>
     <use xlink:href="#m10dfb93b82" x="334.282489" y="39.834661" style="fill: #ff7f0e; stroke: #ff7f0e"/>
     <use xlink:href="#m10dfb93b82" x="342.407439" y="44.657533" style="fill: #ff7f0e; stroke: #ff7f0e"/>
     <use xlink:href="#m10dfb93b82" x="350.532389" y="40.744355" style="fill: #ff7f0e; stroke: #ff7f0e"/>
     <use xlink:href="#m10dfb93b82" x="358.657339" y="45.950266" style="fill: #ff7f0e; stroke: #ff7f0e"/>
     <use xlink:href="#m10dfb93b82" x="366.782289" y="42.401802" style="fill: #ff7f0e; stroke: #ff7f0e"/>
     <use xlink:href="#m10dfb93b82" x="374.907239" y="45.761423" style="fill: #ff7f0e; stroke: #ff7f0e"/>
     <use xlink:href="#m10dfb93b82" x="383.032189" y="46.563251" style="fill: #ff7f0e; stroke: #ff7f0e"/>
     <use xlink:href="#m10dfb93b82" x="391.157139" y="42.776815" style="fill: #ff7f0e; stroke: #ff7f0e"/>
     <use xlink:href="#m10dfb93b82" x="399.282089" y="42.969776" style="fill: #ff7f0e; stroke: #ff7f0e"/>
     <use xlink:href="#m10dfb93b82" x="407.407039" y="45.152588" style="fill: #ff7f0e; stroke: #ff7f0e"/>
     <use xlink:href="#m10dfb93b82" x="415.531989" y="43.065244" style="fill: #ff7f0e; stroke: #ff7f0e"/>
    </g>
   </g>
   <g id="line2d_21">
    <g clip-path="url(#pa71de44fec)">
     <use xlink:href="#mf7cd4ab906" x="293.65774" y="36.219042" style="fill: #2ca02c; stroke: #2ca02c"/>
     <use xlink:href="#mf7cd4ab906" x="301.78269" y="43.866899" style="fill: #2ca02c; stroke: #2ca02c"/>
     <use xlink:href="#mf7cd4ab906" x="309.90764" y="40.988207" style="fill: #2ca02c; stroke: #2ca02c"/>
     <use xlink:href="#mf7cd4ab906" x="318.032589" y="44.302123" style="fill: #2ca02c; stroke: #2ca02c"/>
     <use xlink:href="#mf7cd4ab906" x="326.157539" y="46.926629" style="fill: #2ca02c; stroke: #2ca02c"/>
     <use xlink:href="#mf7cd4ab906" x="334.282489" y="49.159573" style="fill: #2ca02c; stroke: #2ca02c"/>
     <use xlink:href="#mf7cd4ab906" x="342.407439" y="45.713188" style="fill: #2ca02c; stroke: #2ca02c"/>
     <use xlink:href="#mf7cd4ab906" x="350.532389" y="49.546429" style="fill: #2ca02c; stroke: #2ca02c"/>
     <use xlink:href="#mf7cd4ab906" x="358.657339" y="48.30745" style="fill: #2ca02c; stroke: #2ca02c"/>
     <use xlink:href="#mf7cd4ab906" x="366.782289" y="48.388319" style="fill: #2ca02c; stroke: #2ca02c"/>
     <use xlink:href="#mf7cd4ab906" x="374.907239" y="49.926108" style="fill: #2ca02c; stroke: #2ca02c"/>
     <use xlink:href="#mf7cd4ab906" x="383.032189" y="51.417237" style="fill: #2ca02c; stroke: #2ca02c"/>
     <use xlink:href="#mf7cd4ab906" x="391.157139" y="53.416965" style="fill: #2ca02c; stroke: #2ca02c"/>
     <use xlink:href="#mf7cd4ab906" x="399.282089" y="52.392725" style="fill: #2ca02c; stroke: #2ca02c"/>
     <use xlink:href="#mf7cd4ab906" x="407.407039" y="52.756" style="fill: #2ca02c; stroke: #2ca02c"/>
     <use xlink:href="#mf7cd4ab906" x="415.531989" y="51.689642" style="fill: #2ca02c; stroke: #2ca02c"/>
    </g>
   </g>
   <g id="line2d_22">
    <g clip-path="url(#pa71de44fec)">
     <use xlink:href="#m40f4b4f9b3" x="277.40784" y="47.882313" style="fill: #d62728; stroke: #d62728"/>
     <use xlink:href="#m40f4b4f9b3" x="285.53279" y="37.636231" style="fill: #d62728; stroke: #d62728"/>
     <use xlink:href="#m40f4b4f9b3" x="293.65774" y="36.537618" style="fill: #d62728; stroke: #d62728"/>
     <use xlink:href="#m40f4b4f9b3" x="301.78269" y="28.821111" style="fill: #d62728; stroke: #d62728"/>
     <use xlink:href="#m40f4b4f9b3" x="309.90764" y="35.128201" style="fill: #d62728; stroke: #d62728"/>
     <use xlink:href="#m40f4b4f9b3" x="318.032589" y="38.542387" style="fill: #d62728; stroke: #d62728"/>
     <use xlink:href="#m40f4b4f9b3" x="326.157539" y="38.53997" style="fill: #d62728; stroke: #d62728"/>
     <use xlink:href="#m40f4b4f9b3" x="334.282489" y="36.089837" style="fill: #d62728; stroke: #d62728"/>
     <use xlink:href="#m40f4b4f9b3" x="342.407439" y="39.193496" style="fill: #d62728; stroke: #d62728"/>
     <use xlink:href="#m40f4b4f9b3" x="350.532389" y="40.12614" style="fill: #d62728; stroke: #d62728"/>
     <use xlink:href="#m40f4b4f9b3" x="358.657339" y="42.240069" style="fill: #d62728; stroke: #d62728"/>
     <use xlink:href="#m40f4b4f9b3" x="366.782289" y="37.318603" style="fill: #d62728; stroke: #d62728"/>
     <use xlink:href="#m40f4b4f9b3" x="374.907239" y="39.677265" style="fill: #d62728; stroke: #d62728"/>
     <use xlink:href="#m40f4b4f9b3" x="383.032189" y="35.342155" style="fill: #d62728; stroke: #d62728"/>
     <use xlink:href="#m40f4b4f9b3" x="391.157139" y="32.739919" style="fill: #d62728; stroke: #d62728"/>
     <use xlink:href="#m40f4b4f9b3" x="399.282089" y="30.016433" style="fill: #d62728; stroke: #d62728"/>
     <use xlink:href="#m40f4b4f9b3" x="407.407039" y="32.479429" style="fill: #d62728; stroke: #d62728"/>
     <use xlink:href="#m40f4b4f9b3" x="415.531989" y="30.980804" style="fill: #d62728; stroke: #d62728"/>
    </g>
   </g>
   <g id="line2d_23">
    <g clip-path="url(#pa71de44fec)">
     <use xlink:href="#m32b108ea8c" x="293.65774" y="39.401852" style="fill: #9467bd; stroke: #9467bd"/>
     <use xlink:href="#m32b108ea8c" x="301.78269" y="25.179088" style="fill: #9467bd; stroke: #9467bd"/>
     <use xlink:href="#m32b108ea8c" x="309.90764" y="30.013169" style="fill: #9467bd; stroke: #9467bd"/>
     <use xlink:href="#m32b108ea8c" x="318.032589" y="26.878945" style="fill: #9467bd; stroke: #9467bd"/>
     <use xlink:href="#m32b108ea8c" x="326.157539" y="28.824449" style="fill: #9467bd; stroke: #9467bd"/>
     <use xlink:href="#m32b108ea8c" x="334.282489" y="35.236665" style="fill: #9467bd; stroke: #9467bd"/>
     <use xlink:href="#m32b108ea8c" x="342.407439" y="36.868592" style="fill: #9467bd; stroke: #9467bd"/>
     <use xlink:href="#m32b108ea8c" x="350.532389" y="35.011921" style="fill: #9467bd; stroke: #9467bd"/>
     <use xlink:href="#m32b108ea8c" x="358.657339" y="35.648054" style="fill: #9467bd; stroke: #9467bd"/>
     <use xlink:href="#m32b108ea8c" x="366.782289" y="39.574748" style="fill: #9467bd; stroke: #9467bd"/>
     <use xlink:href="#m32b108ea8c" x="374.907239" y="41.00537" style="fill: #9467bd; stroke: #9467bd"/>
     <use xlink:href="#m32b108ea8c" x="383.032189" y="41.946789" style="fill: #9467bd; stroke: #9467bd"/>
     <use xlink:href="#m32b108ea8c" x="391.157139" y="42.727849" style="fill: #9467bd; stroke: #9467bd"/>
     <use xlink:href="#m32b108ea8c" x="399.282089" y="41.471503" style="fill: #9467bd; stroke: #9467bd"/>
     <use xlink:href="#m32b108ea8c" x="407.407039" y="44.456119" style="fill: #9467bd; stroke: #9467bd"/>
     <use xlink:href="#m32b108ea8c" x="415.531989" y="44.441281" style="fill: #9467bd; stroke: #9467bd"/>
    </g>
   </g>
   <g id="line2d_24">
    <g clip-path="url(#pa71de44fec)">
     <use xlink:href="#m3c84cee1e3" x="277.40784" y="47.882313" style="fill-opacity: 0; stroke: #000000"/>
     <use xlink:href="#m3c84cee1e3" x="285.53279" y="37.636231" style="fill-opacity: 0; stroke: #000000"/>
     <use xlink:href="#m3c84cee1e3" x="293.65774" y="37.386171" style="fill-opacity: 0; stroke: #000000"/>
     <use xlink:href="#m3c84cee1e3" x="301.78269" y="32.982046" style="fill-opacity: 0; stroke: #000000"/>
     <use xlink:href="#m3c84cee1e3" x="309.90764" y="36.427196" style="fill-opacity: 0; stroke: #000000"/>
     <use xlink:href="#m3c84cee1e3" x="318.032589" y="35.604147" style="fill-opacity: 0; stroke: #000000"/>
     <use xlink:href="#m3c84cee1e3" x="326.157539" y="39.133248" style="fill-opacity: 0; stroke: #000000"/>
     <use xlink:href="#m3c84cee1e3" x="334.282489" y="37.688338" style="fill-opacity: 0; stroke: #000000"/>
     <use xlink:href="#m3c84cee1e3" x="342.407439" y="41.622906" style="fill-opacity: 0; stroke: #000000"/>
     <use xlink:href="#m3c84cee1e3" x="350.532389" y="42.86544" style="fill-opacity: 0; stroke: #000000"/>
     <use xlink:href="#m3c84cee1e3" x="358.657339" y="43.449981" style="fill-opacity: 0; stroke: #000000"/>
     <use xlink:href="#m3c84cee1e3" x="366.782289" y="41.597986" style="fill-opacity: 0; stroke: #000000"/>
     <use xlink:href="#m3c84cee1e3" x="374.907239" y="44.418365" style="fill-opacity: 0; stroke: #000000"/>
     <use xlink:href="#m3c84cee1e3" x="383.032189" y="44.666817" style="fill-opacity: 0; stroke: #000000"/>
     <use xlink:href="#m3c84cee1e3" x="391.157139" y="43.784888" style="fill-opacity: 0; stroke: #000000"/>
     <use xlink:href="#m3c84cee1e3" x="399.282089" y="42.275306" style="fill-opacity: 0; stroke: #000000"/>
     <use xlink:href="#m3c84cee1e3" x="407.407039" y="43.797301" style="fill-opacity: 0; stroke: #000000"/>
     <use xlink:href="#m3c84cee1e3" x="415.531989" y="42.642761" style="fill-opacity: 0; stroke: #000000"/>
    </g>
   </g>
   <g id="LineCollection_2">
    <path clip-path="url(#pa71de44fec)" style="fill: none; stroke: #000000; stroke-width: 1.5"/>
    <path clip-path="url(#pa71de44fec)" style="fill: none; stroke: #000000; stroke-width: 1.5"/>
    <path clip-path="url(#pa71de44fec)" style="fill: none; stroke: #000000; stroke-width: 1.5"/>
    <path d="M 277.40784 47.882313 
L 277.40784 47.882313 
" clip-path="url(#pa71de44fec)" style="fill: none; stroke: #000000; stroke-width: 1.5"/>
    <path d="M 285.53279 37.636231 
L 285.53279 37.636231 
" clip-path="url(#pa71de44fec)" style="fill: none; stroke: #000000; stroke-width: 1.5"/>
    <path d="M 293.65774 38.026233 
L 293.65774 36.746108 
" clip-path="url(#pa71de44fec)" style="fill: none; stroke: #000000; stroke-width: 1.5"/>
    <path d="M 301.78269 36.127232 
L 301.78269 29.83686 
" clip-path="url(#pa71de44fec)" style="fill: none; stroke: #000000; stroke-width: 1.5"/>
    <path d="M 309.90764 40.794676 
L 309.90764 32.059716 
" clip-path="url(#pa71de44fec)" style="fill: none; stroke: #000000; stroke-width: 1.5"/>
    <path d="M 318.032589 39.191563 
L 318.032589 32.016731 
" clip-path="url(#pa71de44fec)" style="fill: none; stroke: #000000; stroke-width: 1.5"/>
    <path d="M 326.157539 42.138818 
L 326.157539 36.127678 
" clip-path="url(#pa71de44fec)" style="fill: none; stroke: #000000; stroke-width: 1.5"/>
    <path d="M 334.282489 40.762727 
L 334.282489 34.613949 
" clip-path="url(#pa71de44fec)" style="fill: none; stroke: #000000; stroke-width: 1.5"/>
    <path d="M 342.407439 43.098689 
L 342.407439 40.147124 
" clip-path="url(#pa71de44fec)" style="fill: none; stroke: #000000; stroke-width: 1.5"/>
    <path d="M 350.532389 45.353107 
L 350.532389 40.377772 
" clip-path="url(#pa71de44fec)" style="fill: none; stroke: #000000; stroke-width: 1.5"/>
    <path d="M 358.657339 45.398481 
L 358.657339 41.50148 
" clip-path="url(#pa71de44fec)" style="fill: none; stroke: #000000; stroke-width: 1.5"/>
    <path d="M 366.782289 43.28119 
L 366.782289 39.914782 
" clip-path="url(#pa71de44fec)" style="fill: none; stroke: #000000; stroke-width: 1.5"/>
    <path d="M 374.907239 46.067173 
L 374.907239 42.769557 
" clip-path="url(#pa71de44fec)" style="fill: none; stroke: #000000; stroke-width: 1.5"/>
    <path d="M 383.032189 47.157261 
L 383.032189 42.176373 
" clip-path="url(#pa71de44fec)" style="fill: none; stroke: #000000; stroke-width: 1.5"/>
    <path d="M 391.157139 46.811426 
L 391.157139 40.75835 
" clip-path="url(#pa71de44fec)" style="fill: none; stroke: #000000; stroke-width: 1.5"/>
    <path d="M 399.282089 45.492986 
L 399.282089 39.057626 
" clip-path="url(#pa71de44fec)" style="fill: none; stroke: #000000; stroke-width: 1.5"/>
    <path d="M 407.407039 46.700695 
L 407.407039 40.893907 
" clip-path="url(#pa71de44fec)" style="fill: none; stroke: #000000; stroke-width: 1.5"/>
    <path d="M 415.531989 45.61877 
L 415.531989 39.666752 
" clip-path="url(#pa71de44fec)" style="fill: none; stroke: #000000; stroke-width: 1.5"/>
   </g>
   <g id="patch_6">
    <path d="M 251.408 71.08 
L 251.408 11.52 
" style="fill: none; stroke: #000000; stroke-width: 0.8; stroke-linejoin: miter; stroke-linecap: square"/>
   </g>
   <g id="patch_7">
    <path d="M 251.408 71.08 
L 417.156979 71.08 
" style="fill: none; stroke: #000000; stroke-width: 0.8; stroke-linejoin: miter; stroke-linecap: square"/>
   </g>
  </g>
 </g>
 <defs>
  <clipPath id="p17364303fb">
   <rect x="37.1" y="11.52" width="165.748979" height="59.56"/>
  </clipPath>
  <clipPath id="pa71de44fec">
   <rect x="251.408" y="11.52" width="165.748979" height="59.56"/>
  </clipPath>
 </defs>
</svg>
